%TF.GenerationSoftware,KiCad,Pcbnew,6.0.2-378541a8eb~116~ubuntu20.04.1*%
%TF.CreationDate,2022-03-22T16:19:33+00:00*%
%TF.ProjectId,Main board,4d61696e-2062-46f6-9172-642e6b696361,V1.0*%
%TF.SameCoordinates,Original*%
%TF.FileFunction,Soldermask,Top*%
%TF.FilePolarity,Negative*%
%FSLAX46Y46*%
G04 Gerber Fmt 4.6, Leading zero omitted, Abs format (unit mm)*
G04 Created by KiCad (PCBNEW 6.0.2-378541a8eb~116~ubuntu20.04.1) date 2022-03-22 16:19:33*
%MOMM*%
%LPD*%
G01*
G04 APERTURE LIST*
G04 Aperture macros list*
%AMRoundRect*
0 Rectangle with rounded corners*
0 $1 Rounding radius*
0 $2 $3 $4 $5 $6 $7 $8 $9 X,Y pos of 4 corners*
0 Add a 4 corners polygon primitive as box body*
4,1,4,$2,$3,$4,$5,$6,$7,$8,$9,$2,$3,0*
0 Add four circle primitives for the rounded corners*
1,1,$1+$1,$2,$3*
1,1,$1+$1,$4,$5*
1,1,$1+$1,$6,$7*
1,1,$1+$1,$8,$9*
0 Add four rect primitives between the rounded corners*
20,1,$1+$1,$2,$3,$4,$5,0*
20,1,$1+$1,$4,$5,$6,$7,0*
20,1,$1+$1,$6,$7,$8,$9,0*
20,1,$1+$1,$8,$9,$2,$3,0*%
%AMFreePoly0*
4,1,20,0.000000,0.744959,0.073905,0.744508,0.209726,0.703889,0.328688,0.626782,0.421226,0.519385,0.479903,0.390333,0.500000,0.250000,0.500000,-0.250000,0.499851,-0.262216,0.476331,-0.402017,0.414519,-0.529596,0.319384,-0.634700,0.198574,-0.708877,0.061801,-0.746166,0.000000,-0.745033,0.000000,-0.750000,-0.500000,-0.750000,-0.500000,0.750000,0.000000,0.750000,0.000000,0.744959,
0.000000,0.744959,$1*%
%AMFreePoly1*
4,1,22,0.500000,-0.750000,0.000000,-0.750000,0.000000,-0.745033,-0.079941,-0.743568,-0.215256,-0.701293,-0.333266,-0.622738,-0.424486,-0.514219,-0.481581,-0.384460,-0.499164,-0.250000,-0.500000,-0.250000,-0.500000,0.250000,-0.499164,0.250000,-0.499963,0.256109,-0.478152,0.396186,-0.417904,0.524511,-0.324060,0.630769,-0.204165,0.706417,-0.067858,0.745374,0.000000,0.744959,0.000000,0.750000,
0.500000,0.750000,0.500000,-0.750000,0.500000,-0.750000,$1*%
G04 Aperture macros list end*
%ADD10C,1.600000*%
%ADD11R,1.700000X1.700000*%
%ADD12C,6.000000*%
%ADD13O,1.500000X1.050000*%
%ADD14R,1.500000X1.050000*%
%ADD15RoundRect,1.000000X-1.000000X-1.000000X1.000000X-1.000000X1.000000X1.000000X-1.000000X1.000000X0*%
%ADD16C,4.500000*%
%ADD17C,2.000000*%
%ADD18RoundRect,1.000000X1.000000X-1.000000X1.000000X1.000000X-1.000000X1.000000X-1.000000X-1.000000X0*%
%ADD19RoundRect,1.000000X-1.500000X1.000000X-1.500000X-1.000000X1.500000X-1.000000X1.500000X1.000000X0*%
%ADD20RoundRect,0.875000X-0.875000X1.625000X-0.875000X-1.625000X0.875000X-1.625000X0.875000X1.625000X0*%
%ADD21R,5.000000X4.000000*%
%ADD22C,1.400000*%
%ADD23O,2.000000X1.905000*%
%ADD24R,2.000000X1.905000*%
%ADD25O,1.905000X2.000000*%
%ADD26R,1.905000X2.000000*%
%ADD27O,1.600000X1.600000*%
%ADD28O,1.050000X1.500000*%
%ADD29R,1.050000X1.500000*%
%ADD30O,1.700000X1.700000*%
%ADD31RoundRect,0.450000X0.450000X0.450000X-0.450000X0.450000X-0.450000X-0.450000X0.450000X-0.450000X0*%
%ADD32C,8.000000*%
%ADD33RoundRect,0.550000X-0.550000X-0.550000X0.550000X-0.550000X0.550000X0.550000X-0.550000X0.550000X0*%
%ADD34RoundRect,0.500000X-1.250000X-0.500000X1.250000X-0.500000X1.250000X0.500000X-1.250000X0.500000X0*%
%ADD35C,1.500000*%
%ADD36RoundRect,1.000000X-2.500000X1.000000X-2.500000X-1.000000X2.500000X-1.000000X2.500000X1.000000X0*%
%ADD37RoundRect,0.875000X-0.875000X0.875000X-0.875000X-0.875000X0.875000X-0.875000X0.875000X0.875000X0*%
%ADD38C,3.000000*%
%ADD39FreePoly0,0.000000*%
%ADD40FreePoly1,0.000000*%
%ADD41O,2.200000X2.200000*%
%ADD42R,2.200000X2.200000*%
%ADD43C,1.524000*%
%ADD44C,1.440000*%
%ADD45RoundRect,0.562500X-1.687500X-0.562500X1.687500X-0.562500X1.687500X0.562500X-1.687500X0.562500X0*%
%ADD46C,1.700000*%
%ADD47RoundRect,0.400000X0.400000X0.850000X-0.400000X0.850000X-0.400000X-0.850000X0.400000X-0.850000X0*%
%ADD48RoundRect,0.375000X0.375000X0.875000X-0.375000X0.875000X-0.375000X-0.875000X0.375000X-0.875000X0*%
%ADD49R,1.600000X2.500000*%
%ADD50O,1.730000X2.030000*%
%ADD51R,1.730000X2.030000*%
%ADD52C,1.800000*%
%ADD53R,1.800000X1.800000*%
G04 APERTURE END LIST*
D10*
%TO.C,J10*%
X236982000Y-92920000D03*
X245872000Y-92920000D03*
X234442000Y-92920000D03*
X248412000Y-92920000D03*
X236982000Y-95460000D03*
X245872000Y-95460000D03*
X234442000Y-95460000D03*
X248412000Y-95460000D03*
X245872000Y-98000000D03*
X236982000Y-98000000D03*
X234442000Y-98000000D03*
X248412000Y-98000000D03*
X236982000Y-100540000D03*
X245872000Y-100540000D03*
X248412000Y-100540000D03*
X234442000Y-100540000D03*
X236982000Y-103080000D03*
X245872000Y-103080000D03*
X248412000Y-103080000D03*
X234442000Y-103080000D03*
X236982000Y-105620000D03*
X245872000Y-105620000D03*
X234442000Y-105620000D03*
X248412000Y-105620000D03*
X245872000Y-108160000D03*
X236982000Y-108160000D03*
X234442000Y-108160000D03*
X248412000Y-108160000D03*
X236982000Y-110700000D03*
X245872000Y-110700000D03*
X234442000Y-110700000D03*
X248412000Y-110700000D03*
X236982000Y-113240000D03*
X245872000Y-113240000D03*
X248412000Y-113240000D03*
X234442000Y-113240000D03*
X236982000Y-115780000D03*
X245872000Y-115780000D03*
X248412000Y-115780000D03*
X234442000Y-115780000D03*
X236982000Y-118320000D03*
X245872000Y-118320000D03*
X248412000Y-118320000D03*
X234442000Y-118320000D03*
X236982000Y-120860000D03*
X245872000Y-120860000D03*
X248412000Y-120860000D03*
X234442000Y-120860000D03*
X236982000Y-123400000D03*
X245872000Y-123400000D03*
X248412000Y-123400000D03*
X234442000Y-123400000D03*
X245872000Y-125940000D03*
X236982000Y-125940000D03*
X234442000Y-125940000D03*
X248412000Y-125940000D03*
X245872000Y-128480000D03*
X236982000Y-128480000D03*
X234442000Y-128480000D03*
X248412000Y-128480000D03*
X236982000Y-131020000D03*
X245872000Y-131020000D03*
X234442000Y-131020000D03*
X248412000Y-131020000D03*
X245872000Y-133560000D03*
X236982000Y-133560000D03*
X234442000Y-133560000D03*
X248412000Y-133560000D03*
X236982000Y-136100000D03*
X245872000Y-136100000D03*
X234442000Y-136100000D03*
X248412000Y-136100000D03*
X245872000Y-138640000D03*
X236982000Y-138640000D03*
X234442000Y-138640000D03*
X248412000Y-138640000D03*
X245872000Y-141180000D03*
X236982000Y-141180000D03*
D11*
X234442000Y-141180000D03*
X248412000Y-141180000D03*
D12*
X235712000Y-88050000D03*
X235712000Y-146050000D03*
%TD*%
D13*
%TO.C,U2*%
X94488000Y-83058000D03*
X94488000Y-84328000D03*
D14*
X94488000Y-85598000D03*
%TD*%
D13*
%TO.C,U5*%
X108966000Y-83058000D03*
X108966000Y-84328000D03*
D14*
X108966000Y-85598000D03*
%TD*%
D15*
%TO.C,U6*%
X220307000Y-146619000D03*
X220307000Y-126619000D03*
X170307000Y-146619000D03*
X170307000Y-126619000D03*
D16*
X177307000Y-127119000D03*
X212307000Y-146119000D03*
%TD*%
D17*
%TO.C,TP2*%
X112268000Y-84582000D03*
%TD*%
D18*
%TO.C,J3*%
X94234000Y-71374000D03*
X99314000Y-71374000D03*
%TD*%
D19*
%TO.C,J1*%
X84328000Y-68730000D03*
D20*
X79328000Y-71830000D03*
D21*
X84328000Y-74930000D03*
%TD*%
D22*
%TO.C,F4*%
X213634000Y-96469200D03*
X208534000Y-95250000D03*
%TD*%
%TO.C,F2*%
X115112800Y-92476000D03*
X116332000Y-87376000D03*
%TD*%
D23*
%TO.C,D8*%
X189484000Y-89154000D03*
X189484000Y-86614000D03*
D24*
X189484000Y-84074000D03*
%TD*%
D25*
%TO.C,D1*%
X100076000Y-77089000D03*
X97536000Y-77089000D03*
D26*
X94996000Y-77089000D03*
%TD*%
D25*
%TO.C,D6*%
X114300000Y-77089000D03*
X111760000Y-77089000D03*
D26*
X109220000Y-77089000D03*
%TD*%
D10*
%TO.C,C15*%
X195326000Y-90852000D03*
X195326000Y-85852000D03*
%TD*%
%TO.C,C14*%
X195326000Y-78566000D03*
X195326000Y-83566000D03*
%TD*%
%TO.C,C22*%
X230632000Y-146558000D03*
X225632000Y-146558000D03*
%TD*%
%TO.C,C21*%
X147400000Y-92710000D03*
X152400000Y-92710000D03*
%TD*%
%TO.C,C8*%
X158496000Y-92630000D03*
X158496000Y-87630000D03*
%TD*%
%TO.C,C7*%
X133684000Y-82804000D03*
X138684000Y-82804000D03*
%TD*%
D27*
%TO.C,R2*%
X99568000Y-80010000D03*
D10*
X102108000Y-80010000D03*
%TD*%
D27*
%TO.C,R21*%
X181102000Y-82042000D03*
D10*
X181102000Y-79502000D03*
%TD*%
D27*
%TO.C,R5*%
X141478000Y-85598000D03*
D10*
X141478000Y-83058000D03*
%TD*%
D27*
%TO.C,R22*%
X183642000Y-89154000D03*
D10*
X181102000Y-89154000D03*
%TD*%
D27*
%TO.C,R3*%
X90424000Y-83058000D03*
D10*
X90424000Y-85598000D03*
%TD*%
D22*
%TO.C,F1*%
X100380800Y-92476000D03*
X101600000Y-87376000D03*
%TD*%
D10*
%TO.C,C11*%
X107442000Y-80010000D03*
X112442000Y-80010000D03*
%TD*%
%TO.C,C3*%
X93044000Y-80010000D03*
X98044000Y-80010000D03*
%TD*%
D17*
%TO.C,SW1*%
X134978000Y-88718000D03*
X141478000Y-88718000D03*
X134978000Y-93218000D03*
X141478000Y-93218000D03*
%TD*%
D10*
%TO.C,C1*%
X81614000Y-80264000D03*
X86614000Y-80264000D03*
%TD*%
%TO.C,C10*%
X104902000Y-74502000D03*
X104902000Y-79502000D03*
%TD*%
%TO.C,C16*%
X176022000Y-97028000D03*
X171022000Y-97028000D03*
%TD*%
D27*
%TO.C,R1*%
X97790000Y-82550000D03*
D10*
X100330000Y-82550000D03*
%TD*%
%TO.C,C18*%
X186690000Y-84408000D03*
X186690000Y-89408000D03*
%TD*%
%TO.C,C17*%
X187372000Y-91694000D03*
X182372000Y-91694000D03*
%TD*%
%TO.C,C2*%
X90678000Y-74502000D03*
X90678000Y-79502000D03*
%TD*%
D28*
%TO.C,U11*%
X183896000Y-85852000D03*
X182626000Y-85852000D03*
D29*
X181356000Y-85852000D03*
%TD*%
D27*
%TO.C,R29*%
X183642000Y-79502000D03*
D10*
X183642000Y-82042000D03*
%TD*%
%TO.C,C19*%
X141224000Y-133397000D03*
X141224000Y-128397000D03*
%TD*%
%TO.C,C9*%
X133684000Y-85852000D03*
X138684000Y-85852000D03*
%TD*%
D17*
%TO.C,TP4*%
X186436000Y-82042000D03*
%TD*%
D30*
%TO.C,JP12*%
X192151000Y-96139000D03*
X192151000Y-93599000D03*
X194691000Y-96139000D03*
D11*
X194691000Y-93599000D03*
%TD*%
D30*
%TO.C,JP1*%
X163576000Y-117856000D03*
X163576000Y-115316000D03*
X166116000Y-117856000D03*
D11*
X166116000Y-115316000D03*
%TD*%
D10*
%TO.C,J7*%
X220345000Y-72009000D03*
X220345000Y-74549000D03*
X217805000Y-72009000D03*
X217805000Y-74549000D03*
X215265000Y-72009000D03*
X215265000Y-74549000D03*
X212725000Y-72009000D03*
X212725000Y-74549000D03*
X210185000Y-72009000D03*
X210185000Y-74549000D03*
X207645000Y-72009000D03*
X207645000Y-74549000D03*
X205105000Y-72009000D03*
X205105000Y-74549000D03*
X202565000Y-72009000D03*
X202565000Y-74549000D03*
X200025000Y-72009000D03*
X200025000Y-74549000D03*
X197485000Y-72009000D03*
X197485000Y-74549000D03*
X194945000Y-72009000D03*
X194945000Y-74549000D03*
X192405000Y-72009000D03*
X192405000Y-74549000D03*
X189865000Y-72009000D03*
X189865000Y-74549000D03*
X187325000Y-72009000D03*
X187325000Y-74549000D03*
X184785000Y-72009000D03*
D31*
X184785000Y-74549000D03*
%TD*%
D27*
%TO.C,R16*%
X187198000Y-78232000D03*
D10*
X192278000Y-78232000D03*
%TD*%
D13*
%TO.C,U7*%
X162052000Y-107696000D03*
X162052000Y-106426000D03*
D14*
X162052000Y-105156000D03*
%TD*%
D27*
%TO.C,R8*%
X151384000Y-134366000D03*
D10*
X151384000Y-131826000D03*
%TD*%
D23*
%TO.C,D7*%
X152908000Y-104902000D03*
X152908000Y-107442000D03*
D24*
X152908000Y-109982000D03*
%TD*%
D27*
%TO.C,R4*%
X160020000Y-131826000D03*
D10*
X160020000Y-134366000D03*
%TD*%
D27*
%TO.C,R7*%
X154432000Y-131826000D03*
D10*
X154432000Y-134366000D03*
%TD*%
D27*
%TO.C,R17*%
X152654000Y-101092000D03*
D10*
X152654000Y-98552000D03*
%TD*%
%TO.C,C12*%
X166116000Y-108124000D03*
X166116000Y-103124000D03*
%TD*%
D27*
%TO.C,R19*%
X165862000Y-100838000D03*
D10*
X165862000Y-98298000D03*
%TD*%
D27*
%TO.C,R18*%
X158750000Y-105664000D03*
D10*
X158750000Y-108204000D03*
%TD*%
%TO.C,C4*%
X140542000Y-135382000D03*
X145542000Y-135382000D03*
%TD*%
D27*
%TO.C,R6*%
X157480000Y-134366000D03*
D10*
X157480000Y-131826000D03*
%TD*%
D32*
%TO.C,H1*%
X239268000Y-66040000D03*
%TD*%
%TO.C,H3*%
X239268000Y-80518000D03*
%TD*%
%TO.C,H5*%
X73660000Y-66040000D03*
%TD*%
%TO.C,H4*%
X127508000Y-85344000D03*
%TD*%
D33*
%TO.C,U4*%
X138084000Y-105296000D03*
D34*
X137764000Y-115616000D03*
X137764000Y-102616000D03*
X80264000Y-115616000D03*
X80264000Y-102616000D03*
D16*
X137264000Y-119616000D03*
X80764000Y-98616000D03*
X80764000Y-119616000D03*
X137264000Y-98616000D03*
%TD*%
D27*
%TO.C,R27*%
X144272000Y-114808000D03*
D10*
X144272000Y-104648000D03*
%TD*%
D27*
%TO.C,R9*%
X158496000Y-82042000D03*
D10*
X158496000Y-84582000D03*
%TD*%
D27*
%TO.C,R26*%
X141224000Y-114808000D03*
D10*
X141224000Y-104648000D03*
%TD*%
%TO.C,C5*%
X166116000Y-134620000D03*
X166116000Y-129620000D03*
%TD*%
%TO.C,C20*%
X144272000Y-133397000D03*
X144272000Y-128397000D03*
%TD*%
%TO.C,C13*%
X155956000Y-109394000D03*
X155956000Y-104394000D03*
%TD*%
D17*
%TO.C,TP3*%
X159258000Y-103378000D03*
%TD*%
D33*
%TO.C,U1*%
X138084000Y-131966000D03*
D34*
X137764000Y-142286000D03*
X137764000Y-129286000D03*
X80264000Y-142286000D03*
X80264000Y-129286000D03*
D16*
X137264000Y-125286000D03*
X137264000Y-146286000D03*
X80764000Y-146286000D03*
X80764000Y-125286000D03*
%TD*%
D27*
%TO.C,R14*%
X118872000Y-92710000D03*
D10*
X118872000Y-82550000D03*
%TD*%
D27*
%TO.C,R13*%
X112268000Y-82550000D03*
D10*
X114808000Y-82550000D03*
%TD*%
D27*
%TO.C,R15*%
X104902000Y-83058000D03*
D10*
X104902000Y-85598000D03*
%TD*%
D32*
%TO.C,H2*%
X73660000Y-144780000D03*
%TD*%
D15*
%TO.C,U10*%
X220307000Y-120965000D03*
X220307000Y-100965000D03*
X170307000Y-120965000D03*
X170307000Y-100965000D03*
D16*
X177307000Y-101465000D03*
X212307000Y-120465000D03*
%TD*%
D22*
%TO.C,F3*%
X225501200Y-135616000D03*
X224282000Y-140716000D03*
%TD*%
D35*
%TO.C,U8*%
X177165000Y-66294000D03*
X177165000Y-68834000D03*
X177165000Y-71374000D03*
X177165000Y-73914000D03*
X177165000Y-76454000D03*
X177165000Y-78994000D03*
X177165000Y-81534000D03*
X177165000Y-84074000D03*
X177165000Y-86614000D03*
X177165000Y-89154000D03*
X177165000Y-91694000D03*
X177165000Y-94234000D03*
X161925000Y-94234000D03*
X161925000Y-91694000D03*
X161925000Y-89154000D03*
X161925000Y-86614000D03*
X161925000Y-84074000D03*
X161925000Y-81534000D03*
X161925000Y-78994000D03*
X161925000Y-76454000D03*
X161925000Y-73914000D03*
X161925000Y-71374000D03*
X161925000Y-68834000D03*
X161925000Y-66294000D03*
%TD*%
D36*
%TO.C,J6*%
X144098000Y-63954000D03*
X154258000Y-63954000D03*
D37*
X149178000Y-78954000D03*
D38*
X154178000Y-76454000D03*
X144178000Y-76454000D03*
X156678000Y-73954000D03*
D37*
X149178000Y-73954000D03*
D38*
X141678000Y-73954000D03*
%TD*%
D36*
%TO.C,J4*%
X122635000Y-63954000D03*
X132795000Y-63954000D03*
D38*
X132715000Y-76454000D03*
X122715000Y-76454000D03*
X135215000Y-73954000D03*
X120215000Y-73954000D03*
%TD*%
D18*
%TO.C,J8*%
X108204000Y-71374000D03*
X113284000Y-71374000D03*
%TD*%
D17*
%TO.C,TP1*%
X97790000Y-84582000D03*
%TD*%
D39*
%TO.C,JP8*%
X239918000Y-106934000D03*
D40*
X238618000Y-106934000D03*
%TD*%
D27*
%TO.C,R11*%
X162560000Y-134366000D03*
D10*
X162560000Y-131826000D03*
%TD*%
D39*
%TO.C,JP10*%
X239918000Y-109474000D03*
D40*
X238618000Y-109474000D03*
%TD*%
D27*
%TO.C,R30*%
X75692000Y-128778000D03*
D10*
X75692000Y-138938000D03*
%TD*%
D41*
%TO.C,D4*%
X148844000Y-128524000D03*
D42*
X152654000Y-128524000D03*
%TD*%
D43*
%TO.C,U9*%
X205740000Y-78359000D03*
X200660000Y-80899000D03*
X200660000Y-78359000D03*
X203200000Y-80899000D03*
X205740000Y-80899000D03*
X203200000Y-78359000D03*
X208280000Y-80899000D03*
X210820000Y-78359000D03*
X210820000Y-80899000D03*
X213360000Y-78359000D03*
X213360000Y-80899000D03*
X208280000Y-78359000D03*
X213360000Y-91059000D03*
X208280000Y-88519000D03*
X213360000Y-88519000D03*
X210820000Y-91059000D03*
X208280000Y-91059000D03*
X210820000Y-88519000D03*
X203200000Y-88519000D03*
X205740000Y-91059000D03*
X203200000Y-91059000D03*
X200660000Y-88519000D03*
X200660000Y-91059000D03*
X205740000Y-88519000D03*
%TD*%
D39*
%TO.C,JP5*%
X239776000Y-112014000D03*
D40*
X238476000Y-112014000D03*
%TD*%
D10*
%TO.C,C6*%
X166116000Y-122508000D03*
X166116000Y-127508000D03*
%TD*%
D39*
%TO.C,JP4*%
X239918000Y-101854000D03*
D40*
X238618000Y-101854000D03*
%TD*%
D39*
%TO.C,JP11*%
X239918000Y-99060000D03*
D40*
X238618000Y-99060000D03*
%TD*%
D39*
%TO.C,JP3*%
X239776000Y-122174000D03*
D40*
X238476000Y-122174000D03*
%TD*%
D27*
%TO.C,R12*%
X148844000Y-131826000D03*
D10*
X148844000Y-134366000D03*
%TD*%
D33*
%TO.C,J5*%
X58928000Y-81280000D03*
X56388000Y-81280000D03*
X61467999Y-81247551D03*
X64008000Y-81280000D03*
X56388000Y-83820000D03*
X58928000Y-83820000D03*
X64008000Y-83820000D03*
X61468000Y-83820000D03*
X58928000Y-86360000D03*
X56388000Y-86360000D03*
X61468000Y-86360000D03*
X64008000Y-86360000D03*
X56388000Y-88900000D03*
X58928000Y-88900000D03*
X64008000Y-88900000D03*
X61468000Y-88900000D03*
X58928000Y-91440000D03*
X56388000Y-91440000D03*
X64008000Y-91440000D03*
X61468000Y-91440000D03*
X56388000Y-93980000D03*
X58928000Y-93980000D03*
X64008000Y-93980000D03*
X61468000Y-93980000D03*
X56388000Y-96520000D03*
X58928000Y-96520000D03*
X64008000Y-96520000D03*
X61468000Y-96520000D03*
X56388000Y-99060000D03*
X58928000Y-99060000D03*
X61468000Y-99060000D03*
X64008000Y-99060000D03*
X58928000Y-101600000D03*
X56388000Y-101600000D03*
X61468000Y-101600000D03*
X64008000Y-101600000D03*
X56388000Y-104140000D03*
X58928000Y-104140000D03*
X64008000Y-104140000D03*
X61467999Y-104134347D03*
X56388000Y-106680000D03*
X58928000Y-106680000D03*
X61468000Y-106680000D03*
X64008000Y-106680000D03*
X56388000Y-109220000D03*
X58928000Y-109220000D03*
X64008000Y-109220000D03*
X61468000Y-109220000D03*
X58928000Y-111760000D03*
X56388000Y-111760000D03*
X61468000Y-111760000D03*
X64008000Y-111760000D03*
X56388000Y-114300000D03*
X58928000Y-114300000D03*
X64008000Y-114300000D03*
X61468000Y-114300000D03*
X58928000Y-116840000D03*
X56388000Y-116840000D03*
X61468000Y-116840000D03*
X64008000Y-116840000D03*
X58928000Y-119380000D03*
X56388000Y-119380000D03*
X64008000Y-119380000D03*
X61468000Y-119380000D03*
X56388000Y-121920000D03*
X58928000Y-121920000D03*
X64008000Y-121920000D03*
X61468000Y-121920000D03*
X58928000Y-124460000D03*
X56388000Y-124460000D03*
X64008000Y-124460000D03*
X61468000Y-124460000D03*
X58928000Y-127000000D03*
X56388000Y-127000000D03*
X61468000Y-127000000D03*
X64008000Y-127000000D03*
X56388000Y-129540000D03*
X58928000Y-129540000D03*
D42*
X61468000Y-129540000D03*
X64008000Y-129540000D03*
%TD*%
D27*
%TO.C,R24*%
X141224000Y-116205000D03*
D10*
X141224000Y-126365000D03*
%TD*%
D30*
%TO.C,J9*%
X231648000Y-133604000D03*
X231648000Y-136144000D03*
X231648000Y-138684000D03*
D11*
X231648000Y-141224000D03*
%TD*%
D27*
%TO.C,R10*%
X163576000Y-129286000D03*
D10*
X163576000Y-126746000D03*
%TD*%
D30*
%TO.C,JP14*%
X143764000Y-102362000D03*
X141224000Y-102362000D03*
X143764000Y-99822000D03*
X141224000Y-99822000D03*
X143764000Y-97282000D03*
D11*
X141224000Y-97282000D03*
%TD*%
D44*
%TO.C,RV3*%
X161798000Y-99568000D03*
X159258000Y-99568000D03*
X156718000Y-99568000D03*
%TD*%
D39*
%TO.C,JP7*%
X239918000Y-117094000D03*
D40*
X238618000Y-117094000D03*
%TD*%
D39*
%TO.C,JP2*%
X239806000Y-124714000D03*
D40*
X238506000Y-124714000D03*
%TD*%
D39*
%TO.C,JP9*%
X239918000Y-114554000D03*
D40*
X238618000Y-114554000D03*
%TD*%
D45*
%TO.C,J2*%
X125516000Y-93980000D03*
X130516000Y-93980000D03*
X125516000Y-91440000D03*
X130516000Y-91440000D03*
%TD*%
D44*
%TO.C,RV2*%
X106172000Y-89916000D03*
X108712000Y-89916000D03*
X111252000Y-89916000D03*
%TD*%
D39*
%TO.C,JP13*%
X239806000Y-119634000D03*
D40*
X238506000Y-119634000D03*
%TD*%
D39*
%TO.C,JP6*%
X239918000Y-104394000D03*
D40*
X238618000Y-104394000D03*
%TD*%
D27*
%TO.C,R28*%
X155194000Y-92456000D03*
D10*
X155194000Y-89916000D03*
%TD*%
D46*
%TO.C,C23*%
X230806000Y-130810000D03*
D11*
X225806000Y-130810000D03*
%TD*%
D32*
%TO.C,H6*%
X157226000Y-116586000D03*
%TD*%
D41*
%TO.C,D5*%
X148844000Y-124968000D03*
D42*
X152654000Y-124968000D03*
%TD*%
D41*
%TO.C,D2*%
X156972000Y-128524000D03*
D42*
X160782000Y-128524000D03*
%TD*%
D27*
%TO.C,R20*%
X146812000Y-89916000D03*
D10*
X149352000Y-89916000D03*
%TD*%
D47*
%TO.C,U3*%
X144780000Y-140826000D03*
X146050000Y-145906000D03*
X147320000Y-140826000D03*
X148590000Y-145906000D03*
X149860000Y-140826000D03*
X151130000Y-145906000D03*
X152400000Y-140826000D03*
X153670000Y-145906000D03*
X154940000Y-140826000D03*
X156210000Y-145906000D03*
X157480000Y-140826000D03*
X158750000Y-145906000D03*
X160020000Y-140826000D03*
D48*
X161290000Y-145906000D03*
D49*
X162560000Y-140826000D03*
%TD*%
D41*
%TO.C,D3*%
X156972000Y-124968000D03*
D42*
X160782000Y-124968000D03*
%TD*%
D27*
%TO.C,R31*%
X71882000Y-138938000D03*
D10*
X71882000Y-128778000D03*
%TD*%
D27*
%TO.C,R25*%
X144272000Y-116205000D03*
D10*
X144272000Y-126365000D03*
%TD*%
D27*
%TO.C,R23*%
X155194000Y-87122000D03*
D10*
X155194000Y-84582000D03*
%TD*%
D44*
%TO.C,RV1*%
X91440000Y-89916000D03*
X93980000Y-89916000D03*
X96520000Y-89916000D03*
%TD*%
D50*
%TO.C,J11*%
X152400000Y-85090000D03*
X149860000Y-85090000D03*
D51*
X147320000Y-85090000D03*
%TD*%
D52*
%TO.C,D9*%
X88138000Y-136398000D03*
D53*
X90678000Y-136398000D03*
%TD*%
M02*
