M48
; DRILL file {KiCad 6.0.2-378541a8eb~116~ubuntu20.04.1} date Tue 22 Mar 2022 16:19:57 GMT
; FORMAT={-:-/ absolute / inch / decimal}
; #@! TF.CreationDate,2022-03-22T16:19:57+00:00
; #@! TF.GenerationSoftware,Kicad,Pcbnew,6.0.2-378541a8eb~116~ubuntu20.04.1
; #@! TF.FileFunction,Plated,1,2,PTH
FMAT,2
INCH
; #@! TA.AperFunction,Plated,PTH,ViaDrill
T1C0.0157
; #@! TA.AperFunction,Plated,PTH,ViaDrill
T2C0.0236
; #@! TA.AperFunction,Plated,PTH,ComponentDrill
T3C0.0295
; #@! TA.AperFunction,Plated,PTH,ViaDrill
T4C0.0315
; #@! TA.AperFunction,Plated,PTH,ComponentDrill
T5C0.0315
; #@! TA.AperFunction,Plated,PTH,ComponentDrill
T6C0.0335
; #@! TA.AperFunction,Plated,PTH,ComponentDrill
T7C0.0354
; #@! TA.AperFunction,Plated,PTH,ViaDrill
T8C0.0394
; #@! TA.AperFunction,Plated,PTH,ComponentDrill
T9C0.0394
; #@! TA.AperFunction,Plated,PTH,ComponentDrill
T10C0.0402
; #@! TA.AperFunction,Plated,PTH,ComponentDrill
T11C0.0433
; #@! TA.AperFunction,Plated,PTH,ComponentDrill
T12C0.0472
; #@! TA.AperFunction,Plated,PTH,ComponentDrill
T13C0.0512
; #@! TA.AperFunction,Plated,PTH,ComponentDrill
T14C0.0591
; #@! TA.AperFunction,Plated,PTH,ComponentDrill
T15C0.0709
; #@! TA.AperFunction,Plated,PTH,ComponentDrill
T16C0.1063
; #@! TA.AperFunction,Plated,PTH,ComponentDrill
T17C0.1299
; #@! TA.AperFunction,Plated,PTH,ComponentDrill
T18C0.1378
%
G90
G05
T1
X4.7Y-3.13
X4.725Y-2.72
X4.975Y-2.72
X4.975Y-2.91
X4.975Y-3.11
X5.225Y-2.72
X5.225Y-2.91
X5.225Y-3.11
X5.37Y-3.43
X5.442Y-3.5814
X5.475Y-2.72
X5.475Y-2.91
X5.475Y-3.11
X5.55Y-4.26
X5.55Y-4.43
X5.55Y-4.67
X5.55Y-4.89
X5.5811Y-3.2011
X5.61Y-3.89
X5.62Y-4.12
X5.62Y-5.1
X5.67Y-3.69
X5.69Y-4.26
X5.69Y-4.43
X5.725Y-2.72
X5.725Y-2.91
X5.73Y-3.32
X5.76Y-3.15
X5.8Y-3.44
X5.95Y-3.82
X5.975Y-2.72
X5.98Y-3.11
X6.0Y-3.44
X6.0Y-3.55
X6.0277Y-5.3777
X6.07Y-3.11
X6.0977Y-5.4023
X6.1315Y-5.44
X6.18Y-3.43
X6.18Y-5.44
X6.19Y-2.77
X6.24Y-3.11
X6.24Y-3.72
X6.3Y-3.49
X6.475Y-3.41
X6.475Y-3.61
X6.5Y-2.61
X6.5Y-2.91
X6.6Y-2.76
X6.6Y-3.41
X6.6Y-3.61
X6.7Y-2.76
X6.75Y-3.41
X6.75Y-3.61
X6.81Y-5.3478
X6.81Y-5.4107
X6.84Y-5.31
X6.84Y-5.3785
X6.84Y-5.4415
X6.85Y-2.61
X6.85Y-2.71
X6.875Y-3.19
X6.875Y-3.41
X6.875Y-3.61
X7.05Y-2.61
X7.08Y-2.85
X7.1085Y-5.19
X7.2Y-2.61
X7.24Y-3.31
X7.27Y-3.61
X7.275Y-2.61
X7.32Y-3.12
X7.33Y-2.88
X7.34Y-3.42
X7.4Y-2.51
X7.4Y-2.61
X7.44Y-3.22
X7.46Y-3.61
X7.63Y-3.49
X7.65Y-2.51
X7.65Y-2.61
X7.72Y-2.88
X7.78Y-3.09
X7.78Y-3.21
X7.78Y-3.43
X7.84Y-3.61
X7.9Y-2.51
X7.9Y-2.61
X8.0Y-3.25
X8.0Y-3.42
X8.025Y-2.75
X8.05Y-3.3
X8.075Y-2.71
X8.11Y-3.25
X8.15Y-2.51
X8.15Y-2.61
X8.19Y-3.25
X8.19Y-3.3
X8.19Y-3.35
X8.19Y-3.3933
X8.4Y-2.51
X8.4Y-2.61
X8.4Y-2.71
X8.5Y-3.01
X8.5Y-3.185
X8.5Y-3.56
X8.5Y-3.66
X8.6Y-3.01
X8.6Y-3.66
X8.65Y-2.51
X8.65Y-2.61
X8.65Y-2.71
X8.7Y-3.01
X8.8Y-3.01
X8.95Y-2.51
X8.95Y-2.71
X8.95Y-2.91
X8.95Y-3.46
X9.0Y-3.41
X9.05Y-3.11
X9.05Y-3.36
X9.1Y-3.31
X9.1Y-4.98
X9.2Y-2.51
X9.2Y-2.71
X9.2Y-2.91
X9.2Y-3.11
X9.45Y-3.51
X9.55Y-3.51
T2
X6.42Y-5.66
T3
X3.72Y-3.27
X3.72Y-3.32
X3.72Y-3.37
X4.29Y-3.27
X4.29Y-3.32
X4.29Y-3.37
X6.38Y-4.14
X6.38Y-4.19
X6.38Y-4.24
X7.14Y-3.38
X7.19Y-3.38
X7.24Y-3.38
T4
X5.9431Y-4.84
X6.16Y-4.84
T5
X2.83Y-5.07
X2.83Y-5.47
X2.98Y-5.07
X2.98Y-5.47
X3.2131Y-3.16
X3.41Y-3.16
X3.56Y-3.27
X3.56Y-3.37
X3.57Y-2.9331
X3.57Y-3.13
X3.6Y-3.54
X3.6631Y-3.15
X3.7Y-3.54
X3.8Y-3.54
X3.85Y-3.25
X3.86Y-3.15
X3.92Y-3.15
X3.95Y-3.25
X4.02Y-3.15
X4.13Y-2.9331
X4.13Y-3.13
X4.13Y-3.27
X4.13Y-3.37
X4.18Y-3.54
X4.23Y-3.15
X4.28Y-3.54
X4.38Y-3.54
X4.42Y-3.25
X4.4269Y-3.15
X4.52Y-3.25
X4.68Y-3.25
X4.68Y-3.65
X5.2631Y-3.26
X5.2631Y-3.38
X5.46Y-3.26
X5.46Y-3.38
X5.5331Y-5.33
X5.56Y-4.12
X5.56Y-4.52
X5.56Y-4.575
X5.56Y-4.975
X5.56Y-5.055
X5.56Y-5.2519
X5.57Y-3.27
X5.57Y-3.37
X5.68Y-4.12
X5.68Y-4.52
X5.68Y-4.575
X5.68Y-4.975
X5.68Y-5.055
X5.68Y-5.2519
X5.73Y-5.33
X5.78Y-3.54
X5.8031Y-3.65
X5.86Y-5.19
X5.86Y-5.29
X5.88Y-3.54
X5.96Y-5.19
X5.96Y-5.29
X6.0Y-3.65
X6.01Y-3.88
X6.01Y-3.98
X6.08Y-5.19
X6.08Y-5.29
X6.11Y-3.33
X6.11Y-3.43
X6.11Y-3.54
X6.11Y-3.64
X6.14Y-4.11
X6.14Y-4.3069
X6.17Y-3.92
X6.2Y-5.19
X6.2Y-5.29
X6.24Y-3.23
X6.24Y-3.33
X6.24Y-3.45
X6.24Y-3.6469
X6.25Y-4.16
X6.25Y-4.26
X6.27Y-3.92
X6.3Y-5.19
X6.3Y-5.29
X6.37Y-3.92
X6.4Y-5.19
X6.4Y-5.29
X6.44Y-4.99
X6.44Y-5.09
X6.53Y-3.87
X6.53Y-3.97
X6.54Y-4.06
X6.54Y-4.2569
X6.54Y-4.8231
X6.54Y-5.02
X6.54Y-5.1031
X6.54Y-5.3
X6.7331Y-3.82
X6.93Y-3.82
X7.13Y-3.13
X7.13Y-3.23
X7.13Y-3.51
X7.18Y-3.61
X7.23Y-3.13
X7.23Y-3.23
X7.23Y-3.51
X7.35Y-3.3231
X7.35Y-3.52
X7.37Y-3.08
X7.3769Y-3.61
X7.57Y-3.08
X7.69Y-3.0931
X7.69Y-3.29
X7.69Y-3.38
X7.69Y-3.5769
X8.8831Y-5.77
X9.08Y-5.77
T6
X3.952Y-3.6408
X4.0Y-3.44
X4.532Y-3.6408
X4.58Y-3.44
X8.21Y-3.75
X8.4108Y-3.798
X8.83Y-5.54
X8.878Y-5.3392
T7
X3.47Y-5.37
X3.57Y-5.37
X8.89Y-5.15
X9.0869Y-5.15
T8
X4.5Y-5.2
X4.5Y-5.3
X6.78Y-4.54
X6.8Y-5.54
X6.86Y-4.54
X6.9Y-5.54
X7.775Y-3.785
X7.89Y-3.785
X8.01Y-3.785
X8.15Y-4.65
X8.15Y-4.76
T9
X2.22Y-3.2
X2.22Y-3.3
X2.22Y-3.4
X2.22Y-3.5
X2.22Y-3.6
X2.22Y-3.7
X2.22Y-3.8
X2.22Y-3.9
X2.22Y-4.0
X2.22Y-4.1
X2.22Y-4.2
X2.22Y-4.3
X2.22Y-4.4
X2.22Y-4.5
X2.22Y-4.6
X2.22Y-4.7
X2.22Y-4.8
X2.22Y-4.9
X2.22Y-5.0
X2.22Y-5.1
X2.32Y-3.2
X2.32Y-3.3
X2.32Y-3.4
X2.32Y-3.5
X2.32Y-3.6
X2.32Y-3.7
X2.32Y-3.8
X2.32Y-3.9
X2.32Y-4.0
X2.32Y-4.1
X2.32Y-4.2
X2.32Y-4.3
X2.32Y-4.4
X2.32Y-4.5
X2.32Y-4.6
X2.32Y-4.7
X2.32Y-4.8
X2.32Y-4.9
X2.32Y-5.0
X2.32Y-5.1
X2.42Y-3.1987
X2.42Y-4.0998
X2.42Y-3.3
X2.42Y-3.4
X2.42Y-3.5
X2.42Y-3.6
X2.42Y-3.7
X2.42Y-3.8
X2.42Y-3.9
X2.42Y-4.0
X2.42Y-4.2
X2.42Y-4.3
X2.42Y-4.4
X2.42Y-4.5
X2.42Y-4.6
X2.42Y-4.7
X2.42Y-4.8
X2.42Y-4.9
X2.42Y-5.0
X2.42Y-5.1
X2.52Y-3.2
X2.52Y-3.3
X2.52Y-3.4
X2.52Y-3.5
X2.52Y-3.6
X2.52Y-3.7
X2.52Y-3.8
X2.52Y-3.9
X2.52Y-4.0
X2.52Y-4.1
X2.52Y-4.2
X2.52Y-4.3
X2.52Y-4.4
X2.52Y-4.5
X2.52Y-4.6
X2.52Y-4.7
X2.52Y-4.8
X2.52Y-4.9
X2.52Y-5.0
X2.52Y-5.1
X5.4364Y-4.1455
X5.4364Y-5.1955
X5.56Y-3.83
X5.56Y-3.93
X5.56Y-4.03
X5.66Y-3.83
X5.66Y-3.93
X5.66Y-4.03
X5.7Y-5.5443
X5.75Y-5.7443
X5.8Y-5.5443
X5.85Y-5.7443
X5.9Y-5.5443
X5.95Y-5.7443
X6.0Y-5.5443
X6.05Y-5.7443
X6.1Y-5.5443
X6.15Y-5.7443
X6.2Y-5.5443
X6.25Y-5.7443
X6.3Y-5.5443
X6.35Y-5.7443
X6.375Y-2.61
X6.375Y-2.71
X6.375Y-2.81
X6.375Y-2.91
X6.375Y-3.01
X6.375Y-3.11
X6.375Y-3.21
X6.375Y-3.31
X6.375Y-3.41
X6.375Y-3.51
X6.375Y-3.61
X6.375Y-3.71
X6.4Y-5.5443
X6.44Y-4.54
X6.44Y-4.64
X6.54Y-4.54
X6.54Y-4.64
X6.975Y-2.61
X6.975Y-2.71
X6.975Y-2.81
X6.975Y-2.91
X6.975Y-3.01
X6.975Y-3.11
X6.975Y-3.21
X6.975Y-3.31
X6.975Y-3.41
X6.975Y-3.51
X6.975Y-3.61
X6.975Y-3.71
X7.565Y-3.685
X7.565Y-3.785
X7.665Y-3.685
X7.665Y-3.785
X7.9Y-3.085
X7.9Y-3.185
X7.9Y-3.485
X7.9Y-3.585
X8.0Y-3.085
X8.0Y-3.185
X8.0Y-3.485
X8.0Y-3.585
X8.1Y-3.085
X8.1Y-3.185
X8.1Y-3.485
X8.1Y-3.585
X8.2Y-3.085
X8.2Y-3.185
X8.2Y-3.485
X8.2Y-3.585
X8.3Y-3.085
X8.3Y-3.185
X8.3Y-3.485
X8.3Y-3.585
X8.4Y-3.085
X8.4Y-3.185
X8.4Y-3.485
X8.4Y-3.585
X9.12Y-5.26
X9.12Y-5.36
X9.12Y-5.46
X9.12Y-5.56
X9.23Y-3.6583
X9.23Y-3.7583
X9.23Y-3.8583
X9.23Y-3.9583
X9.23Y-4.0583
X9.23Y-4.1583
X9.23Y-4.2583
X9.23Y-4.3583
X9.23Y-4.4583
X9.23Y-4.5583
X9.23Y-4.6583
X9.23Y-4.7583
X9.23Y-4.8583
X9.23Y-4.9583
X9.23Y-5.0583
X9.23Y-5.1583
X9.23Y-5.2583
X9.23Y-5.3583
X9.23Y-5.4583
X9.23Y-5.5583
X9.33Y-3.6583
X9.33Y-3.7583
X9.33Y-3.8583
X9.33Y-3.9583
X9.33Y-4.0583
X9.33Y-4.1583
X9.33Y-4.2583
X9.33Y-4.3583
X9.33Y-4.4583
X9.33Y-4.5583
X9.33Y-4.6583
X9.33Y-4.7583
X9.33Y-4.8583
X9.33Y-4.9583
X9.33Y-5.0583
X9.33Y-5.1583
X9.33Y-5.2583
X9.33Y-5.3583
X9.33Y-5.4583
X9.33Y-5.5583
X9.68Y-3.6583
X9.68Y-3.7583
X9.68Y-3.8583
X9.68Y-3.9583
X9.68Y-4.0583
X9.68Y-4.1583
X9.68Y-4.2583
X9.68Y-4.3583
X9.68Y-4.4583
X9.68Y-4.5583
X9.68Y-4.6583
X9.68Y-4.7583
X9.68Y-4.8583
X9.68Y-4.9583
X9.68Y-5.0583
X9.68Y-5.1583
X9.68Y-5.2583
X9.68Y-5.3583
X9.68Y-5.4583
X9.68Y-5.5583
X9.78Y-3.6583
X9.78Y-3.7583
X9.78Y-3.8583
X9.78Y-3.9583
X9.78Y-4.0583
X9.78Y-4.1583
X9.78Y-4.2583
X9.78Y-4.3583
X9.78Y-4.4583
X9.78Y-4.5583
X9.78Y-4.6583
X9.78Y-4.7583
X9.78Y-4.8583
X9.78Y-4.9583
X9.78Y-5.0583
X9.78Y-5.1583
X9.78Y-5.2583
X9.78Y-5.3583
X9.78Y-5.4583
X9.78Y-5.5583
T10
X5.8Y-3.35
X5.9Y-3.35
X6.0Y-3.35
T11
X3.74Y-3.035
X3.84Y-3.035
X3.94Y-3.035
X4.3Y-3.035
X4.4Y-3.035
X4.5Y-3.035
X5.3141Y-3.4928
X5.3141Y-3.67
X5.57Y-3.4928
X5.57Y-3.67
X5.86Y-4.92
X5.86Y-5.06
X6.01Y-4.92
X6.01Y-5.06
X6.02Y-4.13
X6.02Y-4.23
X6.02Y-4.33
X6.18Y-4.92
X6.18Y-5.06
X6.33Y-4.92
X6.33Y-5.06
X7.275Y-2.835
X7.275Y-2.935
X7.375Y-2.835
X7.375Y-2.935
X7.46Y-3.31
X7.46Y-3.41
X7.46Y-3.51
X7.475Y-2.835
X7.475Y-2.935
X7.575Y-2.835
X7.575Y-2.935
X7.675Y-2.835
X7.675Y-2.935
X7.775Y-2.835
X7.775Y-2.935
X7.875Y-2.835
X7.875Y-2.935
X7.975Y-2.835
X7.975Y-2.935
X8.075Y-2.835
X8.075Y-2.935
X8.175Y-2.835
X8.175Y-2.935
X8.275Y-2.835
X8.275Y-2.935
X8.375Y-2.835
X8.375Y-2.935
X8.475Y-2.835
X8.475Y-2.935
X8.575Y-2.835
X8.575Y-2.935
X8.675Y-2.835
X8.675Y-2.935
T12
X3.16Y-4.04
X3.16Y-4.5518
X3.16Y-5.09
X3.16Y-5.6018
X5.4238Y-4.04
X5.4238Y-4.5518
X5.4238Y-5.09
X5.4238Y-5.6018
X6.705Y-3.975
X6.705Y-4.7624
X6.705Y-4.985
X6.705Y-5.7724
X8.6735Y-3.975
X8.6735Y-4.7624
X8.6735Y-4.985
X8.6735Y-5.7724
T13
X3.71Y-2.81
X3.91Y-2.81
X4.26Y-2.81
X4.46Y-2.81
X4.9416Y-3.6
X4.9416Y-3.7
X5.1384Y-3.6
X5.1384Y-3.7
T14
X4.7329Y-2.9116
X4.8313Y-3.01
X5.225Y-3.01
X5.3234Y-2.9116
X5.5779Y-2.9116
X5.6763Y-3.01
X5.8731Y-2.9116
X5.8731Y-3.1084
X6.07Y-3.01
X6.1684Y-2.9116
T15
X4.8281Y-2.5179
X5.2281Y-2.5179
X5.6731Y-2.5179
X6.0731Y-2.5179
T16
X9.28Y-3.4665
X9.28Y-5.75
T17
X3.1797Y-3.8825
X3.1797Y-4.7093
X3.1797Y-4.9325
X3.1797Y-5.7593
X5.4041Y-3.8825
X5.4041Y-4.7093
X5.4041Y-4.9325
X5.4041Y-5.7593
X6.9806Y-3.9947
X6.9806Y-5.0047
X8.3585Y-4.7427
X8.3585Y-5.7527
T18
X2.9Y-2.6
X2.9Y-5.7
X5.02Y-3.36
X6.19Y-4.59
X9.42Y-2.6
X9.42Y-3.17
T9
G00X3.1231Y-2.7846
M15
G01X3.1231Y-2.8713
M16
G05
G00X3.3633Y-2.7059
M15
G01X3.2767Y-2.7059
M16
G05
G00X3.3633Y-2.95
M15
G01X3.2767Y-2.95
M16
G05
T0
M30
