%TF.GenerationSoftware,KiCad,Pcbnew,6.0.2-378541a8eb~116~ubuntu20.04.1*%
%TF.CreationDate,2022-03-22T16:19:33+00:00*%
%TF.ProjectId,Main board,4d61696e-2062-46f6-9172-642e6b696361,V1.0*%
%TF.SameCoordinates,Original*%
%TF.FileFunction,Legend,Bot*%
%TF.FilePolarity,Positive*%
%FSLAX46Y46*%
G04 Gerber Fmt 4.6, Leading zero omitted, Abs format (unit mm)*
G04 Created by KiCad (PCBNEW 6.0.2-378541a8eb~116~ubuntu20.04.1) date 2022-03-22 16:19:33*
%MOMM*%
%LPD*%
G01*
G04 APERTURE LIST*
%ADD10C,0.250000*%
%ADD11C,0.150000*%
%ADD12C,0.300000*%
%ADD13C,0.120000*%
G04 APERTURE END LIST*
D10*
X109037904Y-143110571D02*
X107985523Y-143110571D01*
X107861714Y-143048666D01*
X107799809Y-142986761D01*
X107737904Y-142862952D01*
X107737904Y-142615333D01*
X107799809Y-142491523D01*
X107861714Y-142429619D01*
X107985523Y-142367714D01*
X109037904Y-142367714D01*
X107799809Y-141810571D02*
X107737904Y-141624857D01*
X107737904Y-141315333D01*
X107799809Y-141191523D01*
X107861714Y-141129619D01*
X107985523Y-141067714D01*
X108109333Y-141067714D01*
X108233142Y-141129619D01*
X108295047Y-141191523D01*
X108356952Y-141315333D01*
X108418857Y-141562952D01*
X108480761Y-141686761D01*
X108542666Y-141748666D01*
X108666476Y-141810571D01*
X108790285Y-141810571D01*
X108914095Y-141748666D01*
X108976000Y-141686761D01*
X109037904Y-141562952D01*
X109037904Y-141253428D01*
X108976000Y-141067714D01*
X108418857Y-140510571D02*
X108418857Y-140077238D01*
X107737904Y-139891523D02*
X107737904Y-140510571D01*
X109037904Y-140510571D01*
X109037904Y-139891523D01*
X107737904Y-138343904D02*
X109037904Y-138343904D01*
X107737904Y-137724857D02*
X109037904Y-137724857D01*
X107737904Y-136982000D01*
X109037904Y-136982000D01*
X107799809Y-136424857D02*
X107737904Y-136239142D01*
X107737904Y-135929619D01*
X107799809Y-135805809D01*
X107861714Y-135743904D01*
X107985523Y-135682000D01*
X108109333Y-135682000D01*
X108233142Y-135743904D01*
X108295047Y-135805809D01*
X108356952Y-135929619D01*
X108418857Y-136177238D01*
X108480761Y-136301047D01*
X108542666Y-136362952D01*
X108666476Y-136424857D01*
X108790285Y-136424857D01*
X108914095Y-136362952D01*
X108976000Y-136301047D01*
X109037904Y-136177238D01*
X109037904Y-135867714D01*
X108976000Y-135682000D01*
X109037904Y-135124857D02*
X107985523Y-135124857D01*
X107861714Y-135062952D01*
X107799809Y-135001047D01*
X107737904Y-134877238D01*
X107737904Y-134629619D01*
X107799809Y-134505809D01*
X107861714Y-134443904D01*
X107985523Y-134382000D01*
X109037904Y-134382000D01*
X107737904Y-133143904D02*
X107737904Y-133762952D01*
X109037904Y-133762952D01*
X108109333Y-132772476D02*
X108109333Y-132153428D01*
X107737904Y-132896285D02*
X109037904Y-132462952D01*
X107737904Y-132029619D01*
X109037904Y-131782000D02*
X109037904Y-131039142D01*
X107737904Y-131410571D02*
X109037904Y-131410571D01*
X107737904Y-130605809D02*
X109037904Y-130605809D01*
X107737904Y-129986761D02*
X109037904Y-129986761D01*
X107737904Y-129243904D01*
X109037904Y-129243904D01*
X108976000Y-127943904D02*
X109037904Y-128067714D01*
X109037904Y-128253428D01*
X108976000Y-128439142D01*
X108852190Y-128562952D01*
X108728380Y-128624857D01*
X108480761Y-128686761D01*
X108295047Y-128686761D01*
X108047428Y-128624857D01*
X107923619Y-128562952D01*
X107799809Y-128439142D01*
X107737904Y-128253428D01*
X107737904Y-128129619D01*
X107799809Y-127943904D01*
X107861714Y-127882000D01*
X108295047Y-127882000D01*
X108295047Y-128129619D01*
X107242666Y-125962952D02*
X107304571Y-126024857D01*
X107490285Y-126148666D01*
X107614095Y-126210571D01*
X107799809Y-126272476D01*
X108109333Y-126334380D01*
X108356952Y-126334380D01*
X108666476Y-126272476D01*
X108852190Y-126210571D01*
X108976000Y-126148666D01*
X109161714Y-126024857D01*
X109223619Y-125962952D01*
X107737904Y-125467714D02*
X109037904Y-125467714D01*
X107861714Y-124848666D02*
X107799809Y-124786761D01*
X107737904Y-124848666D01*
X107799809Y-124910571D01*
X107861714Y-124848666D01*
X107737904Y-124848666D01*
X108418857Y-124229619D02*
X108418857Y-123796285D01*
X107737904Y-123610571D02*
X107737904Y-124229619D01*
X109037904Y-124229619D01*
X109037904Y-123610571D01*
X107861714Y-123053428D02*
X107799809Y-122991523D01*
X107737904Y-123053428D01*
X107799809Y-123115333D01*
X107861714Y-123053428D01*
X107737904Y-123053428D01*
X107737904Y-121443904D02*
X109037904Y-121443904D01*
X107737904Y-120701047D01*
X109037904Y-120701047D01*
X108356952Y-119834380D02*
X107737904Y-119834380D01*
X109037904Y-120267714D02*
X108356952Y-119834380D01*
X109037904Y-119401047D01*
X107737904Y-118348666D02*
X107737904Y-118967714D01*
X109037904Y-118967714D01*
X109037904Y-117667714D02*
X109037904Y-117420095D01*
X108976000Y-117296285D01*
X108852190Y-117172476D01*
X108604571Y-117110571D01*
X108171238Y-117110571D01*
X107923619Y-117172476D01*
X107799809Y-117296285D01*
X107737904Y-117420095D01*
X107737904Y-117667714D01*
X107799809Y-117791523D01*
X107923619Y-117915333D01*
X108171238Y-117977238D01*
X108604571Y-117977238D01*
X108852190Y-117915333D01*
X108976000Y-117791523D01*
X109037904Y-117667714D01*
X107737904Y-116553428D02*
X109037904Y-116553428D01*
X107737904Y-115810571D01*
X109037904Y-115810571D01*
X107242666Y-115315333D02*
X107304571Y-115253428D01*
X107490285Y-115129619D01*
X107614095Y-115067714D01*
X107799809Y-115005809D01*
X108109333Y-114943904D01*
X108356952Y-114943904D01*
X108666476Y-115005809D01*
X108852190Y-115067714D01*
X108976000Y-115129619D01*
X109161714Y-115253428D01*
X109223619Y-115315333D01*
X108418857Y-112901047D02*
X108418857Y-113334380D01*
X107737904Y-113334380D02*
X109037904Y-113334380D01*
X109037904Y-112715333D01*
X108109333Y-112282000D02*
X108109333Y-111662952D01*
X107737904Y-112405809D02*
X109037904Y-111972476D01*
X107737904Y-111539142D01*
X107799809Y-111167714D02*
X107737904Y-110982000D01*
X107737904Y-110672476D01*
X107799809Y-110548666D01*
X107861714Y-110486761D01*
X107985523Y-110424857D01*
X108109333Y-110424857D01*
X108233142Y-110486761D01*
X108295047Y-110548666D01*
X108356952Y-110672476D01*
X108418857Y-110920095D01*
X108480761Y-111043904D01*
X108542666Y-111105809D01*
X108666476Y-111167714D01*
X108790285Y-111167714D01*
X108914095Y-111105809D01*
X108976000Y-111043904D01*
X109037904Y-110920095D01*
X109037904Y-110610571D01*
X108976000Y-110424857D01*
X109037904Y-110053428D02*
X109037904Y-109310571D01*
X107737904Y-109682000D02*
X109037904Y-109682000D01*
X108418857Y-108877238D02*
X108418857Y-108443904D01*
X107737904Y-108258190D02*
X107737904Y-108877238D01*
X109037904Y-108877238D01*
X109037904Y-108258190D01*
X107737904Y-107701047D02*
X109037904Y-107701047D01*
X107737904Y-106958190D01*
X109037904Y-106958190D01*
X108418857Y-106339142D02*
X108418857Y-105905809D01*
X107737904Y-105720095D02*
X107737904Y-106339142D01*
X109037904Y-106339142D01*
X109037904Y-105720095D01*
X107737904Y-104420095D02*
X108356952Y-104853428D01*
X107737904Y-105162952D02*
X109037904Y-105162952D01*
X109037904Y-104667714D01*
X108976000Y-104543904D01*
X108914095Y-104482000D01*
X108790285Y-104420095D01*
X108604571Y-104420095D01*
X108480761Y-104482000D01*
X108418857Y-104543904D01*
X108356952Y-104667714D01*
X108356952Y-105162952D01*
X107799809Y-103924857D02*
X107737904Y-103739142D01*
X107737904Y-103429619D01*
X107799809Y-103305809D01*
X107861714Y-103243904D01*
X107985523Y-103182000D01*
X108109333Y-103182000D01*
X108233142Y-103243904D01*
X108295047Y-103305809D01*
X108356952Y-103429619D01*
X108418857Y-103677238D01*
X108480761Y-103801047D01*
X108542666Y-103862952D01*
X108666476Y-103924857D01*
X108790285Y-103924857D01*
X108914095Y-103862952D01*
X108976000Y-103801047D01*
X109037904Y-103677238D01*
X109037904Y-103367714D01*
X108976000Y-103182000D01*
X106325857Y-137136761D02*
X106325857Y-137570095D01*
X105644904Y-137570095D02*
X106944904Y-137570095D01*
X106944904Y-136951047D01*
X106944904Y-136208190D02*
X106944904Y-135960571D01*
X106883000Y-135836761D01*
X106759190Y-135712952D01*
X106511571Y-135651047D01*
X106078238Y-135651047D01*
X105830619Y-135712952D01*
X105706809Y-135836761D01*
X105644904Y-135960571D01*
X105644904Y-136208190D01*
X105706809Y-136332000D01*
X105830619Y-136455809D01*
X106078238Y-136517714D01*
X106511571Y-136517714D01*
X106759190Y-136455809D01*
X106883000Y-136332000D01*
X106944904Y-136208190D01*
X105644904Y-134351047D02*
X106263952Y-134784380D01*
X105644904Y-135093904D02*
X106944904Y-135093904D01*
X106944904Y-134598666D01*
X106883000Y-134474857D01*
X106821095Y-134412952D01*
X106697285Y-134351047D01*
X106511571Y-134351047D01*
X106387761Y-134412952D01*
X106325857Y-134474857D01*
X106263952Y-134598666D01*
X106263952Y-135093904D01*
X105644904Y-132803428D02*
X106944904Y-132803428D01*
X106944904Y-132493904D01*
X106883000Y-132308190D01*
X106759190Y-132184380D01*
X106635380Y-132122476D01*
X106387761Y-132060571D01*
X106202047Y-132060571D01*
X105954428Y-132122476D01*
X105830619Y-132184380D01*
X105706809Y-132308190D01*
X105644904Y-132493904D01*
X105644904Y-132803428D01*
X106016333Y-131565333D02*
X106016333Y-130946285D01*
X105644904Y-131689142D02*
X106944904Y-131255809D01*
X105644904Y-130822476D01*
X106944904Y-130389142D02*
X105892523Y-130389142D01*
X105768714Y-130327238D01*
X105706809Y-130265333D01*
X105644904Y-130141523D01*
X105644904Y-129893904D01*
X105706809Y-129770095D01*
X105768714Y-129708190D01*
X105892523Y-129646285D01*
X106944904Y-129646285D01*
X106883000Y-128346285D02*
X106944904Y-128470095D01*
X106944904Y-128655809D01*
X106883000Y-128841523D01*
X106759190Y-128965333D01*
X106635380Y-129027238D01*
X106387761Y-129089142D01*
X106202047Y-129089142D01*
X105954428Y-129027238D01*
X105830619Y-128965333D01*
X105706809Y-128841523D01*
X105644904Y-128655809D01*
X105644904Y-128532000D01*
X105706809Y-128346285D01*
X105768714Y-128284380D01*
X106202047Y-128284380D01*
X106202047Y-128532000D01*
X105644904Y-127727238D02*
X106944904Y-127727238D01*
X106325857Y-127727238D02*
X106325857Y-126984380D01*
X105644904Y-126984380D02*
X106944904Y-126984380D01*
X106944904Y-126551047D02*
X106944904Y-125808190D01*
X105644904Y-126179619D02*
X106944904Y-126179619D01*
X106325857Y-125374857D02*
X106325857Y-124941523D01*
X105644904Y-124755809D02*
X105644904Y-125374857D01*
X106944904Y-125374857D01*
X106944904Y-124755809D01*
X105644904Y-123455809D02*
X106263952Y-123889142D01*
X105644904Y-124198666D02*
X106944904Y-124198666D01*
X106944904Y-123703428D01*
X106883000Y-123579619D01*
X106821095Y-123517714D01*
X106697285Y-123455809D01*
X106511571Y-123455809D01*
X106387761Y-123517714D01*
X106325857Y-123579619D01*
X106263952Y-123703428D01*
X106263952Y-124198666D01*
X105644904Y-121908190D02*
X106944904Y-121908190D01*
X106944904Y-121412952D01*
X106883000Y-121289142D01*
X106821095Y-121227238D01*
X106697285Y-121165333D01*
X106511571Y-121165333D01*
X106387761Y-121227238D01*
X106325857Y-121289142D01*
X106263952Y-121412952D01*
X106263952Y-121908190D01*
X105768714Y-119865333D02*
X105706809Y-119927238D01*
X105644904Y-120112952D01*
X105644904Y-120236761D01*
X105706809Y-120422476D01*
X105830619Y-120546285D01*
X105954428Y-120608190D01*
X106202047Y-120670095D01*
X106387761Y-120670095D01*
X106635380Y-120608190D01*
X106759190Y-120546285D01*
X106883000Y-120422476D01*
X106944904Y-120236761D01*
X106944904Y-120112952D01*
X106883000Y-119927238D01*
X106821095Y-119865333D01*
X106325857Y-118874857D02*
X106263952Y-118689142D01*
X106202047Y-118627238D01*
X106078238Y-118565333D01*
X105892523Y-118565333D01*
X105768714Y-118627238D01*
X105706809Y-118689142D01*
X105644904Y-118812952D01*
X105644904Y-119308190D01*
X106944904Y-119308190D01*
X106944904Y-118874857D01*
X106883000Y-118751047D01*
X106821095Y-118689142D01*
X106697285Y-118627238D01*
X106573476Y-118627238D01*
X106449666Y-118689142D01*
X106387761Y-118751047D01*
X106325857Y-118874857D01*
X106325857Y-119308190D01*
X105644904Y-117017714D02*
X106944904Y-117017714D01*
X106016333Y-116584380D01*
X106944904Y-116151047D01*
X105644904Y-116151047D01*
X106944904Y-115284380D02*
X106944904Y-115036761D01*
X106883000Y-114912952D01*
X106759190Y-114789142D01*
X106511571Y-114727238D01*
X106078238Y-114727238D01*
X105830619Y-114789142D01*
X105706809Y-114912952D01*
X105644904Y-115036761D01*
X105644904Y-115284380D01*
X105706809Y-115408190D01*
X105830619Y-115532000D01*
X106078238Y-115593904D01*
X106511571Y-115593904D01*
X106759190Y-115532000D01*
X106883000Y-115408190D01*
X106944904Y-115284380D01*
X106944904Y-114170095D02*
X105892523Y-114170095D01*
X105768714Y-114108190D01*
X105706809Y-114046285D01*
X105644904Y-113922476D01*
X105644904Y-113674857D01*
X105706809Y-113551047D01*
X105768714Y-113489142D01*
X105892523Y-113427238D01*
X106944904Y-113427238D01*
X105644904Y-112808190D02*
X106944904Y-112808190D01*
X105644904Y-112065333D01*
X106944904Y-112065333D01*
X106944904Y-111632000D02*
X106944904Y-110889142D01*
X105644904Y-111260571D02*
X106944904Y-111260571D01*
X105644904Y-110455809D02*
X106944904Y-110455809D01*
X105644904Y-109836761D02*
X106944904Y-109836761D01*
X105644904Y-109093904D01*
X106944904Y-109093904D01*
X106883000Y-107793904D02*
X106944904Y-107917714D01*
X106944904Y-108103428D01*
X106883000Y-108289142D01*
X106759190Y-108412952D01*
X106635380Y-108474857D01*
X106387761Y-108536761D01*
X106202047Y-108536761D01*
X105954428Y-108474857D01*
X105830619Y-108412952D01*
X105706809Y-108289142D01*
X105644904Y-108103428D01*
X105644904Y-107979619D01*
X105706809Y-107793904D01*
X105768714Y-107732000D01*
X106202047Y-107732000D01*
X106202047Y-107979619D01*
X101830333Y-141717714D02*
X101830333Y-141098666D01*
X101458904Y-141841523D02*
X102758904Y-141408190D01*
X101458904Y-140974857D01*
X101458904Y-140541523D02*
X102758904Y-140541523D01*
X101458904Y-139798666D01*
X102758904Y-139798666D01*
X102077952Y-138932000D02*
X101458904Y-138932000D01*
X102758904Y-139365333D02*
X102077952Y-138932000D01*
X102758904Y-138498666D01*
X102758904Y-137260571D02*
X102758904Y-136517714D01*
X101458904Y-136889142D02*
X102758904Y-136889142D01*
X102077952Y-135836761D02*
X101458904Y-135836761D01*
X102758904Y-136270095D02*
X102077952Y-135836761D01*
X102758904Y-135403428D01*
X101458904Y-134970095D02*
X102758904Y-134970095D01*
X102758904Y-134474857D01*
X102697000Y-134351047D01*
X102635095Y-134289142D01*
X102511285Y-134227238D01*
X102325571Y-134227238D01*
X102201761Y-134289142D01*
X102139857Y-134351047D01*
X102077952Y-134474857D01*
X102077952Y-134970095D01*
X102139857Y-133670095D02*
X102139857Y-133236761D01*
X101458904Y-133051047D02*
X101458904Y-133670095D01*
X102758904Y-133670095D01*
X102758904Y-133051047D01*
X102758904Y-131255809D02*
X102758904Y-131008190D01*
X102697000Y-130884380D01*
X102573190Y-130760571D01*
X102325571Y-130698666D01*
X101892238Y-130698666D01*
X101644619Y-130760571D01*
X101520809Y-130884380D01*
X101458904Y-131008190D01*
X101458904Y-131255809D01*
X101520809Y-131379619D01*
X101644619Y-131503428D01*
X101892238Y-131565333D01*
X102325571Y-131565333D01*
X102573190Y-131503428D01*
X102697000Y-131379619D01*
X102758904Y-131255809D01*
X102139857Y-129708190D02*
X102139857Y-130141523D01*
X101458904Y-130141523D02*
X102758904Y-130141523D01*
X102758904Y-129522476D01*
X102139857Y-127603428D02*
X102139857Y-128036761D01*
X101458904Y-128036761D02*
X102758904Y-128036761D01*
X102758904Y-127417714D01*
X101830333Y-126984380D02*
X101830333Y-126365333D01*
X101458904Y-127108190D02*
X102758904Y-126674857D01*
X101458904Y-126241523D01*
X101520809Y-125870095D02*
X101458904Y-125684380D01*
X101458904Y-125374857D01*
X101520809Y-125251047D01*
X101582714Y-125189142D01*
X101706523Y-125127238D01*
X101830333Y-125127238D01*
X101954142Y-125189142D01*
X102016047Y-125251047D01*
X102077952Y-125374857D01*
X102139857Y-125622476D01*
X102201761Y-125746285D01*
X102263666Y-125808190D01*
X102387476Y-125870095D01*
X102511285Y-125870095D01*
X102635095Y-125808190D01*
X102697000Y-125746285D01*
X102758904Y-125622476D01*
X102758904Y-125312952D01*
X102697000Y-125127238D01*
X102758904Y-124755809D02*
X102758904Y-124012952D01*
X101458904Y-124384380D02*
X102758904Y-124384380D01*
X102139857Y-123579619D02*
X102139857Y-123146285D01*
X101458904Y-122960571D02*
X101458904Y-123579619D01*
X102758904Y-123579619D01*
X102758904Y-122960571D01*
X101458904Y-122403428D02*
X102758904Y-122403428D01*
X101458904Y-121660571D01*
X102758904Y-121660571D01*
X102139857Y-121041523D02*
X102139857Y-120608190D01*
X101458904Y-120422476D02*
X101458904Y-121041523D01*
X102758904Y-121041523D01*
X102758904Y-120422476D01*
X101458904Y-119122476D02*
X102077952Y-119555809D01*
X101458904Y-119865333D02*
X102758904Y-119865333D01*
X102758904Y-119370095D01*
X102697000Y-119246285D01*
X102635095Y-119184380D01*
X102511285Y-119122476D01*
X102325571Y-119122476D01*
X102201761Y-119184380D01*
X102139857Y-119246285D01*
X102077952Y-119370095D01*
X102077952Y-119865333D01*
X101520809Y-118627238D02*
X101458904Y-118441523D01*
X101458904Y-118132000D01*
X101520809Y-118008190D01*
X101582714Y-117946285D01*
X101706523Y-117884380D01*
X101830333Y-117884380D01*
X101954142Y-117946285D01*
X102016047Y-118008190D01*
X102077952Y-118132000D01*
X102139857Y-118379619D01*
X102201761Y-118503428D01*
X102263666Y-118565333D01*
X102387476Y-118627238D01*
X102511285Y-118627238D01*
X102635095Y-118565333D01*
X102697000Y-118503428D01*
X102758904Y-118379619D01*
X102758904Y-118070095D01*
X102697000Y-117884380D01*
X101458904Y-116336761D02*
X102758904Y-116336761D01*
X101830333Y-115903428D01*
X102758904Y-115470095D01*
X101458904Y-115470095D01*
X101830333Y-114912952D02*
X101830333Y-114293904D01*
X101458904Y-115036761D02*
X102758904Y-114603428D01*
X101458904Y-114170095D01*
X102077952Y-113489142D02*
X101458904Y-113489142D01*
X102758904Y-113922476D02*
X102077952Y-113489142D01*
X102758904Y-113055809D01*
X102139857Y-111198666D02*
X102077952Y-111012952D01*
X102016047Y-110951047D01*
X101892238Y-110889142D01*
X101706523Y-110889142D01*
X101582714Y-110951047D01*
X101520809Y-111012952D01*
X101458904Y-111136761D01*
X101458904Y-111632000D01*
X102758904Y-111632000D01*
X102758904Y-111198666D01*
X102697000Y-111074857D01*
X102635095Y-111012952D01*
X102511285Y-110951047D01*
X102387476Y-110951047D01*
X102263666Y-111012952D01*
X102201761Y-111074857D01*
X102139857Y-111198666D01*
X102139857Y-111632000D01*
X102139857Y-110332000D02*
X102139857Y-109898666D01*
X101458904Y-109712952D02*
X101458904Y-110332000D01*
X102758904Y-110332000D01*
X102758904Y-109712952D01*
X102758904Y-108165333D02*
X101706523Y-108165333D01*
X101582714Y-108103428D01*
X101520809Y-108041523D01*
X101458904Y-107917714D01*
X101458904Y-107670095D01*
X101520809Y-107546285D01*
X101582714Y-107484380D01*
X101706523Y-107422476D01*
X102758904Y-107422476D01*
X101520809Y-106865333D02*
X101458904Y-106679619D01*
X101458904Y-106370095D01*
X101520809Y-106246285D01*
X101582714Y-106184380D01*
X101706523Y-106122476D01*
X101830333Y-106122476D01*
X101954142Y-106184380D01*
X102016047Y-106246285D01*
X102077952Y-106370095D01*
X102139857Y-106617714D01*
X102201761Y-106741523D01*
X102263666Y-106803428D01*
X102387476Y-106865333D01*
X102511285Y-106865333D01*
X102635095Y-106803428D01*
X102697000Y-106741523D01*
X102758904Y-106617714D01*
X102758904Y-106308190D01*
X102697000Y-106122476D01*
X102139857Y-105565333D02*
X102139857Y-105132000D01*
X101458904Y-104946285D02*
X101458904Y-105565333D01*
X102758904Y-105565333D01*
X102758904Y-104946285D01*
X101458904Y-104389142D02*
X102758904Y-104389142D01*
X102758904Y-104079619D01*
X102697000Y-103893904D01*
X102573190Y-103770095D01*
X102449380Y-103708190D01*
X102201761Y-103646285D01*
X102016047Y-103646285D01*
X101768428Y-103708190D01*
X101644619Y-103770095D01*
X101520809Y-103893904D01*
X101458904Y-104079619D01*
X101458904Y-104389142D01*
X100046857Y-143203428D02*
X100046857Y-143636761D01*
X99365904Y-143636761D02*
X100665904Y-143636761D01*
X100665904Y-143017714D01*
X100665904Y-142274857D02*
X100665904Y-142027238D01*
X100604000Y-141903428D01*
X100480190Y-141779619D01*
X100232571Y-141717714D01*
X99799238Y-141717714D01*
X99551619Y-141779619D01*
X99427809Y-141903428D01*
X99365904Y-142027238D01*
X99365904Y-142274857D01*
X99427809Y-142398666D01*
X99551619Y-142522476D01*
X99799238Y-142584380D01*
X100232571Y-142584380D01*
X100480190Y-142522476D01*
X100604000Y-142398666D01*
X100665904Y-142274857D01*
X99365904Y-140417714D02*
X99984952Y-140851047D01*
X99365904Y-141160571D02*
X100665904Y-141160571D01*
X100665904Y-140665333D01*
X100604000Y-140541523D01*
X100542095Y-140479619D01*
X100418285Y-140417714D01*
X100232571Y-140417714D01*
X100108761Y-140479619D01*
X100046857Y-140541523D01*
X99984952Y-140665333D01*
X99984952Y-141160571D01*
X99489714Y-138127238D02*
X99427809Y-138189142D01*
X99365904Y-138374857D01*
X99365904Y-138498666D01*
X99427809Y-138684380D01*
X99551619Y-138808190D01*
X99675428Y-138870095D01*
X99923047Y-138932000D01*
X100108761Y-138932000D01*
X100356380Y-138870095D01*
X100480190Y-138808190D01*
X100604000Y-138684380D01*
X100665904Y-138498666D01*
X100665904Y-138374857D01*
X100604000Y-138189142D01*
X100542095Y-138127238D01*
X99737333Y-137632000D02*
X99737333Y-137012952D01*
X99365904Y-137755809D02*
X100665904Y-137322476D01*
X99365904Y-136889142D01*
X99427809Y-136517714D02*
X99365904Y-136332000D01*
X99365904Y-136022476D01*
X99427809Y-135898666D01*
X99489714Y-135836761D01*
X99613523Y-135774857D01*
X99737333Y-135774857D01*
X99861142Y-135836761D01*
X99923047Y-135898666D01*
X99984952Y-136022476D01*
X100046857Y-136270095D01*
X100108761Y-136393904D01*
X100170666Y-136455809D01*
X100294476Y-136517714D01*
X100418285Y-136517714D01*
X100542095Y-136455809D01*
X100604000Y-136393904D01*
X100665904Y-136270095D01*
X100665904Y-135960571D01*
X100604000Y-135774857D01*
X100046857Y-135217714D02*
X100046857Y-134784380D01*
X99365904Y-134598666D02*
X99365904Y-135217714D01*
X100665904Y-135217714D01*
X100665904Y-134598666D01*
X99365904Y-133051047D02*
X100665904Y-133051047D01*
X99737333Y-132617714D01*
X100665904Y-132184380D01*
X99365904Y-132184380D01*
X100665904Y-131317714D02*
X100665904Y-131070095D01*
X100604000Y-130946285D01*
X100480190Y-130822476D01*
X100232571Y-130760571D01*
X99799238Y-130760571D01*
X99551619Y-130822476D01*
X99427809Y-130946285D01*
X99365904Y-131070095D01*
X99365904Y-131317714D01*
X99427809Y-131441523D01*
X99551619Y-131565333D01*
X99799238Y-131627238D01*
X100232571Y-131627238D01*
X100480190Y-131565333D01*
X100604000Y-131441523D01*
X100665904Y-131317714D01*
X100665904Y-130203428D02*
X99613523Y-130203428D01*
X99489714Y-130141523D01*
X99427809Y-130079619D01*
X99365904Y-129955809D01*
X99365904Y-129708190D01*
X99427809Y-129584380D01*
X99489714Y-129522476D01*
X99613523Y-129460571D01*
X100665904Y-129460571D01*
X99365904Y-128841523D02*
X100665904Y-128841523D01*
X99365904Y-128098666D01*
X100665904Y-128098666D01*
X100665904Y-127665333D02*
X100665904Y-126922476D01*
X99365904Y-127293904D02*
X100665904Y-127293904D01*
X99365904Y-126489142D02*
X100665904Y-126489142D01*
X99365904Y-125870095D02*
X100665904Y-125870095D01*
X99365904Y-125127238D01*
X100665904Y-125127238D01*
X100604000Y-123827238D02*
X100665904Y-123951047D01*
X100665904Y-124136761D01*
X100604000Y-124322476D01*
X100480190Y-124446285D01*
X100356380Y-124508190D01*
X100108761Y-124570095D01*
X99923047Y-124570095D01*
X99675428Y-124508190D01*
X99551619Y-124446285D01*
X99427809Y-124322476D01*
X99365904Y-124136761D01*
X99365904Y-124012952D01*
X99427809Y-123827238D01*
X99489714Y-123765333D01*
X99923047Y-123765333D01*
X99923047Y-124012952D01*
X98870666Y-121846285D02*
X98932571Y-121908190D01*
X99118285Y-122032000D01*
X99242095Y-122093904D01*
X99427809Y-122155809D01*
X99737333Y-122217714D01*
X99984952Y-122217714D01*
X100294476Y-122155809D01*
X100480190Y-122093904D01*
X100604000Y-122032000D01*
X100789714Y-121908190D01*
X100851619Y-121846285D01*
X99365904Y-121351047D02*
X100665904Y-121351047D01*
X100665904Y-120855809D01*
X100604000Y-120732000D01*
X100542095Y-120670095D01*
X100418285Y-120608190D01*
X100232571Y-120608190D01*
X100108761Y-120670095D01*
X100046857Y-120732000D01*
X99984952Y-120855809D01*
X99984952Y-121351047D01*
X99737333Y-120112952D02*
X99737333Y-119493904D01*
X99365904Y-120236761D02*
X100665904Y-119803428D01*
X99365904Y-119370095D01*
X99365904Y-118936761D02*
X100665904Y-118936761D01*
X100665904Y-118627238D01*
X100604000Y-118441523D01*
X100480190Y-118317714D01*
X100356380Y-118255809D01*
X100108761Y-118193904D01*
X99923047Y-118193904D01*
X99675428Y-118255809D01*
X99551619Y-118317714D01*
X99427809Y-118441523D01*
X99365904Y-118627238D01*
X99365904Y-118936761D01*
X99427809Y-117698666D02*
X99365904Y-117512952D01*
X99365904Y-117203428D01*
X99427809Y-117079619D01*
X99489714Y-117017714D01*
X99613523Y-116955809D01*
X99737333Y-116955809D01*
X99861142Y-117017714D01*
X99923047Y-117079619D01*
X99984952Y-117203428D01*
X100046857Y-117451047D01*
X100108761Y-117574857D01*
X100170666Y-117636761D01*
X100294476Y-117698666D01*
X100418285Y-117698666D01*
X100542095Y-117636761D01*
X100604000Y-117574857D01*
X100665904Y-117451047D01*
X100665904Y-117141523D01*
X100604000Y-116955809D01*
X99737333Y-115470095D02*
X99737333Y-114851047D01*
X99365904Y-115593904D02*
X100665904Y-115160571D01*
X99365904Y-114727238D01*
X99365904Y-113551047D02*
X99984952Y-113984380D01*
X99365904Y-114293904D02*
X100665904Y-114293904D01*
X100665904Y-113798666D01*
X100604000Y-113674857D01*
X100542095Y-113612952D01*
X100418285Y-113551047D01*
X100232571Y-113551047D01*
X100108761Y-113612952D01*
X100046857Y-113674857D01*
X99984952Y-113798666D01*
X99984952Y-114293904D01*
X100046857Y-112993904D02*
X100046857Y-112560571D01*
X99365904Y-112374857D02*
X99365904Y-112993904D01*
X100665904Y-112993904D01*
X100665904Y-112374857D01*
X99365904Y-110827238D02*
X100665904Y-110827238D01*
X99427809Y-110270095D02*
X99365904Y-110084380D01*
X99365904Y-109774857D01*
X99427809Y-109651047D01*
X99489714Y-109589142D01*
X99613523Y-109527238D01*
X99737333Y-109527238D01*
X99861142Y-109589142D01*
X99923047Y-109651047D01*
X99984952Y-109774857D01*
X100046857Y-110022476D01*
X100108761Y-110146285D01*
X100170666Y-110208190D01*
X100294476Y-110270095D01*
X100418285Y-110270095D01*
X100542095Y-110208190D01*
X100604000Y-110146285D01*
X100665904Y-110022476D01*
X100665904Y-109712952D01*
X100604000Y-109527238D01*
X100665904Y-108722476D02*
X100665904Y-108474857D01*
X100604000Y-108351047D01*
X100480190Y-108227238D01*
X100232571Y-108165333D01*
X99799238Y-108165333D01*
X99551619Y-108227238D01*
X99427809Y-108351047D01*
X99365904Y-108474857D01*
X99365904Y-108722476D01*
X99427809Y-108846285D01*
X99551619Y-108970095D01*
X99799238Y-109032000D01*
X100232571Y-109032000D01*
X100480190Y-108970095D01*
X100604000Y-108846285D01*
X100665904Y-108722476D01*
X99365904Y-106989142D02*
X99365904Y-107608190D01*
X100665904Y-107608190D01*
X99737333Y-106617714D02*
X99737333Y-105998666D01*
X99365904Y-106741523D02*
X100665904Y-106308190D01*
X99365904Y-105874857D01*
X100665904Y-105627238D02*
X100665904Y-104884380D01*
X99365904Y-105255809D02*
X100665904Y-105255809D01*
X100046857Y-104451047D02*
X100046857Y-104017714D01*
X99365904Y-103832000D02*
X99365904Y-104451047D01*
X100665904Y-104451047D01*
X100665904Y-103832000D01*
X99365904Y-103274857D02*
X100665904Y-103274857D01*
X100665904Y-102965333D01*
X100604000Y-102779619D01*
X100480190Y-102655809D01*
X100356380Y-102593904D01*
X100108761Y-102532000D01*
X99923047Y-102532000D01*
X99675428Y-102593904D01*
X99551619Y-102655809D01*
X99427809Y-102779619D01*
X99365904Y-102965333D01*
X99365904Y-103274857D01*
X98870666Y-102098666D02*
X98932571Y-102036761D01*
X99118285Y-101912952D01*
X99242095Y-101851047D01*
X99427809Y-101789142D01*
X99737333Y-101727238D01*
X99984952Y-101727238D01*
X100294476Y-101789142D01*
X100480190Y-101851047D01*
X100604000Y-101912952D01*
X100789714Y-102036761D01*
X100851619Y-102098666D01*
D11*
%TO.C,J10*%
X230925619Y-88947523D02*
X230211333Y-88947523D01*
X230068476Y-88995142D01*
X229973238Y-89090380D01*
X229925619Y-89233238D01*
X229925619Y-89328476D01*
X229925619Y-87947523D02*
X229925619Y-88518952D01*
X229925619Y-88233238D02*
X230925619Y-88233238D01*
X230782761Y-88328476D01*
X230687523Y-88423714D01*
X230639904Y-88518952D01*
X230925619Y-87328476D02*
X230925619Y-87233238D01*
X230878000Y-87138000D01*
X230830380Y-87090380D01*
X230735142Y-87042761D01*
X230544666Y-86995142D01*
X230306571Y-86995142D01*
X230116095Y-87042761D01*
X230020857Y-87090380D01*
X229973238Y-87138000D01*
X229925619Y-87233238D01*
X229925619Y-87328476D01*
X229973238Y-87423714D01*
X230020857Y-87471333D01*
X230116095Y-87518952D01*
X230306571Y-87566571D01*
X230544666Y-87566571D01*
X230735142Y-87518952D01*
X230830380Y-87471333D01*
X230878000Y-87423714D01*
X230925619Y-87328476D01*
D12*
X198414500Y-129926190D02*
X198476404Y-130050000D01*
X198476404Y-130235714D01*
X198414500Y-130421428D01*
X198290690Y-130545238D01*
X198166880Y-130607142D01*
X197919261Y-130669047D01*
X197733547Y-130669047D01*
X197485928Y-130607142D01*
X197362119Y-130545238D01*
X197238309Y-130421428D01*
X197176404Y-130235714D01*
X197176404Y-130111904D01*
X197238309Y-129926190D01*
X197300214Y-129864285D01*
X197733547Y-129864285D01*
X197733547Y-130111904D01*
X197176404Y-129307142D02*
X198476404Y-129307142D01*
X198476404Y-128811904D01*
X198414500Y-128688095D01*
X198352595Y-128626190D01*
X198228785Y-128564285D01*
X198043071Y-128564285D01*
X197919261Y-128626190D01*
X197857357Y-128688095D01*
X197795452Y-128811904D01*
X197795452Y-129307142D01*
X197176404Y-128007142D02*
X198476404Y-128007142D01*
X198476404Y-127140476D02*
X198476404Y-126892857D01*
X198414500Y-126769047D01*
X198290690Y-126645238D01*
X198043071Y-126583333D01*
X197609738Y-126583333D01*
X197362119Y-126645238D01*
X197238309Y-126769047D01*
X197176404Y-126892857D01*
X197176404Y-127140476D01*
X197238309Y-127264285D01*
X197362119Y-127388095D01*
X197609738Y-127450000D01*
X198043071Y-127450000D01*
X198290690Y-127388095D01*
X198414500Y-127264285D01*
X198476404Y-127140476D01*
X197176404Y-125035714D02*
X198476404Y-125035714D01*
X198476404Y-124540476D01*
X198414500Y-124416666D01*
X198352595Y-124354761D01*
X198228785Y-124292857D01*
X198043071Y-124292857D01*
X197919261Y-124354761D01*
X197857357Y-124416666D01*
X197795452Y-124540476D01*
X197795452Y-125035714D01*
X197547833Y-123797619D02*
X197547833Y-123178571D01*
X197176404Y-123921428D02*
X198476404Y-123488095D01*
X197176404Y-123054761D01*
X197238309Y-122683333D02*
X197176404Y-122497619D01*
X197176404Y-122188095D01*
X197238309Y-122064285D01*
X197300214Y-122002380D01*
X197424023Y-121940476D01*
X197547833Y-121940476D01*
X197671642Y-122002380D01*
X197733547Y-122064285D01*
X197795452Y-122188095D01*
X197857357Y-122435714D01*
X197919261Y-122559523D01*
X197981166Y-122621428D01*
X198104976Y-122683333D01*
X198228785Y-122683333D01*
X198352595Y-122621428D01*
X198414500Y-122559523D01*
X198476404Y-122435714D01*
X198476404Y-122126190D01*
X198414500Y-121940476D01*
X197238309Y-121445238D02*
X197176404Y-121259523D01*
X197176404Y-120950000D01*
X197238309Y-120826190D01*
X197300214Y-120764285D01*
X197424023Y-120702380D01*
X197547833Y-120702380D01*
X197671642Y-120764285D01*
X197733547Y-120826190D01*
X197795452Y-120950000D01*
X197857357Y-121197619D01*
X197919261Y-121321428D01*
X197981166Y-121383333D01*
X198104976Y-121445238D01*
X198228785Y-121445238D01*
X198352595Y-121383333D01*
X198414500Y-121321428D01*
X198476404Y-121197619D01*
X198476404Y-120888095D01*
X198414500Y-120702380D01*
X198476404Y-119340476D02*
X198476404Y-118597619D01*
X197176404Y-118969047D02*
X198476404Y-118969047D01*
X197176404Y-118164285D02*
X198476404Y-118164285D01*
X197857357Y-118164285D02*
X197857357Y-117421428D01*
X197176404Y-117421428D02*
X198476404Y-117421428D01*
X197176404Y-116059523D02*
X197795452Y-116492857D01*
X197176404Y-116802380D02*
X198476404Y-116802380D01*
X198476404Y-116307142D01*
X198414500Y-116183333D01*
X198352595Y-116121428D01*
X198228785Y-116059523D01*
X198043071Y-116059523D01*
X197919261Y-116121428D01*
X197857357Y-116183333D01*
X197795452Y-116307142D01*
X197795452Y-116802380D01*
X198476404Y-115254761D02*
X198476404Y-115007142D01*
X198414500Y-114883333D01*
X198290690Y-114759523D01*
X198043071Y-114697619D01*
X197609738Y-114697619D01*
X197362119Y-114759523D01*
X197238309Y-114883333D01*
X197176404Y-115007142D01*
X197176404Y-115254761D01*
X197238309Y-115378571D01*
X197362119Y-115502380D01*
X197609738Y-115564285D01*
X198043071Y-115564285D01*
X198290690Y-115502380D01*
X198414500Y-115378571D01*
X198476404Y-115254761D01*
X198476404Y-114140476D02*
X197424023Y-114140476D01*
X197300214Y-114078571D01*
X197238309Y-114016666D01*
X197176404Y-113892857D01*
X197176404Y-113645238D01*
X197238309Y-113521428D01*
X197300214Y-113459523D01*
X197424023Y-113397619D01*
X198476404Y-113397619D01*
X198414500Y-112097619D02*
X198476404Y-112221428D01*
X198476404Y-112407142D01*
X198414500Y-112592857D01*
X198290690Y-112716666D01*
X198166880Y-112778571D01*
X197919261Y-112840476D01*
X197733547Y-112840476D01*
X197485928Y-112778571D01*
X197362119Y-112716666D01*
X197238309Y-112592857D01*
X197176404Y-112407142D01*
X197176404Y-112283333D01*
X197238309Y-112097619D01*
X197300214Y-112035714D01*
X197733547Y-112035714D01*
X197733547Y-112283333D01*
X197176404Y-111478571D02*
X198476404Y-111478571D01*
X197857357Y-111478571D02*
X197857357Y-110735714D01*
X197176404Y-110735714D02*
X198476404Y-110735714D01*
X197857357Y-108692857D02*
X197857357Y-109126190D01*
X197176404Y-109126190D02*
X198476404Y-109126190D01*
X198476404Y-108507142D01*
X197176404Y-107269047D02*
X197795452Y-107702380D01*
X197176404Y-108011904D02*
X198476404Y-108011904D01*
X198476404Y-107516666D01*
X198414500Y-107392857D01*
X198352595Y-107330952D01*
X198228785Y-107269047D01*
X198043071Y-107269047D01*
X197919261Y-107330952D01*
X197857357Y-107392857D01*
X197795452Y-107516666D01*
X197795452Y-108011904D01*
X198476404Y-106464285D02*
X198476404Y-106216666D01*
X198414500Y-106092857D01*
X198290690Y-105969047D01*
X198043071Y-105907142D01*
X197609738Y-105907142D01*
X197362119Y-105969047D01*
X197238309Y-106092857D01*
X197176404Y-106216666D01*
X197176404Y-106464285D01*
X197238309Y-106588095D01*
X197362119Y-106711904D01*
X197609738Y-106773809D01*
X198043071Y-106773809D01*
X198290690Y-106711904D01*
X198414500Y-106588095D01*
X198476404Y-106464285D01*
X197176404Y-105350000D02*
X198476404Y-105350000D01*
X197547833Y-104916666D01*
X198476404Y-104483333D01*
X197176404Y-104483333D01*
X195083404Y-133083333D02*
X195702452Y-133516666D01*
X195083404Y-133826190D02*
X196383404Y-133826190D01*
X196383404Y-133330952D01*
X196321500Y-133207142D01*
X196259595Y-133145238D01*
X196135785Y-133083333D01*
X195950071Y-133083333D01*
X195826261Y-133145238D01*
X195764357Y-133207142D01*
X195702452Y-133330952D01*
X195702452Y-133826190D01*
X195454833Y-132588095D02*
X195454833Y-131969047D01*
X195083404Y-132711904D02*
X196383404Y-132278571D01*
X195083404Y-131845238D01*
X195145309Y-131473809D02*
X195083404Y-131288095D01*
X195083404Y-130978571D01*
X195145309Y-130854761D01*
X195207214Y-130792857D01*
X195331023Y-130730952D01*
X195454833Y-130730952D01*
X195578642Y-130792857D01*
X195640547Y-130854761D01*
X195702452Y-130978571D01*
X195764357Y-131226190D01*
X195826261Y-131350000D01*
X195888166Y-131411904D01*
X196011976Y-131473809D01*
X196135785Y-131473809D01*
X196259595Y-131411904D01*
X196321500Y-131350000D01*
X196383404Y-131226190D01*
X196383404Y-130916666D01*
X196321500Y-130730952D01*
X195083404Y-130173809D02*
X196383404Y-130173809D01*
X196383404Y-129678571D01*
X196321500Y-129554761D01*
X196259595Y-129492857D01*
X196135785Y-129430952D01*
X195950071Y-129430952D01*
X195826261Y-129492857D01*
X195764357Y-129554761D01*
X195702452Y-129678571D01*
X195702452Y-130173809D01*
X195764357Y-128440476D02*
X195702452Y-128254761D01*
X195640547Y-128192857D01*
X195516738Y-128130952D01*
X195331023Y-128130952D01*
X195207214Y-128192857D01*
X195145309Y-128254761D01*
X195083404Y-128378571D01*
X195083404Y-128873809D01*
X196383404Y-128873809D01*
X196383404Y-128440476D01*
X196321500Y-128316666D01*
X196259595Y-128254761D01*
X196135785Y-128192857D01*
X196011976Y-128192857D01*
X195888166Y-128254761D01*
X195826261Y-128316666D01*
X195764357Y-128440476D01*
X195764357Y-128873809D01*
X195764357Y-127573809D02*
X195764357Y-127140476D01*
X195083404Y-126954761D02*
X195083404Y-127573809D01*
X196383404Y-127573809D01*
X196383404Y-126954761D01*
X195083404Y-125654761D02*
X195702452Y-126088095D01*
X195083404Y-126397619D02*
X196383404Y-126397619D01*
X196383404Y-125902380D01*
X196321500Y-125778571D01*
X196259595Y-125716666D01*
X196135785Y-125654761D01*
X195950071Y-125654761D01*
X195826261Y-125716666D01*
X195764357Y-125778571D01*
X195702452Y-125902380D01*
X195702452Y-126397619D01*
X195083404Y-124354761D02*
X195702452Y-124788095D01*
X195083404Y-125097619D02*
X196383404Y-125097619D01*
X196383404Y-124602380D01*
X196321500Y-124478571D01*
X196259595Y-124416666D01*
X196135785Y-124354761D01*
X195950071Y-124354761D01*
X195826261Y-124416666D01*
X195764357Y-124478571D01*
X195702452Y-124602380D01*
X195702452Y-125097619D01*
X195702452Y-123550000D02*
X195083404Y-123550000D01*
X196383404Y-123983333D02*
X195702452Y-123550000D01*
X196383404Y-123116666D01*
X195083404Y-121692857D02*
X196383404Y-121692857D01*
X196383404Y-121197619D01*
X196321500Y-121073809D01*
X196259595Y-121011904D01*
X196135785Y-120950000D01*
X195950071Y-120950000D01*
X195826261Y-121011904D01*
X195764357Y-121073809D01*
X195702452Y-121197619D01*
X195702452Y-121692857D01*
X195083404Y-120392857D02*
X196383404Y-120392857D01*
X195764357Y-118350000D02*
X195764357Y-118783333D01*
X195083404Y-118783333D02*
X196383404Y-118783333D01*
X196383404Y-118164285D01*
X196383404Y-117421428D02*
X196383404Y-117173809D01*
X196321500Y-117050000D01*
X196197690Y-116926190D01*
X195950071Y-116864285D01*
X195516738Y-116864285D01*
X195269119Y-116926190D01*
X195145309Y-117050000D01*
X195083404Y-117173809D01*
X195083404Y-117421428D01*
X195145309Y-117545238D01*
X195269119Y-117669047D01*
X195516738Y-117730952D01*
X195950071Y-117730952D01*
X196197690Y-117669047D01*
X196321500Y-117545238D01*
X196383404Y-117421428D01*
X195083404Y-115564285D02*
X195702452Y-115997619D01*
X195083404Y-116307142D02*
X196383404Y-116307142D01*
X196383404Y-115811904D01*
X196321500Y-115688095D01*
X196259595Y-115626190D01*
X196135785Y-115564285D01*
X195950071Y-115564285D01*
X195826261Y-115626190D01*
X195764357Y-115688095D01*
X195702452Y-115811904D01*
X195702452Y-116307142D01*
X195454833Y-114078571D02*
X195454833Y-113459523D01*
X195083404Y-114202380D02*
X196383404Y-113769047D01*
X195083404Y-113335714D01*
X195083404Y-112902380D02*
X196383404Y-112902380D01*
X196383404Y-112592857D01*
X196321500Y-112407142D01*
X196197690Y-112283333D01*
X196073880Y-112221428D01*
X195826261Y-112159523D01*
X195640547Y-112159523D01*
X195392928Y-112221428D01*
X195269119Y-112283333D01*
X195145309Y-112407142D01*
X195083404Y-112592857D01*
X195083404Y-112902380D01*
X195083404Y-111602380D02*
X196383404Y-111602380D01*
X196383404Y-111292857D01*
X196321500Y-111107142D01*
X196197690Y-110983333D01*
X196073880Y-110921428D01*
X195826261Y-110859523D01*
X195640547Y-110859523D01*
X195392928Y-110921428D01*
X195269119Y-110983333D01*
X195145309Y-111107142D01*
X195083404Y-111292857D01*
X195083404Y-111602380D01*
X195578642Y-110302380D02*
X195578642Y-109311904D01*
X196383404Y-108445238D02*
X196383404Y-108197619D01*
X196321500Y-108073809D01*
X196197690Y-107950000D01*
X195950071Y-107888095D01*
X195516738Y-107888095D01*
X195269119Y-107950000D01*
X195145309Y-108073809D01*
X195083404Y-108197619D01*
X195083404Y-108445238D01*
X195145309Y-108569047D01*
X195269119Y-108692857D01*
X195516738Y-108754761D01*
X195950071Y-108754761D01*
X196197690Y-108692857D01*
X196321500Y-108569047D01*
X196383404Y-108445238D01*
X195083404Y-107330952D02*
X196383404Y-107330952D01*
X195083404Y-106588095D01*
X196383404Y-106588095D01*
X195083404Y-104978571D02*
X196383404Y-104978571D01*
X195764357Y-104978571D02*
X195764357Y-104235714D01*
X195083404Y-104235714D02*
X196383404Y-104235714D01*
X195454833Y-103678571D02*
X195454833Y-103059523D01*
X195083404Y-103802380D02*
X196383404Y-103369047D01*
X195083404Y-102935714D01*
X196383404Y-102688095D02*
X196383404Y-101945238D01*
X195083404Y-102316666D02*
X196383404Y-102316666D01*
X195145309Y-101573809D02*
X195083404Y-101388095D01*
X195083404Y-101078571D01*
X195145309Y-100954761D01*
X195207214Y-100892857D01*
X195331023Y-100830952D01*
X195454833Y-100830952D01*
X195578642Y-100892857D01*
X195640547Y-100954761D01*
X195702452Y-101078571D01*
X195764357Y-101326190D01*
X195826261Y-101450000D01*
X195888166Y-101511904D01*
X196011976Y-101573809D01*
X196135785Y-101573809D01*
X196259595Y-101511904D01*
X196321500Y-101450000D01*
X196383404Y-101326190D01*
X196383404Y-101016666D01*
X196321500Y-100830952D01*
X195207214Y-100273809D02*
X195145309Y-100211904D01*
X195083404Y-100273809D01*
X195145309Y-100335714D01*
X195207214Y-100273809D01*
X195083404Y-100273809D01*
X195888166Y-100273809D02*
X195826261Y-100211904D01*
X195764357Y-100273809D01*
X195826261Y-100335714D01*
X195888166Y-100273809D01*
X195764357Y-100273809D01*
X193114214Y-134011904D02*
X193052309Y-134073809D01*
X192990404Y-134259523D01*
X192990404Y-134383333D01*
X193052309Y-134569047D01*
X193176119Y-134692857D01*
X193299928Y-134754761D01*
X193547547Y-134816666D01*
X193733261Y-134816666D01*
X193980880Y-134754761D01*
X194104690Y-134692857D01*
X194228500Y-134569047D01*
X194290404Y-134383333D01*
X194290404Y-134259523D01*
X194228500Y-134073809D01*
X194166595Y-134011904D01*
X194290404Y-133454761D02*
X193238023Y-133454761D01*
X193114214Y-133392857D01*
X193052309Y-133330952D01*
X192990404Y-133207142D01*
X192990404Y-132959523D01*
X193052309Y-132835714D01*
X193114214Y-132773809D01*
X193238023Y-132711904D01*
X194290404Y-132711904D01*
X194290404Y-132278571D02*
X194290404Y-131535714D01*
X192990404Y-131907142D02*
X194290404Y-131907142D01*
X194290404Y-131288095D02*
X194290404Y-130545238D01*
X192990404Y-130916666D02*
X194290404Y-130916666D01*
X193361833Y-130173809D02*
X193361833Y-129554761D01*
X192990404Y-130297619D02*
X194290404Y-129864285D01*
X192990404Y-129430952D01*
X193671357Y-128564285D02*
X193609452Y-128378571D01*
X193547547Y-128316666D01*
X193423738Y-128254761D01*
X193238023Y-128254761D01*
X193114214Y-128316666D01*
X193052309Y-128378571D01*
X192990404Y-128502380D01*
X192990404Y-128997619D01*
X194290404Y-128997619D01*
X194290404Y-128564285D01*
X194228500Y-128440476D01*
X194166595Y-128378571D01*
X194042785Y-128316666D01*
X193918976Y-128316666D01*
X193795166Y-128378571D01*
X193733261Y-128440476D01*
X193671357Y-128564285D01*
X193671357Y-128997619D01*
X192990404Y-127078571D02*
X192990404Y-127697619D01*
X194290404Y-127697619D01*
X193671357Y-126645238D02*
X193671357Y-126211904D01*
X192990404Y-126026190D02*
X192990404Y-126645238D01*
X194290404Y-126645238D01*
X194290404Y-126026190D01*
X194290404Y-124664285D02*
X194290404Y-123921428D01*
X192990404Y-124292857D02*
X194290404Y-124292857D01*
X192990404Y-122745238D02*
X193609452Y-123178571D01*
X192990404Y-123488095D02*
X194290404Y-123488095D01*
X194290404Y-122992857D01*
X194228500Y-122869047D01*
X194166595Y-122807142D01*
X194042785Y-122745238D01*
X193857071Y-122745238D01*
X193733261Y-122807142D01*
X193671357Y-122869047D01*
X193609452Y-122992857D01*
X193609452Y-123488095D01*
X193361833Y-122250000D02*
X193361833Y-121630952D01*
X192990404Y-122373809D02*
X194290404Y-121940476D01*
X192990404Y-121507142D01*
X193114214Y-120330952D02*
X193052309Y-120392857D01*
X192990404Y-120578571D01*
X192990404Y-120702380D01*
X193052309Y-120888095D01*
X193176119Y-121011904D01*
X193299928Y-121073809D01*
X193547547Y-121135714D01*
X193733261Y-121135714D01*
X193980880Y-121073809D01*
X194104690Y-121011904D01*
X194228500Y-120888095D01*
X194290404Y-120702380D01*
X194290404Y-120578571D01*
X194228500Y-120392857D01*
X194166595Y-120330952D01*
X192990404Y-119773809D02*
X194290404Y-119773809D01*
X192990404Y-119030952D02*
X193733261Y-119588095D01*
X194290404Y-119030952D02*
X193547547Y-119773809D01*
X193052309Y-118535714D02*
X192990404Y-118350000D01*
X192990404Y-118040476D01*
X193052309Y-117916666D01*
X193114214Y-117854761D01*
X193238023Y-117792857D01*
X193361833Y-117792857D01*
X193485642Y-117854761D01*
X193547547Y-117916666D01*
X193609452Y-118040476D01*
X193671357Y-118288095D01*
X193733261Y-118411904D01*
X193795166Y-118473809D01*
X193918976Y-118535714D01*
X194042785Y-118535714D01*
X194166595Y-118473809D01*
X194228500Y-118411904D01*
X194290404Y-118288095D01*
X194290404Y-117978571D01*
X194228500Y-117792857D01*
X192990404Y-116245238D02*
X194290404Y-116245238D01*
X194290404Y-115750000D01*
X194228500Y-115626190D01*
X194166595Y-115564285D01*
X194042785Y-115502380D01*
X193857071Y-115502380D01*
X193733261Y-115564285D01*
X193671357Y-115626190D01*
X193609452Y-115750000D01*
X193609452Y-116245238D01*
X192990404Y-114202380D02*
X193609452Y-114635714D01*
X192990404Y-114945238D02*
X194290404Y-114945238D01*
X194290404Y-114450000D01*
X194228500Y-114326190D01*
X194166595Y-114264285D01*
X194042785Y-114202380D01*
X193857071Y-114202380D01*
X193733261Y-114264285D01*
X193671357Y-114326190D01*
X193609452Y-114450000D01*
X193609452Y-114945238D01*
X194290404Y-113397619D02*
X194290404Y-113150000D01*
X194228500Y-113026190D01*
X194104690Y-112902380D01*
X193857071Y-112840476D01*
X193423738Y-112840476D01*
X193176119Y-112902380D01*
X193052309Y-113026190D01*
X192990404Y-113150000D01*
X192990404Y-113397619D01*
X193052309Y-113521428D01*
X193176119Y-113645238D01*
X193423738Y-113707142D01*
X193857071Y-113707142D01*
X194104690Y-113645238D01*
X194228500Y-113521428D01*
X194290404Y-113397619D01*
X194290404Y-112469047D02*
X192990404Y-112035714D01*
X194290404Y-111602380D01*
X192990404Y-111169047D02*
X194290404Y-111169047D01*
X192990404Y-110550000D02*
X194290404Y-110550000D01*
X194290404Y-110240476D01*
X194228500Y-110054761D01*
X194104690Y-109930952D01*
X193980880Y-109869047D01*
X193733261Y-109807142D01*
X193547547Y-109807142D01*
X193299928Y-109869047D01*
X193176119Y-109930952D01*
X193052309Y-110054761D01*
X192990404Y-110240476D01*
X192990404Y-110550000D01*
X193671357Y-109250000D02*
X193671357Y-108816666D01*
X192990404Y-108630952D02*
X192990404Y-109250000D01*
X194290404Y-109250000D01*
X194290404Y-108630952D01*
X192990404Y-108073809D02*
X194290404Y-108073809D01*
X194290404Y-107764285D01*
X194228500Y-107578571D01*
X194104690Y-107454761D01*
X193980880Y-107392857D01*
X193733261Y-107330952D01*
X193547547Y-107330952D01*
X193299928Y-107392857D01*
X193176119Y-107454761D01*
X193052309Y-107578571D01*
X192990404Y-107764285D01*
X192990404Y-108073809D01*
X193361833Y-105845238D02*
X193361833Y-105226190D01*
X192990404Y-105969047D02*
X194290404Y-105535714D01*
X192990404Y-105102380D01*
X193671357Y-104235714D02*
X193609452Y-104050000D01*
X193547547Y-103988095D01*
X193423738Y-103926190D01*
X193238023Y-103926190D01*
X193114214Y-103988095D01*
X193052309Y-104050000D01*
X192990404Y-104173809D01*
X192990404Y-104669047D01*
X194290404Y-104669047D01*
X194290404Y-104235714D01*
X194228500Y-104111904D01*
X194166595Y-104050000D01*
X194042785Y-103988095D01*
X193918976Y-103988095D01*
X193795166Y-104050000D01*
X193733261Y-104111904D01*
X193671357Y-104235714D01*
X193671357Y-104669047D01*
X194290404Y-103121428D02*
X194290404Y-102873809D01*
X194228500Y-102750000D01*
X194104690Y-102626190D01*
X193857071Y-102564285D01*
X193423738Y-102564285D01*
X193176119Y-102626190D01*
X193052309Y-102750000D01*
X192990404Y-102873809D01*
X192990404Y-103121428D01*
X193052309Y-103245238D01*
X193176119Y-103369047D01*
X193423738Y-103430952D01*
X193857071Y-103430952D01*
X194104690Y-103369047D01*
X194228500Y-103245238D01*
X194290404Y-103121428D01*
X194290404Y-102192857D02*
X192990404Y-101759523D01*
X194290404Y-101326190D01*
X193671357Y-100892857D02*
X193671357Y-100459523D01*
X192990404Y-100273809D02*
X192990404Y-100892857D01*
X194290404Y-100892857D01*
X194290404Y-100273809D01*
X191578357Y-133392857D02*
X191578357Y-133826190D01*
X190897404Y-133826190D02*
X192197404Y-133826190D01*
X192197404Y-133207142D01*
X192197404Y-132464285D02*
X192197404Y-132216666D01*
X192135500Y-132092857D01*
X192011690Y-131969047D01*
X191764071Y-131907142D01*
X191330738Y-131907142D01*
X191083119Y-131969047D01*
X190959309Y-132092857D01*
X190897404Y-132216666D01*
X190897404Y-132464285D01*
X190959309Y-132588095D01*
X191083119Y-132711904D01*
X191330738Y-132773809D01*
X191764071Y-132773809D01*
X192011690Y-132711904D01*
X192135500Y-132588095D01*
X192197404Y-132464285D01*
X190897404Y-130607142D02*
X191516452Y-131040476D01*
X190897404Y-131350000D02*
X192197404Y-131350000D01*
X192197404Y-130854761D01*
X192135500Y-130730952D01*
X192073595Y-130669047D01*
X191949785Y-130607142D01*
X191764071Y-130607142D01*
X191640261Y-130669047D01*
X191578357Y-130730952D01*
X191516452Y-130854761D01*
X191516452Y-131350000D01*
X191578357Y-128626190D02*
X191516452Y-128440476D01*
X191454547Y-128378571D01*
X191330738Y-128316666D01*
X191145023Y-128316666D01*
X191021214Y-128378571D01*
X190959309Y-128440476D01*
X190897404Y-128564285D01*
X190897404Y-129059523D01*
X192197404Y-129059523D01*
X192197404Y-128626190D01*
X192135500Y-128502380D01*
X192073595Y-128440476D01*
X191949785Y-128378571D01*
X191825976Y-128378571D01*
X191702166Y-128440476D01*
X191640261Y-128502380D01*
X191578357Y-128626190D01*
X191578357Y-129059523D01*
X190897404Y-127016666D02*
X191516452Y-127450000D01*
X190897404Y-127759523D02*
X192197404Y-127759523D01*
X192197404Y-127264285D01*
X192135500Y-127140476D01*
X192073595Y-127078571D01*
X191949785Y-127016666D01*
X191764071Y-127016666D01*
X191640261Y-127078571D01*
X191578357Y-127140476D01*
X191516452Y-127264285D01*
X191516452Y-127759523D01*
X191578357Y-126459523D02*
X191578357Y-126026190D01*
X190897404Y-125840476D02*
X190897404Y-126459523D01*
X192197404Y-126459523D01*
X192197404Y-125840476D01*
X191268833Y-125345238D02*
X191268833Y-124726190D01*
X190897404Y-125469047D02*
X192197404Y-125035714D01*
X190897404Y-124602380D01*
X190897404Y-124169047D02*
X192197404Y-124169047D01*
X190897404Y-123426190D02*
X191640261Y-123983333D01*
X192197404Y-123426190D02*
X191454547Y-124169047D01*
X190897404Y-122869047D02*
X192197404Y-122869047D01*
X190897404Y-122250000D02*
X192197404Y-122250000D01*
X190897404Y-121507142D01*
X192197404Y-121507142D01*
X192135500Y-120207142D02*
X192197404Y-120330952D01*
X192197404Y-120516666D01*
X192135500Y-120702380D01*
X192011690Y-120826190D01*
X191887880Y-120888095D01*
X191640261Y-120950000D01*
X191454547Y-120950000D01*
X191206928Y-120888095D01*
X191083119Y-120826190D01*
X190959309Y-120702380D01*
X190897404Y-120516666D01*
X190897404Y-120392857D01*
X190959309Y-120207142D01*
X191021214Y-120145238D01*
X191454547Y-120145238D01*
X191454547Y-120392857D01*
X191268833Y-118659523D02*
X191268833Y-118040476D01*
X190897404Y-118783333D02*
X192197404Y-118350000D01*
X190897404Y-117916666D01*
X190897404Y-117483333D02*
X192197404Y-117483333D01*
X190897404Y-116740476D01*
X192197404Y-116740476D01*
X190897404Y-116121428D02*
X192197404Y-116121428D01*
X192197404Y-115811904D01*
X192135500Y-115626190D01*
X192011690Y-115502380D01*
X191887880Y-115440476D01*
X191640261Y-115378571D01*
X191454547Y-115378571D01*
X191206928Y-115440476D01*
X191083119Y-115502380D01*
X190959309Y-115626190D01*
X190897404Y-115811904D01*
X190897404Y-116121428D01*
X192197404Y-113954761D02*
X190897404Y-113645238D01*
X191825976Y-113397619D01*
X190897404Y-113150000D01*
X192197404Y-112840476D01*
X190897404Y-112345238D02*
X192197404Y-112345238D01*
X190897404Y-110983333D02*
X191516452Y-111416666D01*
X190897404Y-111726190D02*
X192197404Y-111726190D01*
X192197404Y-111230952D01*
X192135500Y-111107142D01*
X192073595Y-111045238D01*
X191949785Y-110983333D01*
X191764071Y-110983333D01*
X191640261Y-111045238D01*
X191578357Y-111107142D01*
X191516452Y-111230952D01*
X191516452Y-111726190D01*
X191578357Y-110426190D02*
X191578357Y-109992857D01*
X190897404Y-109807142D02*
X190897404Y-110426190D01*
X192197404Y-110426190D01*
X192197404Y-109807142D01*
X190897404Y-107640476D02*
X190897404Y-108259523D01*
X192197404Y-108259523D01*
X190897404Y-107207142D02*
X192197404Y-107207142D01*
X190897404Y-106588095D02*
X192197404Y-106588095D01*
X190897404Y-105845238D01*
X192197404Y-105845238D01*
X190897404Y-105226190D02*
X192197404Y-105226190D01*
X190897404Y-104483333D02*
X191640261Y-105040476D01*
X192197404Y-104483333D02*
X191454547Y-105226190D01*
X190897404Y-103926190D02*
X192197404Y-103926190D01*
X190897404Y-103307142D02*
X192197404Y-103307142D01*
X190897404Y-102564285D01*
X192197404Y-102564285D01*
X192135500Y-101264285D02*
X192197404Y-101388095D01*
X192197404Y-101573809D01*
X192135500Y-101759523D01*
X192011690Y-101883333D01*
X191887880Y-101945238D01*
X191640261Y-102007142D01*
X191454547Y-102007142D01*
X191206928Y-101945238D01*
X191083119Y-101883333D01*
X190959309Y-101759523D01*
X190897404Y-101573809D01*
X190897404Y-101450000D01*
X190959309Y-101264285D01*
X191021214Y-101202380D01*
X191454547Y-101202380D01*
X191454547Y-101450000D01*
X188804404Y-127109523D02*
X190104404Y-127109523D01*
X190104404Y-126614285D01*
X190042500Y-126490476D01*
X189980595Y-126428571D01*
X189856785Y-126366666D01*
X189671071Y-126366666D01*
X189547261Y-126428571D01*
X189485357Y-126490476D01*
X189423452Y-126614285D01*
X189423452Y-127109523D01*
X188804404Y-125809523D02*
X190104404Y-125809523D01*
X188804404Y-125190476D02*
X190104404Y-125190476D01*
X188804404Y-124447619D01*
X190104404Y-124447619D01*
X188866309Y-123890476D02*
X188804404Y-123704761D01*
X188804404Y-123395238D01*
X188866309Y-123271428D01*
X188928214Y-123209523D01*
X189052023Y-123147619D01*
X189175833Y-123147619D01*
X189299642Y-123209523D01*
X189361547Y-123271428D01*
X189423452Y-123395238D01*
X189485357Y-123642857D01*
X189547261Y-123766666D01*
X189609166Y-123828571D01*
X189732976Y-123890476D01*
X189856785Y-123890476D01*
X189980595Y-123828571D01*
X190042500Y-123766666D01*
X190104404Y-123642857D01*
X190104404Y-123333333D01*
X190042500Y-123147619D01*
X190104404Y-121785714D02*
X190104404Y-121042857D01*
X188804404Y-121414285D02*
X190104404Y-121414285D01*
X190104404Y-120361904D02*
X190104404Y-120114285D01*
X190042500Y-119990476D01*
X189918690Y-119866666D01*
X189671071Y-119804761D01*
X189237738Y-119804761D01*
X188990119Y-119866666D01*
X188866309Y-119990476D01*
X188804404Y-120114285D01*
X188804404Y-120361904D01*
X188866309Y-120485714D01*
X188990119Y-120609523D01*
X189237738Y-120671428D01*
X189671071Y-120671428D01*
X189918690Y-120609523D01*
X190042500Y-120485714D01*
X190104404Y-120361904D01*
X189175833Y-118319047D02*
X189175833Y-117700000D01*
X188804404Y-118442857D02*
X190104404Y-118009523D01*
X188804404Y-117576190D01*
X188866309Y-117204761D02*
X188804404Y-117019047D01*
X188804404Y-116709523D01*
X188866309Y-116585714D01*
X188928214Y-116523809D01*
X189052023Y-116461904D01*
X189175833Y-116461904D01*
X189299642Y-116523809D01*
X189361547Y-116585714D01*
X189423452Y-116709523D01*
X189485357Y-116957142D01*
X189547261Y-117080952D01*
X189609166Y-117142857D01*
X189732976Y-117204761D01*
X189856785Y-117204761D01*
X189980595Y-117142857D01*
X190042500Y-117080952D01*
X190104404Y-116957142D01*
X190104404Y-116647619D01*
X190042500Y-116461904D01*
X188866309Y-115966666D02*
X188804404Y-115780952D01*
X188804404Y-115471428D01*
X188866309Y-115347619D01*
X188928214Y-115285714D01*
X189052023Y-115223809D01*
X189175833Y-115223809D01*
X189299642Y-115285714D01*
X189361547Y-115347619D01*
X189423452Y-115471428D01*
X189485357Y-115719047D01*
X189547261Y-115842857D01*
X189609166Y-115904761D01*
X189732976Y-115966666D01*
X189856785Y-115966666D01*
X189980595Y-115904761D01*
X190042500Y-115842857D01*
X190104404Y-115719047D01*
X190104404Y-115409523D01*
X190042500Y-115223809D01*
X188804404Y-114666666D02*
X190104404Y-114666666D01*
X188866309Y-114109523D02*
X188804404Y-113923809D01*
X188804404Y-113614285D01*
X188866309Y-113490476D01*
X188928214Y-113428571D01*
X189052023Y-113366666D01*
X189175833Y-113366666D01*
X189299642Y-113428571D01*
X189361547Y-113490476D01*
X189423452Y-113614285D01*
X189485357Y-113861904D01*
X189547261Y-113985714D01*
X189609166Y-114047619D01*
X189732976Y-114109523D01*
X189856785Y-114109523D01*
X189980595Y-114047619D01*
X190042500Y-113985714D01*
X190104404Y-113861904D01*
X190104404Y-113552380D01*
X190042500Y-113366666D01*
X190104404Y-112995238D02*
X190104404Y-112252380D01*
X188804404Y-112623809D02*
X190104404Y-112623809D01*
X190104404Y-110952380D02*
X188804404Y-110642857D01*
X189732976Y-110395238D01*
X188804404Y-110147619D01*
X190104404Y-109838095D01*
X188804404Y-109342857D02*
X190104404Y-109342857D01*
X190104404Y-108909523D02*
X190104404Y-108166666D01*
X188804404Y-108538095D02*
X190104404Y-108538095D01*
X188804404Y-107733333D02*
X190104404Y-107733333D01*
X189485357Y-107733333D02*
X189485357Y-106990476D01*
X188804404Y-106990476D02*
X190104404Y-106990476D01*
X186711404Y-125500000D02*
X188011404Y-125500000D01*
X188011404Y-125004761D01*
X187949500Y-124880952D01*
X187887595Y-124819047D01*
X187763785Y-124757142D01*
X187578071Y-124757142D01*
X187454261Y-124819047D01*
X187392357Y-124880952D01*
X187330452Y-125004761D01*
X187330452Y-125500000D01*
X186711404Y-124200000D02*
X188011404Y-124200000D01*
X186711404Y-123580952D02*
X188011404Y-123580952D01*
X186711404Y-122838095D01*
X188011404Y-122838095D01*
X188011404Y-121228571D02*
X186959023Y-121228571D01*
X186835214Y-121166666D01*
X186773309Y-121104761D01*
X186711404Y-120980952D01*
X186711404Y-120733333D01*
X186773309Y-120609523D01*
X186835214Y-120547619D01*
X186959023Y-120485714D01*
X188011404Y-120485714D01*
X186773309Y-119928571D02*
X186711404Y-119742857D01*
X186711404Y-119433333D01*
X186773309Y-119309523D01*
X186835214Y-119247619D01*
X186959023Y-119185714D01*
X187082833Y-119185714D01*
X187206642Y-119247619D01*
X187268547Y-119309523D01*
X187330452Y-119433333D01*
X187392357Y-119680952D01*
X187454261Y-119804761D01*
X187516166Y-119866666D01*
X187639976Y-119928571D01*
X187763785Y-119928571D01*
X187887595Y-119866666D01*
X187949500Y-119804761D01*
X188011404Y-119680952D01*
X188011404Y-119371428D01*
X187949500Y-119185714D01*
X187392357Y-118628571D02*
X187392357Y-118195238D01*
X186711404Y-118009523D02*
X186711404Y-118628571D01*
X188011404Y-118628571D01*
X188011404Y-118009523D01*
X186835214Y-115719047D02*
X186773309Y-115780952D01*
X186711404Y-115966666D01*
X186711404Y-116090476D01*
X186773309Y-116276190D01*
X186897119Y-116400000D01*
X187020928Y-116461904D01*
X187268547Y-116523809D01*
X187454261Y-116523809D01*
X187701880Y-116461904D01*
X187825690Y-116400000D01*
X187949500Y-116276190D01*
X188011404Y-116090476D01*
X188011404Y-115966666D01*
X187949500Y-115780952D01*
X187887595Y-115719047D01*
X186711404Y-114542857D02*
X186711404Y-115161904D01*
X188011404Y-115161904D01*
X187082833Y-114171428D02*
X187082833Y-113552380D01*
X186711404Y-114295238D02*
X188011404Y-113861904D01*
X186711404Y-113428571D01*
X186773309Y-113057142D02*
X186711404Y-112871428D01*
X186711404Y-112561904D01*
X186773309Y-112438095D01*
X186835214Y-112376190D01*
X186959023Y-112314285D01*
X187082833Y-112314285D01*
X187206642Y-112376190D01*
X187268547Y-112438095D01*
X187330452Y-112561904D01*
X187392357Y-112809523D01*
X187454261Y-112933333D01*
X187516166Y-112995238D01*
X187639976Y-113057142D01*
X187763785Y-113057142D01*
X187887595Y-112995238D01*
X187949500Y-112933333D01*
X188011404Y-112809523D01*
X188011404Y-112500000D01*
X187949500Y-112314285D01*
X186711404Y-111757142D02*
X188011404Y-111757142D01*
X187392357Y-111757142D02*
X187392357Y-111014285D01*
X186711404Y-111014285D02*
X188011404Y-111014285D01*
X187392357Y-110395238D02*
X187392357Y-109961904D01*
X186711404Y-109776190D02*
X186711404Y-110395238D01*
X188011404Y-110395238D01*
X188011404Y-109776190D01*
X186773309Y-109280952D02*
X186711404Y-109095238D01*
X186711404Y-108785714D01*
X186773309Y-108661904D01*
X186835214Y-108600000D01*
X186959023Y-108538095D01*
X187082833Y-108538095D01*
X187206642Y-108600000D01*
X187268547Y-108661904D01*
X187330452Y-108785714D01*
X187392357Y-109033333D01*
X187454261Y-109157142D01*
X187516166Y-109219047D01*
X187639976Y-109280952D01*
X187763785Y-109280952D01*
X187887595Y-109219047D01*
X187949500Y-109157142D01*
X188011404Y-109033333D01*
X188011404Y-108723809D01*
X187949500Y-108538095D01*
D11*
%TO.C,D9*%
X90146095Y-134890380D02*
X90146095Y-133890380D01*
X89908000Y-133890380D01*
X89765142Y-133938000D01*
X89669904Y-134033238D01*
X89622285Y-134128476D01*
X89574666Y-134318952D01*
X89574666Y-134461809D01*
X89622285Y-134652285D01*
X89669904Y-134747523D01*
X89765142Y-134842761D01*
X89908000Y-134890380D01*
X90146095Y-134890380D01*
X89098476Y-134890380D02*
X88908000Y-134890380D01*
X88812761Y-134842761D01*
X88765142Y-134795142D01*
X88669904Y-134652285D01*
X88622285Y-134461809D01*
X88622285Y-134080857D01*
X88669904Y-133985619D01*
X88717523Y-133938000D01*
X88812761Y-133890380D01*
X89003238Y-133890380D01*
X89098476Y-133938000D01*
X89146095Y-133985619D01*
X89193714Y-134080857D01*
X89193714Y-134318952D01*
X89146095Y-134414190D01*
X89098476Y-134461809D01*
X89003238Y-134509428D01*
X88812761Y-134509428D01*
X88717523Y-134461809D01*
X88669904Y-134414190D01*
X88622285Y-134318952D01*
D12*
%TO.C,J10*%
X188062000Y-146050000D02*
G75*
G03*
X188062000Y-146050000I-1350000J0D01*
G01*
X188062000Y-88050000D02*
G75*
G03*
X188062000Y-88050000I-1350000J0D01*
G01*
D13*
X236212000Y-149550000D02*
G75*
G03*
X239212000Y-146550000I-1J3000001D01*
G01*
X186212000Y-84550000D02*
G75*
G03*
X183212000Y-87550000I1J-3000001D01*
G01*
X239212000Y-87550000D02*
G75*
G03*
X236212000Y-84550000I-3000001J-1D01*
G01*
X183212000Y-146550000D02*
G75*
G03*
X186212000Y-149550000I3000001J1D01*
G01*
X183212000Y-87550000D02*
X183212000Y-146550000D01*
X233112000Y-139910000D02*
X235712000Y-139910000D01*
X238312000Y-142510000D02*
X238312000Y-91590000D01*
X235712000Y-142510000D02*
X238312000Y-142510000D01*
X233112000Y-141180000D02*
X233112000Y-142510000D01*
X235712000Y-139910000D02*
X235712000Y-142510000D01*
X186212000Y-84550000D02*
X236212000Y-84550000D01*
X236212000Y-149550000D02*
X186212000Y-149550000D01*
X233112000Y-139910000D02*
X233112000Y-91590000D01*
X233112000Y-142510000D02*
X234442000Y-142510000D01*
X239212000Y-146550000D02*
X239212000Y-87550000D01*
X233112000Y-91590000D02*
X238312000Y-91590000D01*
%TO.C,D9*%
X86848000Y-146308000D02*
G75*
G03*
X91968000Y-146308000I2560000J0D01*
G01*
X88138000Y-137478000D02*
X88138000Y-140148000D01*
X86448000Y-141268000D02*
X86848000Y-141268000D01*
X86848000Y-141268000D02*
X86848000Y-140148000D01*
X86848000Y-140148000D02*
X86848000Y-146308000D01*
X90678000Y-140148000D02*
X90678000Y-140148000D01*
X88138000Y-140148000D02*
X88138000Y-137478000D01*
X90678000Y-140148000D02*
X90678000Y-137478000D01*
X86848000Y-140148000D02*
X86448000Y-140148000D01*
X91968000Y-140148000D02*
X91968000Y-146308000D01*
X91968000Y-140148000D02*
X86848000Y-140148000D01*
X86448000Y-140148000D02*
X86448000Y-141268000D01*
X90678000Y-137478000D02*
X90678000Y-137478000D01*
X90678000Y-137478000D02*
X90678000Y-140148000D01*
X88138000Y-137478000D02*
X88138000Y-137478000D01*
X88138000Y-140148000D02*
X88138000Y-140148000D01*
%TD*%
M02*
