999
FreeCAD v0.19 24267 +99 (Git)
  0
SECTION
  2
HEADER
  9
$ACADVER
  1
AC1014
  9
$ACADMAINTVER
 70
     9
  9
$DWGCODEPAGE
  3
ANSI_1252
  9
$TEXTSTYLE
  7
STANDARD
  9
$DIMSTYLE
  2
STANDARD
  9
$DIMTXSTY
  7
STANDARD
  9
$CMLSTYLE
  2
STANDARD
  9
$PEXTMAX
 10
50
 20
50
 30
50
  9
$PEXTMIN
 10
0
 20
0
 30
0
  9
$HANDSEED
  5
FFFF
  0
ENDSEC
  0
SECTION
  2
CLASSES
  0
CLASS
  1
ACDBDICTIONARYWDFLT
  2
AcDbDictionaryWithDefault
  3
ObjectDBX Classes
 90
        0
280
     0
281
     0
  0
CLASS
  1
XRECORD
  2
AcDbXrecord
  3
ObjectDBX Classes
 90
        0
280
     0
281
     0
  0
CLASS
  1
LWPOLYLINE
  2
AcDbPolyline
  3
ObjectDBX Classes
 90
        0
280
     0
281
     1
  0
ENDSEC
  0
SECTION
  2
TABLES
  0
TABLE
  2
VPORT
  5
20
330
0
100
AcDbSymbolTable
 70
     1
  0
VPORT
  5
21
330
20
100
AcDbSymbolTableRecord
100
AcDbViewportTableRecord
  2
*ACTIVE
 70
     0
  0
ENDTAB
  0
TABLE
  2
LTYPE
  5
22
330
0
100
AcDbSymbolTable
 70
     1
  0
LTYPE
  5
23
330
21
100
AcDbSymbolTableRecord
100
AcDbLinetypeTableRecord
  2
BYBLOCK
 70
     0
  3

 72
    65
 73
     0
 40
0.0
  0
LTYPE
  5
24
330
21
100
AcDbSymbolTableRecord
100
AcDbLinetypeTableRecord
  2
BYLAYER
 70
     0
  3

 72
    65
 73
     0
 40
0.0
  0
LTYPE
  5
25
330
21
100
AcDbSymbolTableRecord
100
AcDbLinetypeTableRecord
  2
CONTINUOUS
 70
     0
  3
Solid line
 72
    65
 73
     0
 40
0.0
  0
ENDTAB
  0
TABLE
  2
LAYER
  5
A4B
330
0
100
AcDbSymbolTable
 70
3
  0
LAYER
  5
A4C
330
A4B
100
AcDbSymbolTableRecord
100
AcDbLayerTableRecord
  2
0
 70
   0
 62
   7
  6
CONTINUOUS
  0
LAYER
  5
A4D
330
A4B
100
AcDbSymbolTableRecord
100
AcDbLayerTableRecord
  2
none
 70
    0
 62
    7
  6
CONTINUOUS
  0
LAYER
  5
A4E
330
A4B
100
AcDbSymbolTableRecord
100
AcDbLayerTableRecord
  2
Sketch
 70
    0
 62
    7
  6
CONTINUOUS
  0
ENDTAB
  0
TABLE
  2
STYLE
  5
70
330
0
100
AcDbSymbolTable
 70
     2
  0
STYLE
  5
71
330
70
100
AcDbSymbolTableRecord
100
AcDbTextStyleTableRecord
  2
STANDARD
 70
     0
 40
0.0
 41
1.0
 50
0.0
 71
     0
 42
2.5
  3
arial.ttf
  4

  0
STYLE
  5
72
330
70
100
AcDbSymbolTableRecord
100
AcDbTextStyleTableRecord
  2
ANNOTATIVE
 70
     0
 40
0.0
 41
1.0
 50
0.0
 71
     0
 42
2.5
  3
arial.ttf
  4

  0
ENDTAB
  0
TABLE
  2
VIEW
  5
73
330
0
100
AcDbSymbolTable
 70
     0
  0
ENDTAB
  0
TABLE
  2
UCS
  5
74
330
0
100
AcDbSymbolTable
 70
     0
  0
ENDTAB
  0
TABLE
  2
APPID
  5
75
330
0
100
AcDbSymbolTable
 70
     2
  0
APPID
  5
76
330
75
100
AcDbSymbolTableRecord
100
AcDbRegAppTableRecord
  2
ACAD
 70
     0
  0
APPID
  5
77
330
75
100
AcDbSymbolTableRecord
100
AcDbRegAppTableRecord
  2
ACADANNOTATIVE
 70
     0
  0
ENDTAB
  0
TABLE
  2
DIMSTYLE
  5
78
330
0
100
AcDbSymbolTable
 70
     2
  0
DIMSTYLE
105
79
330
78
100
AcDbSymbolTableRecord
100
AcDbDimStyleTableRecord
  2
STANDARD
 70
     0
  3

  4

  5

  6

  7

 40
0.0
 41
2.5
 42
0.625
 43
3.75
 44
1.25
 45
0.0
 46
0.0
 47
0.0
 48
0.0
140
2.5
141
2.5
142
0.0
143
0.03937007874016
144
1.0
145
0.0
146
1.0
147
0.625
 71
     0
 72
     0
 73
     0
 74
     0
 75
     0
 76
     0
 77
     1
 78
     8
170
     0
171
     3
172
     1
173
     0
174
     0
175
     0
176
     0
177
     0
178
     0
270
     2
271
     2
272
     2
273
     2
274
     3
340
71
275
     0
280
     0
281
     0
282
     0
283
     0
284
     8
285
     0
286
     0
287
     3
288
     0
  0
ENDTAB
  0
TABLE
  2
BLOCK_RECORD
  5
A01
330
0
100
AcDbSymbolTable
  70
5
  0
BLOCK_RECORD
  5
A02
330
A01
100
AcDbSymbolTableRecord
100
AcDbBlockTableRecord
  2
*MODEL_SPACE
  0
BLOCK_RECORD
  5
A03
330
A01
100
AcDbSymbolTableRecord
100
AcDbBlockTableRecord
  2
*PAPER_SPACE
  0
ENDTAB
  0
ENDSEC
  0
SECTION
  2
BLOCKS
  0
BLOCK
  5
A04
330
A02
100
AcDbEntity
  8
0
100
AcDbBlockBegin
  2
*MODEL_SPACE
 70
   0
 10
0
 20
0
 30
0
  3
*MODEL_SPACE
  1
 
  0
ENDBLK
  5
A05
330
A02
100
AcDbEntity
  8
0
100
AcDbBlockEnd
  0
BLOCK
  5
A06
330
A03
100
AcDbEntity
 67
1
  8
0
100
AcDbBlockBegin
  2
*PAPER_SPACE
 70
   0
 10
0
 20
0
 30
0
  3
*PAPER_SPACE
  1
 
  0
ENDBLK
  5
A07
330
A03
100
AcDbEntity
 67
    1
  8
0
100
AcDbBlockEnd
  0
ENDSEC
  0
SECTION
  2
ENTITIES
  0
ARC
  5
A08
330
A02
100
AcDbEntity
  8
Sketch
100
AcDbCircle
 10
3
 20
-3
 30
0
 40
3
100
AcDbArc
 50
90
 51
180
  0
LINE
  5
A09
330
A02
100
AcDbEntity
  8
Sketch
100
AcDbLine
 10
0
 20
-3
 30
0
 11
0
 21
-13
 31
0
  0
ARC
  5
A0A
330
A02
100
AcDbEntity
  8
Sketch
100
AcDbCircle
 10
3
 20
-13
 30
0
 40
3
100
AcDbArc
 50
180
 51
-142.124
  0
LINE
  5
A0B
330
A02
100
AcDbEntity
  8
Sketch
100
AcDbLine
 10
0.63198
 20
-14.8419
 30
0
 11
3.74487
 21
-18.844
 31
0
  0
ARC
  5
A0C
330
A02
100
AcDbEntity
  8
Sketch
100
AcDbCircle
 10
6.11289
 20
-17.0021
 30
0
 40
3
100
AcDbArc
 50
-142.124
 51
-92.1566
  0
LINE
  5
A0D
330
A02
100
AcDbEntity
  8
Sketch
100
AcDbLine
 10
6
 20
-20
 30
0
 11
13
 21
-20.2636
 31
0
  0
ARC
  5
A0E
330
A02
100
AcDbEntity
  8
Sketch
100
AcDbCircle
 10
11.4948
 20
-60.2353
 30
0
 40
40
100
AcDbArc
 50
49.8808
 51
87.8434
  0
ARC
  5
A0F
330
A02
100
AcDbEntity
  8
Sketch
100
AcDbCircle
 10
38.2365
 20
-28.5
 30
0
 40
1.5
100
AcDbArc
 50
-130.119
 51
-45
  0
LINE
  5
A10
330
A02
100
AcDbEntity
  8
Sketch
100
AcDbLine
 10
44.636
 20
-24.2218
 30
0
 11
39.2972
 21
-29.5607
 31
0
  0
ARC
  5
A11
330
A02
100
AcDbEntity
  8
Sketch
100
AcDbCircle
 10
50
 20
-29.5858
 30
0
 40
7.58579
100
AcDbArc
 50
45
 51
135
  0
LINE
  5
A12
330
A02
100
AcDbEntity
  8
Sketch
100
AcDbLine
 10
55.364
 20
-24.2218
 30
0
 11
60.7028
 21
-29.5607
 31
0
  0
ARC
  5
A13
330
A02
100
AcDbEntity
  8
Sketch
100
AcDbCircle
 10
61.7635
 20
-28.5
 30
0
 40
1.5
100
AcDbArc
 50
-135
 51
-90
  0
LINE
  5
A14
330
A02
100
AcDbEntity
  8
Sketch
100
AcDbLine
 10
61.7635
 20
-30
 30
0
 11
75.5
 21
-30
 31
0
  0
ARC
  5
A15
330
A02
100
AcDbEntity
  8
Sketch
100
AcDbCircle
 10
75.5
 20
-28
 30
0
 40
2
100
AcDbArc
 50
-90
 51
-65
  0
LINE
  5
A16
330
A02
100
AcDbEntity
  8
Sketch
100
AcDbLine
 10
76.3452
 20
-29.8126
 30
0
 11
78
 21
-29.041
 31
0
  0
LINE
  5
A17
330
A02
100
AcDbEntity
  8
Sketch
100
AcDbLine
 10
78
 20
-29.041
 30
0
 11
79.6548
 21
-29.8126
 31
0
  0
ARC
  5
A18
330
A02
100
AcDbEntity
  8
Sketch
100
AcDbCircle
 10
80.5
 20
-28
 30
0
 40
2
100
AcDbArc
 50
-115
 51
-90
  0
LINE
  5
A19
330
A02
100
AcDbEntity
  8
Sketch
100
AcDbLine
 10
80.5
 20
-30
 30
0
 11
85
 21
-30
 31
0
  0
ARC
  5
A1A
330
A02
100
AcDbEntity
  8
Sketch
100
AcDbCircle
 10
85
 20
-29
 30
0
 40
1
100
AcDbArc
 50
-90
 51
0
  0
LINE
  5
A1B
330
A02
100
AcDbEntity
  8
Sketch
100
AcDbLine
 10
86
 20
-29
 30
0
 11
86
 21
-24.5
 31
0
  0
ARC
  5
A1C
330
A02
100
AcDbEntity
  8
Sketch
100
AcDbCircle
 10
87
 20
-24.5
 30
0
 40
1
100
AcDbArc
 50
90
 51
180
  0
LINE
  5
A1D
330
A02
100
AcDbEntity
  8
Sketch
100
AcDbLine
 10
87
 20
-23.5
 30
0
 11
94.8579
 21
-23.5
 31
0
  0
LINE
  5
A1E
330
A02
100
AcDbEntity
  8
Sketch
100
AcDbLine
 10
94.8579
 20
-23.5
 30
0
 11
105
 21
-23.5
 31
0
  0
ARC
  5
A1F
330
A02
100
AcDbEntity
  8
Sketch
100
AcDbCircle
 10
105
 20
-21.5
 30
0
 40
2
100
AcDbArc
 50
-90
 51
-65
  0
LINE
  5
A20
330
A02
100
AcDbEntity
  8
Sketch
100
AcDbLine
 10
105.845
 20
-23.3126
 30
0
 11
107
 21
-22.7741
 31
0
  0
LINE
  5
A21
330
A02
100
AcDbEntity
  8
Sketch
100
AcDbLine
 10
107
 20
-22.7741
 30
0
 11
108.155
 21
-23.3126
 31
0
  0
ARC
  5
A22
330
A02
100
AcDbEntity
  8
Sketch
100
AcDbCircle
 10
109
 20
-21.5
 30
0
 40
2
100
AcDbArc
 50
-115
 51
-90
  0
LINE
  5
A23
330
A02
100
AcDbEntity
  8
Sketch
100
AcDbLine
 10
109
 20
-23.5
 30
0
 11
119.142
 21
-23.5
 31
0
  0
LINE
  5
A24
330
A02
100
AcDbEntity
  8
Sketch
100
AcDbLine
 10
119.142
 20
-23.5
 30
0
 11
120
 21
-23.5
 31
0
  0
ARC
  5
A25
330
A02
100
AcDbEntity
  8
Sketch
100
AcDbCircle
 10
120
 20
-22.5
 30
0
 40
1
100
AcDbArc
 50
-90
 51
0
  0
LINE
  5
A26
330
A02
100
AcDbEntity
  8
Sketch
100
AcDbLine
 10
121
 20
0
 30
0
 11
121
 21
-22.5
 31
0
  0
LINE
  5
A27
330
A02
100
AcDbEntity
  8
Sketch
100
AcDbLine
 10
118
 20
0
 30
0
 11
121
 21
0
 31
0
  0
LINE
  5
A28
330
A02
100
AcDbEntity
  8
Sketch
100
AcDbLine
 10
118
 20
0
 30
0
 11
118
 21
-1.5
 31
0
  0
LINE
  5
A29
330
A02
100
AcDbEntity
  8
Sketch
100
AcDbLine
 10
118
 20
-1.5
 30
0
 11
115
 21
-1.5
 31
0
  0
LINE
  5
A2A
330
A02
100
AcDbEntity
  8
Sketch
100
AcDbLine
 10
115
 20
-1.5
 30
0
 11
115
 21
0
 31
0
  0
LINE
  5
A2B
330
A02
100
AcDbEntity
  8
Sketch
100
AcDbLine
 10
115
 20
0
 30
0
 11
113
 21
0
 31
0
  0
ARC
  5
A2C
330
A02
100
AcDbEntity
  8
Sketch
100
AcDbCircle
 10
113
 20
-2
 30
0
 40
2
100
AcDbArc
 50
90
 51
115
  0
LINE
  5
A2D
330
A02
100
AcDbEntity
  8
Sketch
100
AcDbLine
 10
111
 20
-0.725859
 30
0
 11
112.155
 21
-0.187384
 31
0
  0
LINE
  5
A2E
330
A02
100
AcDbEntity
  8
Sketch
100
AcDbLine
 10
109.845
 20
-0.187384
 30
0
 11
111
 21
-0.725859
 31
0
  0
ARC
  5
A2F
330
A02
100
AcDbEntity
  8
Sketch
100
AcDbCircle
 10
109
 20
-2
 30
0
 40
2
100
AcDbArc
 50
65
 51
90
  0
LINE
  5
A30
330
A02
100
AcDbEntity
  8
Sketch
100
AcDbLine
 10
109
 20
0
 30
0
 11
107
 21
0
 31
0
  0
LINE
  5
A31
330
A02
100
AcDbEntity
  8
Sketch
100
AcDbLine
 10
107
 20
0
 30
0
 11
107
 21
-1.5
 31
0
  0
LINE
  5
A32
330
A02
100
AcDbEntity
  8
Sketch
100
AcDbLine
 10
107
 20
-1.5
 30
0
 11
104
 21
-1.5
 31
0
  0
LINE
  5
A33
330
A02
100
AcDbEntity
  8
Sketch
100
AcDbLine
 10
104
 20
-1.5
 30
0
 11
104
 21
0
 31
0
  0
LINE
  5
A34
330
A02
100
AcDbEntity
  8
Sketch
100
AcDbLine
 10
104
 20
0
 30
0
 11
97.4356
 21
0
 31
0
  0
ARC
  5
A35
330
A02
100
AcDbEntity
  8
Sketch
100
AcDbCircle
 10
97.4356
 20
-3
 30
0
 40
3
100
AcDbArc
 50
90
 51
139.294
  0
ARC
  5
A36
330
A02
100
AcDbEntity
  8
Sketch
100
AcDbCircle
 10
80
 20
12
 30
0
 40
20
100
AcDbArc
 50
-139.294
 51
-40.7057
  0
ARC
  5
A37
330
A02
100
AcDbEntity
  8
Sketch
100
AcDbCircle
 10
62.5644
 20
-3
 30
0
 40
3
100
AcDbArc
 50
40.7057
 51
90
  0
LINE
  5
A38
330
A02
100
AcDbEntity
  8
Sketch
100
AcDbLine
 10
52
 20
-9.9476e-14
 30
0
 11
62.5644
 21
0
 31
0
  0
ARC
  5
A39
330
A02
100
AcDbEntity
  8
Sketch
100
AcDbCircle
 10
52
 20
-2
 30
0
 40
2
100
AcDbArc
 50
90
 51
115
  0
LINE
  5
A3A
330
A02
100
AcDbEntity
  8
Sketch
100
AcDbLine
 10
51.1548
 20
-0.187384
 30
0
 11
50
 21
-0.725859
 31
0
  0
LINE
  5
A3B
330
A02
100
AcDbEntity
  8
Sketch
100
AcDbLine
 10
50
 20
-0.725859
 30
0
 11
48.8452
 21
-0.187384
 31
0
  0
ARC
  5
A3C
330
A02
100
AcDbEntity
  8
Sketch
100
AcDbCircle
 10
48
 20
-2
 30
0
 40
2
100
AcDbArc
 50
65
 51
90
  0
LINE
  5
A3D
330
A02
100
AcDbEntity
  8
Sketch
100
AcDbLine
 10
48
 20
-3.6e-15
 30
0
 11
46
 21
-3.6e-15
 31
0
  0
ARC
  5
A3E
330
A02
100
AcDbEntity
  8
Sketch
100
AcDbCircle
 10
46
 20
-0.5
 30
0
 40
0.5
100
AcDbArc
 50
90
 51
180
  0
LINE
  5
A3F
330
A02
100
AcDbEntity
  8
Sketch
100
AcDbLine
 10
45.5
 20
-1
 30
0
 11
45.5
 21
-0.5
 31
0
  0
ARC
  5
A40
330
A02
100
AcDbEntity
  8
Sketch
100
AcDbCircle
 10
45
 20
-1
 30
0
 40
0.5
100
AcDbArc
 50
-90
 51
-1.27222e-14
  0
LINE
  5
A41
330
A02
100
AcDbEntity
  8
Sketch
100
AcDbLine
 10
15
 20
-1.5
 30
0
 11
45
 21
-1.5
 31
0
  0
ARC
  5
A42
330
A02
100
AcDbEntity
  8
Sketch
100
AcDbCircle
 10
15
 20
-1
 30
0
 40
0.5
100
AcDbArc
 50
180
 51
-90
  0
LINE
  5
A43
330
A02
100
AcDbEntity
  8
Sketch
100
AcDbLine
 10
14.5
 20
-0.5
 30
0
 11
14.5
 21
-1
 31
0
  0
ARC
  5
A44
330
A02
100
AcDbEntity
  8
Sketch
100
AcDbCircle
 10
14
 20
-0.5
 30
0
 40
0.5
100
AcDbArc
 50
0
 51
90
  0
LINE
  5
A45
330
A02
100
AcDbEntity
  8
Sketch
100
AcDbLine
 10
12
 20
-1.16351e-13
 30
0
 11
14
 21
0
 31
0
  0
ARC
  5
A46
330
A02
100
AcDbEntity
  8
Sketch
100
AcDbCircle
 10
12
 20
-2
 30
0
 40
2
100
AcDbArc
 50
90
 51
115
  0
LINE
  5
A47
330
A02
100
AcDbEntity
  8
Sketch
100
AcDbLine
 10
10
 20
-0.725859
 30
0
 11
11.1548
 21
-0.187384
 31
0
  0
LINE
  5
A48
330
A02
100
AcDbEntity
  8
Sketch
100
AcDbLine
 10
8.84524
 20
-0.187384
 30
0
 11
10
 21
-0.725859
 31
0
  0
ARC
  5
A49
330
A02
100
AcDbEntity
  8
Sketch
100
AcDbCircle
 10
8
 20
-2
 30
0
 40
2
100
AcDbArc
 50
65
 51
90
  0
LINE
  5
A4A
330
A02
100
AcDbEntity
  8
Sketch
100
AcDbLine
 10
3
 20
0
 30
0
 11
8
 21
0
 31
0
  0
ENDSEC
  0
SECTION
  2
OBJECTS
  0
DICTIONARY
  5
F000
330
0
100
AcDbDictionary
  3
ACAD_GROUP
350
F001
  0
DICTIONARY
  5
F001
330
F000
100
AcDbDictionary
  0
ENDSEC
  0
EOF