999
FreeCAD v0.19 24267 +99 (Git)
  0
SECTION
  2
HEADER
  9
$ACADVER
  1
AC1014
  9
$ACADMAINTVER
 70
     9
  9
$DWGCODEPAGE
  3
ANSI_1252
  9
$TEXTSTYLE
  7
STANDARD
  9
$DIMSTYLE
  2
STANDARD
  9
$DIMTXSTY
  7
STANDARD
  9
$CMLSTYLE
  2
STANDARD
  9
$PEXTMAX
 10
50
 20
50
 30
50
  9
$PEXTMIN
 10
0
 20
0
 30
0
  9
$HANDSEED
  5
FFFF
  0
ENDSEC
  0
SECTION
  2
CLASSES
  0
CLASS
  1
ACDBDICTIONARYWDFLT
  2
AcDbDictionaryWithDefault
  3
ObjectDBX Classes
 90
        0
280
     0
281
     0
  0
CLASS
  1
XRECORD
  2
AcDbXrecord
  3
ObjectDBX Classes
 90
        0
280
     0
281
     0
  0
CLASS
  1
LWPOLYLINE
  2
AcDbPolyline
  3
ObjectDBX Classes
 90
        0
280
     0
281
     1
  0
ENDSEC
  0
SECTION
  2
TABLES
  0
TABLE
  2
VPORT
  5
20
330
0
100
AcDbSymbolTable
 70
     1
  0
VPORT
  5
21
330
20
100
AcDbSymbolTableRecord
100
AcDbViewportTableRecord
  2
*ACTIVE
 70
     0
  0
ENDTAB
  0
TABLE
  2
LTYPE
  5
22
330
0
100
AcDbSymbolTable
 70
     1
  0
LTYPE
  5
23
330
21
100
AcDbSymbolTableRecord
100
AcDbLinetypeTableRecord
  2
BYBLOCK
 70
     0
  3

 72
    65
 73
     0
 40
0.0
  0
LTYPE
  5
24
330
21
100
AcDbSymbolTableRecord
100
AcDbLinetypeTableRecord
  2
BYLAYER
 70
     0
  3

 72
    65
 73
     0
 40
0.0
  0
LTYPE
  5
25
330
21
100
AcDbSymbolTableRecord
100
AcDbLinetypeTableRecord
  2
CONTINUOUS
 70
     0
  3
Solid line
 72
    65
 73
     0
 40
0.0
  0
ENDTAB
  0
TABLE
  2
LAYER
  5
A74
330
0
100
AcDbSymbolTable
 70
3
  0
LAYER
  5
A75
330
A74
100
AcDbSymbolTableRecord
100
AcDbLayerTableRecord
  2
0
 70
   0
 62
   7
  6
CONTINUOUS
  0
LAYER
  5
A76
330
A74
100
AcDbSymbolTableRecord
100
AcDbLayerTableRecord
  2
none
 70
    0
 62
    7
  6
CONTINUOUS
  0
LAYER
  5
A77
330
A74
100
AcDbSymbolTableRecord
100
AcDbLayerTableRecord
  2
Sketch
 70
    0
 62
    7
  6
CONTINUOUS
  0
ENDTAB
  0
TABLE
  2
STYLE
  5
70
330
0
100
AcDbSymbolTable
 70
     2
  0
STYLE
  5
71
330
70
100
AcDbSymbolTableRecord
100
AcDbTextStyleTableRecord
  2
STANDARD
 70
     0
 40
0.0
 41
1.0
 50
0.0
 71
     0
 42
2.5
  3
arial.ttf
  4

  0
STYLE
  5
72
330
70
100
AcDbSymbolTableRecord
100
AcDbTextStyleTableRecord
  2
ANNOTATIVE
 70
     0
 40
0.0
 41
1.0
 50
0.0
 71
     0
 42
2.5
  3
arial.ttf
  4

  0
ENDTAB
  0
TABLE
  2
VIEW
  5
73
330
0
100
AcDbSymbolTable
 70
     0
  0
ENDTAB
  0
TABLE
  2
UCS
  5
74
330
0
100
AcDbSymbolTable
 70
     0
  0
ENDTAB
  0
TABLE
  2
APPID
  5
75
330
0
100
AcDbSymbolTable
 70
     2
  0
APPID
  5
76
330
75
100
AcDbSymbolTableRecord
100
AcDbRegAppTableRecord
  2
ACAD
 70
     0
  0
APPID
  5
77
330
75
100
AcDbSymbolTableRecord
100
AcDbRegAppTableRecord
  2
ACADANNOTATIVE
 70
     0
  0
ENDTAB
  0
TABLE
  2
DIMSTYLE
  5
78
330
0
100
AcDbSymbolTable
 70
     2
  0
DIMSTYLE
105
79
330
78
100
AcDbSymbolTableRecord
100
AcDbDimStyleTableRecord
  2
STANDARD
 70
     0
  3

  4

  5

  6

  7

 40
0.0
 41
2.5
 42
0.625
 43
3.75
 44
1.25
 45
0.0
 46
0.0
 47
0.0
 48
0.0
140
2.5
141
2.5
142
0.0
143
0.03937007874016
144
1.0
145
0.0
146
1.0
147
0.625
 71
     0
 72
     0
 73
     0
 74
     0
 75
     0
 76
     0
 77
     1
 78
     8
170
     0
171
     3
172
     1
173
     0
174
     0
175
     0
176
     0
177
     0
178
     0
270
     2
271
     2
272
     2
273
     2
274
     3
340
71
275
     0
280
     0
281
     0
282
     0
283
     0
284
     8
285
     0
286
     0
287
     3
288
     0
  0
ENDTAB
  0
TABLE
  2
BLOCK_RECORD
  5
A01
330
0
100
AcDbSymbolTable
  70
5
  0
BLOCK_RECORD
  5
A02
330
A01
100
AcDbSymbolTableRecord
100
AcDbBlockTableRecord
  2
*MODEL_SPACE
  0
BLOCK_RECORD
  5
A03
330
A01
100
AcDbSymbolTableRecord
100
AcDbBlockTableRecord
  2
*PAPER_SPACE
  0
ENDTAB
  0
ENDSEC
  0
SECTION
  2
BLOCKS
  0
BLOCK
  5
A04
330
A02
100
AcDbEntity
  8
0
100
AcDbBlockBegin
  2
*MODEL_SPACE
 70
   0
 10
0
 20
0
 30
0
  3
*MODEL_SPACE
  1
 
  0
ENDBLK
  5
A05
330
A02
100
AcDbEntity
  8
0
100
AcDbBlockEnd
  0
BLOCK
  5
A06
330
A03
100
AcDbEntity
 67
1
  8
0
100
AcDbBlockBegin
  2
*PAPER_SPACE
 70
   0
 10
0
 20
0
 30
0
  3
*PAPER_SPACE
  1
 
  0
ENDBLK
  5
A07
330
A03
100
AcDbEntity
 67
    1
  8
0
100
AcDbBlockEnd
  0
ENDSEC
  0
SECTION
  2
ENTITIES
  0
LINE
  5
A08
330
A02
100
AcDbEntity
  8
Sketch
100
AcDbLine
 10
178
 20
57
 30
0
 11
178
 21
45
 31
0
  0
ARC
  5
A09
330
A02
100
AcDbEntity
  8
Sketch
100
AcDbCircle
 10
223
 20
45
 30
0
 40
45
100
AcDbArc
 50
180
 51
-90
  0
LINE
  5
A0A
330
A02
100
AcDbEntity
  8
Sketch
100
AcDbLine
 10
223
 20
0
 30
0
 11
576
 21
0
 31
0
  0
ARC
  5
A0B
330
A02
100
AcDbEntity
  8
Sketch
100
AcDbCircle
 10
576
 20
45
 30
0
 40
45
100
AcDbArc
 50
-90
 51
-1.80938e-14
  0
LINE
  5
A0C
330
A02
100
AcDbEntity
  8
Sketch
100
AcDbLine
 10
621
 20
45
 30
0
 11
621
 21
128
 31
0
  0
ARC
  5
A0D
330
A02
100
AcDbEntity
  8
Sketch
100
AcDbCircle
 10
633
 20
128
 30
0
 40
12
100
AcDbArc
 50
90
 51
180
  0
LINE
  5
A0E
330
A02
100
AcDbEntity
  8
Sketch
100
AcDbLine
 10
633
 20
140
 30
0
 11
796
 21
140
 31
0
  0
ARC
  5
A0F
330
A02
100
AcDbEntity
  8
Sketch
100
AcDbCircle
 10
796
 20
136
 30
0
 40
4
100
AcDbArc
 50
0
 51
90
  0
LINE
  5
A10
330
A02
100
AcDbEntity
  8
Sketch
100
AcDbLine
 10
800
 20
-96
 30
0
 11
800
 21
136
 31
0
  0
ARC
  5
A11
330
A02
100
AcDbEntity
  8
Sketch
100
AcDbCircle
 10
796
 20
-96
 30
0
 40
4
100
AcDbArc
 50
-90
 51
0
  0
LINE
  5
A12
330
A02
100
AcDbEntity
  8
Sketch
100
AcDbLine
 10
796
 20
-100
 30
0
 11
-786
 21
-100
 31
0
  0
ARC
  5
A13
330
A02
100
AcDbEntity
  8
Sketch
100
AcDbCircle
 10
-786
 20
-96
 30
0
 40
4
100
AcDbArc
 50
180
 51
-90
  0
LINE
  5
A14
330
A02
100
AcDbEntity
  8
Sketch
100
AcDbLine
 10
-790
 20
136
 30
0
 11
-790
 21
-96
 31
0
  0
ARC
  5
A15
330
A02
100
AcDbEntity
  8
Sketch
100
AcDbCircle
 10
-786
 20
136
 30
0
 40
4
100
AcDbArc
 50
90
 51
180
  0
LINE
  5
A16
330
A02
100
AcDbEntity
  8
Sketch
100
AcDbLine
 10
-786
 20
140
 30
0
 11
-412
 21
140
 31
0
  0
ARC
  5
A17
330
A02
100
AcDbEntity
  8
Sketch
100
AcDbCircle
 10
-412
 20
50
 30
0
 40
90
100
AcDbArc
 50
56.8335
 51
90
  0
LINE
  5
A18
330
A02
100
AcDbEntity
  8
Sketch
100
AcDbLine
 10
-362.763
 20
125.338
 30
0
 11
-311.237
 21
91.6625
 31
0
  0
ARC
  5
A19
330
A02
100
AcDbEntity
  8
Sketch
100
AcDbCircle
 10
-262
 20
167
 30
0
 40
90
100
AcDbArc
 50
-123.167
 51
-90
  0
LINE
  5
A1A
330
A02
100
AcDbEntity
  8
Sketch
100
AcDbLine
 10
-262
 20
77
 30
0
 11
158
 21
77
 31
0
  0
ARC
  5
A1B
330
A02
100
AcDbEntity
  8
Sketch
100
AcDbCircle
 10
158
 20
57
 30
0
 40
20
100
AcDbArc
 50
0
 51
90
  0
CIRCLE
  5
A1C
330
A02
100
AcDbEntity
  8
Sketch
100
AcDbCircle
 10
-715
 20
50
 40
6.5
  0
CIRCLE
  5
A1D
330
A02
100
AcDbEntity
  8
Sketch
100
AcDbCircle
 10
-665
 20
33
 40
6.5
  0
CIRCLE
  5
A1E
330
A02
100
AcDbEntity
  8
Sketch
100
AcDbCircle
 10
-715
 20
-26
 40
6.5
  0
CIRCLE
  5
A1F
330
A02
100
AcDbEntity
  8
Sketch
100
AcDbCircle
 10
-307.5
 20
-26
 40
6.5
  0
CIRCLE
  5
A20
330
A02
100
AcDbEntity
  8
Sketch
100
AcDbCircle
 10
-307.5
 20
-74
 40
6.5
  0
CIRCLE
  5
A21
330
A02
100
AcDbEntity
  8
Sketch
100
AcDbCircle
 10
2.29e-14
 20
-74
 40
6.5
  0
CIRCLE
  5
A22
330
A02
100
AcDbEntity
  8
Sketch
100
AcDbCircle
 10
2.29e-14
 20
-26
 40
6.5
  0
CIRCLE
  5
A23
330
A02
100
AcDbEntity
  8
Sketch
100
AcDbCircle
 10
307.5
 20
-74
 40
6.5
  0
CIRCLE
  5
A24
330
A02
100
AcDbEntity
  8
Sketch
100
AcDbCircle
 10
307.5
 20
-26
 40
6.5
  0
CIRCLE
  5
A25
330
A02
100
AcDbEntity
  8
Sketch
100
AcDbCircle
 10
715
 20
-26
 40
6.5
  0
CIRCLE
  5
A26
330
A02
100
AcDbEntity
  8
Sketch
100
AcDbCircle
 10
715
 20
-74
 40
6.5
  0
CIRCLE
  5
A27
330
A02
100
AcDbEntity
  8
Sketch
100
AcDbCircle
 10
307.5
 20
-50
 40
3
  0
CIRCLE
  5
A28
330
A02
100
AcDbEntity
  8
Sketch
100
AcDbCircle
 10
-307.5
 20
-50
 40
3
  0
CIRCLE
  5
A29
330
A02
100
AcDbEntity
  8
Sketch
100
AcDbCircle
 10
-715
 20
-74
 40
6.5
  0
ARC
  5
A2A
330
A02
100
AcDbEntity
  8
Sketch
100
AcDbCircle
 10
688.244
 20
127.3
 30
0
 40
7
100
AcDbArc
 50
-121.4
 51
-90
  0
LINE
  5
A2B
330
A02
100
AcDbEntity
  8
Sketch
100
AcDbLine
 10
688.244
 20
120.3
 30
0
 11
689.056
 21
120.3
 31
0
  0
ARC
  5
A2C
330
A02
100
AcDbEntity
  8
Sketch
100
AcDbCircle
 10
689.056
 20
127.3
 30
0
 40
7
100
AcDbArc
 50
-90
 51
-58.6003
  0
ARC
  5
A2D
330
A02
100
AcDbEntity
  8
Sketch
100
AcDbCircle
 10
696.35
 20
115.35
 30
0
 40
7
100
AcDbArc
 50
-31.3997
 51
121.4
  0
ARC
  5
A2E
330
A02
100
AcDbEntity
  8
Sketch
100
AcDbCircle
 10
708.3
 20
108.056
 30
0
 40
7
100
AcDbArc
 50
148.6
 51
180
  0
LINE
  5
A2F
330
A02
100
AcDbEntity
  8
Sketch
100
AcDbLine
 10
701.3
 20
108.056
 30
0
 11
701.3
 21
91.9438
 31
0
  0
ARC
  5
A30
330
A02
100
AcDbEntity
  8
Sketch
100
AcDbCircle
 10
708.3
 20
91.9438
 30
0
 40
7
100
AcDbArc
 50
180
 51
-148.6
  0
ARC
  5
A31
330
A02
100
AcDbEntity
  8
Sketch
100
AcDbCircle
 10
696.35
 20
84.6497
 30
0
 40
7
100
AcDbArc
 50
-121.4
 51
31.3997
  0
ARC
  5
A32
330
A02
100
AcDbEntity
  8
Sketch
100
AcDbCircle
 10
689.056
 20
72.7
 30
0
 40
7
100
AcDbArc
 50
58.6003
 51
90
  0
LINE
  5
A33
330
A02
100
AcDbEntity
  8
Sketch
100
AcDbLine
 10
689.056
 20
79.7
 30
0
 11
688.244
 21
79.7
 31
0
  0
ARC
  5
A34
330
A02
100
AcDbEntity
  8
Sketch
100
AcDbCircle
 10
688.244
 20
72.7
 30
0
 40
7
100
AcDbArc
 50
90
 51
121.4
  0
ARC
  5
A35
330
A02
100
AcDbEntity
  8
Sketch
100
AcDbCircle
 10
680.95
 20
84.6497
 30
0
 40
7
100
AcDbArc
 50
148.6
 51
-58.6003
  0
ARC
  5
A36
330
A02
100
AcDbEntity
  8
Sketch
100
AcDbCircle
 10
669
 20
91.9438
 30
0
 40
7
100
AcDbArc
 50
-31.3997
 51
0
  0
LINE
  5
A37
330
A02
100
AcDbEntity
  8
Sketch
100
AcDbLine
 10
676
 20
91.9438
 30
0
 11
676
 21
108.056
 31
0
  0
ARC
  5
A38
330
A02
100
AcDbEntity
  8
Sketch
100
AcDbCircle
 10
669
 20
108.056
 30
0
 40
7
100
AcDbArc
 50
0
 51
31.3997
  0
ARC
  5
A39
330
A02
100
AcDbEntity
  8
Sketch
100
AcDbCircle
 10
680.95
 20
115.35
 30
0
 40
7
100
AcDbArc
 50
58.6003
 51
-148.6
  0
CIRCLE
  5
A3A
330
A02
100
AcDbEntity
  8
Sketch
100
AcDbCircle
 10
-430
 20
130
 40
3
  0
CIRCLE
  5
A3B
330
A02
100
AcDbEntity
  8
Sketch
100
AcDbCircle
 10
-430
 20
71
 40
3
  0
CIRCLE
  5
A3C
330
A02
100
AcDbEntity
  8
Sketch
100
AcDbCircle
 10
615
 20
-26
 40
6.5
  0
CIRCLE
  5
A3D
330
A02
100
AcDbEntity
  8
Sketch
100
AcDbCircle
 10
665
 20
-26
 40
6.5
  0
CIRCLE
  5
A3E
330
A02
100
AcDbEntity
  8
Sketch
100
AcDbCircle
 10
615
 20
-74
 40
6.5
  0
CIRCLE
  5
A3F
330
A02
100
AcDbEntity
  8
Sketch
100
AcDbCircle
 10
665
 20
-74
 40
6.5
  0
CIRCLE
  5
A40
330
A02
100
AcDbEntity
  8
Sketch
100
AcDbCircle
 10
2.29e-14
 20
-50
 40
3
  0
CIRCLE
  5
A41
330
A02
100
AcDbEntity
  8
Sketch
100
AcDbCircle
 10
790
 20
-50
 40
3
  0
CIRCLE
  5
A42
330
A02
100
AcDbEntity
  8
Sketch
100
AcDbCircle
 10
742
 20
125
 40
6.5
  0
CIRCLE
  5
A43
330
A02
100
AcDbEntity
  8
Sketch
100
AcDbCircle
 10
765
 20
113
 40
6.5
  0
CIRCLE
  5
A44
330
A02
100
AcDbEntity
  8
Sketch
100
AcDbCircle
 10
765
 20
87
 40
6.5
  0
CIRCLE
  5
A45
330
A02
100
AcDbEntity
  8
Sketch
100
AcDbCircle
 10
742
 20
75
 40
6.5
  0
CIRCLE
  5
A46
330
A02
100
AcDbEntity
  8
Sketch
100
AcDbCircle
 10
-665
 20
-74
 40
6.5
  0
CIRCLE
  5
A47
330
A02
100
AcDbEntity
  8
Sketch
100
AcDbCircle
 10
-615
 20
-74
 40
6.5
  0
CIRCLE
  5
A48
330
A02
100
AcDbEntity
  8
Sketch
100
AcDbCircle
 10
-665
 20
-26
 40
6.5
  0
CIRCLE
  5
A49
330
A02
100
AcDbEntity
  8
Sketch
100
AcDbCircle
 10
-615
 20
-26
 40
6.5
  0
CIRCLE
  5
A4A
330
A02
100
AcDbEntity
  8
Sketch
100
AcDbCircle
 10
-396.782
 20
53.2
 40
4.5
  0
CIRCLE
  5
A4B
330
A02
100
AcDbEntity
  8
Sketch
100
AcDbCircle
 10
5.218
 20
53.2
 40
4.5
  0
CIRCLE
  5
A4C
330
A02
100
AcDbEntity
  8
Sketch
100
AcDbCircle
 10
45.218
 20
53.2
 40
4.5
  0
CIRCLE
  5
A4D
330
A02
100
AcDbEntity
  8
Sketch
100
AcDbCircle
 10
85.218
 20
53.2
 40
4.5
  0
CIRCLE
  5
A4E
330
A02
100
AcDbEntity
  8
Sketch
100
AcDbCircle
 10
125.218
 20
53.2
 40
4.5
  0
ARC
  5
A4F
330
A02
100
AcDbEntity
  8
Sketch
100
AcDbCircle
 10
738.898
 20
108.2
 30
0
 40
2
100
AcDbArc
 50
-121.4
 51
-90
  0
LINE
  5
A50
330
A02
100
AcDbEntity
  8
Sketch
100
AcDbLine
 10
738.898
 20
106.2
 30
0
 11
745.102
 21
106.2
 31
0
  0
ARC
  5
A51
330
A02
100
AcDbEntity
  8
Sketch
100
AcDbCircle
 10
745.102
 20
108.2
 30
0
 40
2
100
AcDbArc
 50
-90
 51
-58.6003
  0
ARC
  5
A52
330
A02
100
AcDbEntity
  8
Sketch
100
AcDbCircle
 10
747.186
 20
104.786
 30
0
 40
2
100
AcDbArc
 50
-31.3997
 51
121.4
  0
ARC
  5
A53
330
A02
100
AcDbEntity
  8
Sketch
100
AcDbCircle
 10
750.6
 20
102.702
 30
0
 40
2
100
AcDbArc
 50
148.6
 51
180
  0
LINE
  5
A54
330
A02
100
AcDbEntity
  8
Sketch
100
AcDbLine
 10
748.6
 20
102.702
 30
0
 11
748.6
 21
97.2982
 31
0
  0
ARC
  5
A55
330
A02
100
AcDbEntity
  8
Sketch
100
AcDbCircle
 10
750.6
 20
97.2982
 30
0
 40
2
100
AcDbArc
 50
180
 51
-148.6
  0
ARC
  5
A56
330
A02
100
AcDbEntity
  8
Sketch
100
AcDbCircle
 10
747.186
 20
95.2142
 30
0
 40
2
100
AcDbArc
 50
-121.4
 51
31.3997
  0
ARC
  5
A57
330
A02
100
AcDbEntity
  8
Sketch
100
AcDbCircle
 10
745.102
 20
91.8
 30
0
 40
2
100
AcDbArc
 50
58.6003
 51
90
  0
LINE
  5
A58
330
A02
100
AcDbEntity
  8
Sketch
100
AcDbLine
 10
745.102
 20
93.8
 30
0
 11
738.898
 21
93.8
 31
0
  0
ARC
  5
A59
330
A02
100
AcDbEntity
  8
Sketch
100
AcDbCircle
 10
738.898
 20
91.8
 30
0
 40
2
100
AcDbArc
 50
90
 51
121.4
  0
ARC
  5
A5A
330
A02
100
AcDbEntity
  8
Sketch
100
AcDbCircle
 10
736.814
 20
95.2142
 30
0
 40
2
100
AcDbArc
 50
148.6
 51
-58.6003
  0
ARC
  5
A5B
330
A02
100
AcDbEntity
  8
Sketch
100
AcDbCircle
 10
733.4
 20
97.2982
 30
0
 40
2
100
AcDbArc
 50
-31.3997
 51
0
  0
LINE
  5
A5C
330
A02
100
AcDbEntity
  8
Sketch
100
AcDbLine
 10
735.4
 20
97.2982
 30
0
 11
735.4
 21
102.702
 31
0
  0
ARC
  5
A5D
330
A02
100
AcDbEntity
  8
Sketch
100
AcDbCircle
 10
733.4
 20
102.702
 30
0
 40
2
100
AcDbArc
 50
0
 51
31.3997
  0
ARC
  5
A5E
330
A02
100
AcDbEntity
  8
Sketch
100
AcDbCircle
 10
736.814
 20
104.786
 30
0
 40
2
100
AcDbArc
 50
58.6003
 51
-148.6
  0
CIRCLE
  5
A5F
330
A02
100
AcDbEntity
  8
Sketch
100
AcDbCircle
 10
790
 20
10
 40
3
  0
CIRCLE
  5
A60
330
A02
100
AcDbEntity
  8
Sketch
100
AcDbCircle
 10
790
 20
130
 40
3
  0
CIRCLE
  5
A61
330
A02
100
AcDbEntity
  8
Sketch
100
AcDbCircle
 10
-740
 20
-50
 40
3
  0
CIRCLE
  5
A62
330
A02
100
AcDbEntity
  8
Sketch
100
AcDbCircle
 10
-740
 20
10
 40
3.5
  0
CIRCLE
  5
A63
330
A02
100
AcDbEntity
  8
Sketch
100
AcDbCircle
 10
-740
 20
130
 40
3
  0
CIRCLE
  5
A64
330
A02
100
AcDbEntity
  8
Sketch
100
AcDbCircle
 10
387.5
 20
-26
 40
6.5
  0
CIRCLE
  5
A65
330
A02
100
AcDbEntity
  8
Sketch
100
AcDbCircle
 10
467.5
 20
-26
 40
6.5
  0
CIRCLE
  5
A66
330
A02
100
AcDbEntity
  8
Sketch
100
AcDbCircle
 10
547.5
 20
-26
 40
6.5
  0
CIRCLE
  5
A67
330
A02
100
AcDbEntity
  8
Sketch
100
AcDbCircle
 10
158
 20
62
 40
3
  0
CIRCLE
  5
A68
330
A02
100
AcDbEntity
  8
Sketch
100
AcDbCircle
 10
158
 20
10
 40
3
  0
CIRCLE
  5
A69
330
A02
100
AcDbEntity
  8
Sketch
100
AcDbCircle
 10
-770
 20
-74
 40
6.5
  0
CIRCLE
  5
A6A
330
A02
100
AcDbEntity
  8
Sketch
100
AcDbCircle
 10
-770
 20
114
 40
6.5
  0
CIRCLE
  5
A6B
330
A02
100
AcDbEntity
  8
Sketch
100
AcDbCircle
 10
-740
 20
30
 40
3
  0
CIRCLE
  5
A6C
330
A02
100
AcDbEntity
  8
Sketch
100
AcDbCircle
 10
-770
 20
20
 40
6.5
  0
CIRCLE
  5
A6D
330
A02
100
AcDbEntity
  8
Sketch
100
AcDbCircle
 10
-405
 20
125
 40
4.5
  0
CIRCLE
  5
A6E
330
A02
100
AcDbEntity
  8
Sketch
100
AcDbCircle
 10
688.8
 20
30
 40
6.5
  0
CIRCLE
  5
A6F
330
A02
100
AcDbEntity
  8
Sketch
100
AcDbCircle
 10
-265.282
 20
71
 40
3.5
  0
CIRCLE
  5
A70
330
A02
100
AcDbEntity
  8
Sketch
100
AcDbCircle
 10
-215.282
 20
71
 40
3.5
  0
CIRCLE
  5
A71
330
A02
100
AcDbEntity
  8
Sketch
100
AcDbCircle
 10
615
 20
-50
 40
3
  0
CIRCLE
  5
A72
330
A02
100
AcDbEntity
  8
Sketch
100
AcDbCircle
 10
-615
 20
-50
 40
3
  0
CIRCLE
  5
A73
330
A02
100
AcDbEntity
  8
Sketch
100
AcDbCircle
 10
-690
 20
100
 40
6.5
  0
ENDSEC
  0
SECTION
  2
OBJECTS
  0
DICTIONARY
  5
F000
330
0
100
AcDbDictionary
  3
ACAD_GROUP
350
F001
  0
DICTIONARY
  5
F001
330
F000
100
AcDbDictionary
  0
ENDSEC
  0
EOF