M48
; DRILL file {KiCad 6.0.1-79c1e3a40b~116~ubuntu20.04.1} date Thu 20 Jan 2022 00:27:23 GMT
; FORMAT={-:-/ absolute / inch / decimal}
; #@! TF.CreationDate,2022-01-20T00:27:23+00:00
; #@! TF.GenerationSoftware,Kicad,Pcbnew,6.0.1-79c1e3a40b~116~ubuntu20.04.1
; #@! TF.FileFunction,Plated,1,2,PTH
FMAT,2
INCH
; #@! TA.AperFunction,Plated,PTH,ViaDrill
T1C0.0157
; #@! TA.AperFunction,Plated,PTH,ComponentDrill
T2C0.0295
; #@! TA.AperFunction,Plated,PTH,ComponentDrill
T3C0.0300
; #@! TA.AperFunction,Plated,PTH,ComponentDrill
T4C0.0315
; #@! TA.AperFunction,Plated,PTH,ComponentDrill
T5C0.0394
; #@! TA.AperFunction,Plated,PTH,ComponentDrill
T6C0.0433
; #@! TA.AperFunction,Plated,PTH,ComponentDrill
T7C0.0591
; #@! TA.AperFunction,Plated,PTH,ComponentDrill
T8C0.0709
; #@! TA.AperFunction,Plated,PTH,ComponentDrill
T9C0.1299
; #@! TA.AperFunction,Plated,PTH,ComponentDrill
T10C0.1378
%
G90
G05
T1
X4.39Y-3.5
X4.39Y-3.72
X4.4Y-3.02
X4.55Y-2.535
X4.625Y-2.93
X4.645Y-2.135
X4.725Y-2.34
X4.84Y-4.83
X4.945Y-3.36
X4.95Y-2.935
X4.98Y-3.88
X5.005Y-2.885
X5.01Y-2.34
X5.06Y-2.835
X5.115Y-2.735
X5.115Y-2.775
X5.18Y-3.105
X5.205Y-4.67
X5.205Y-4.77
X5.23Y-3.36
X5.24Y-3.875
X5.31Y-2.33
X5.425Y-2.645
X5.47Y-3.36
X5.47Y-3.875
X5.54Y-2.14
X5.595Y-3.165
X5.74Y-3.87
X5.78Y-2.875
X5.84Y-4.67
X5.94Y-4.77
X5.945Y-2.45
X5.95Y-4.455
X5.97Y-2.87
X6.085Y-3.87
X6.155Y-5.38
X6.165Y-3.355
X6.235Y-4.095
X6.24Y-5.38
X6.245Y-4.7
X6.3Y-4.405
X6.335Y-5.27
X6.335Y-5.38
X6.375Y-3.23
X6.375Y-5.32
X6.415Y-5.27
X6.415Y-5.38
X6.43Y-2.15
X6.48Y-3.945
X6.48Y-5.32
X6.485Y-3.0
X6.485Y-4.925
X6.52Y-2.51
X6.66Y-4.06
X6.66Y-4.51
X6.67Y-3.0
X6.72Y-5.155
X6.775Y-3.795
T2
X6.455Y-3.625
X6.505Y-3.625
X6.555Y-3.625
T3
X4.545Y-3.245
X4.545Y-4.045
X4.545Y-4.345
X4.545Y-4.445
X4.645Y-3.245
X4.645Y-4.045
X4.645Y-4.345
X4.745Y-3.245
X4.745Y-4.345
X4.845Y-3.245
X4.845Y-4.345
X4.945Y-3.245
X4.945Y-4.345
X5.475Y-3.645
X5.525Y-4.345
X5.525Y-4.445
X5.575Y-3.645
X5.625Y-4.345
X5.675Y-3.645
X5.725Y-4.345
X5.775Y-3.645
X5.825Y-4.345
X5.875Y-3.645
X5.925Y-4.345
X5.975Y-3.645
X6.025Y-4.345
X6.075Y-3.645
T4
X4.35Y-2.9281
X4.35Y-3.125
X4.455Y-2.935
X4.455Y-3.125
X4.855Y-2.935
X4.855Y-3.125
X5.2031Y-4.565
X5.4Y-4.565
X5.54Y-2.2631
X5.54Y-2.46
X6.22Y-4.895
X6.22Y-4.9934
X6.385Y-3.815
X6.385Y-4.215
X6.385Y-4.3231
X6.385Y-4.52
X6.425Y-4.835
X6.425Y-5.0319
X6.505Y-3.815
X6.505Y-4.215
X6.545Y-4.835
X6.545Y-5.0319
X6.625Y-3.815
X6.625Y-4.215
X6.755Y-4.2681
X6.755Y-4.465
X6.755Y-4.8966
X6.755Y-4.995
X6.775Y-3.4881
X6.775Y-3.685
X6.775Y-3.91
X6.775Y-4.1069
T5
X6.575Y-4.345
X6.575Y-4.445
T6
X4.84Y-5.16
X4.84Y-5.26
X4.94Y-5.16
X4.94Y-5.26
X5.04Y-5.16
X5.04Y-5.26
X5.14Y-5.16
X5.14Y-5.26
X5.24Y-5.16
X5.24Y-5.26
X5.34Y-5.16
X5.34Y-5.26
X5.44Y-5.16
X5.44Y-5.26
X5.54Y-5.16
X5.54Y-5.26
X5.64Y-5.16
X5.64Y-5.26
X5.74Y-5.16
X5.74Y-5.26
X5.84Y-5.16
X5.84Y-5.26
X5.94Y-5.16
X5.94Y-5.26
X6.04Y-5.16
X6.04Y-5.26
X6.14Y-5.16
X6.14Y-5.26
X6.24Y-5.16
X6.24Y-5.26
X6.515Y-3.31
X6.555Y-4.69
X6.615Y-3.31
X6.655Y-4.69
X6.715Y-3.31
X6.755Y-4.69
T7
X4.7147Y-2.53
X4.7147Y-2.7269
X4.8131Y-2.6284
X5.01Y-2.53
X5.01Y-2.7269
X5.2069Y-2.6284
X5.3053Y-2.53
X5.3053Y-2.7269
X5.7747Y-2.53
X5.7747Y-2.7269
X5.8731Y-2.6284
X6.07Y-2.53
X6.07Y-2.7269
X6.2669Y-2.6284
X6.3653Y-2.53
X6.3653Y-2.7269
T8
X4.9116Y-2.1363
X5.1084Y-2.1363
X5.9716Y-2.1363
X6.1684Y-2.1363
T9
X4.395Y-3.295
X4.395Y-4.295
X5.095Y-3.295
X5.095Y-4.295
X5.375Y-3.095
X5.375Y-4.295
X6.175Y-3.095
X6.175Y-4.295
T10
X4.345Y-2.715
X4.345Y-5.405
X6.735Y-2.715
X6.735Y-5.405
T0
M30
