%TF.GenerationSoftware,KiCad,Pcbnew,6.0.1-79c1e3a40b~116~ubuntu20.04.1*%
%TF.CreationDate,2022-01-20T00:26:33+00:00*%
%TF.ProjectId,Amplifier board,416d706c-6966-4696-9572-20626f617264,V1.0*%
%TF.SameCoordinates,Original*%
%TF.FileFunction,Legend,Bot*%
%TF.FilePolarity,Positive*%
%FSLAX46Y46*%
G04 Gerber Fmt 4.6, Leading zero omitted, Abs format (unit mm)*
G04 Created by KiCad (PCBNEW 6.0.1-79c1e3a40b~116~ubuntu20.04.1) date 2022-01-20 00:26:33*
%MOMM*%
%LPD*%
G01*
G04 APERTURE LIST*
%ADD10C,0.250000*%
G04 APERTURE END LIST*
D10*
X137507285Y-88348380D02*
X137507285Y-89157904D01*
X137459666Y-89253142D01*
X137412047Y-89300761D01*
X137316809Y-89348380D01*
X137126333Y-89348380D01*
X137031095Y-89300761D01*
X136983476Y-89253142D01*
X136935857Y-89157904D01*
X136935857Y-88348380D01*
X136507285Y-89300761D02*
X136364428Y-89348380D01*
X136126333Y-89348380D01*
X136031095Y-89300761D01*
X135983476Y-89253142D01*
X135935857Y-89157904D01*
X135935857Y-89062666D01*
X135983476Y-88967428D01*
X136031095Y-88919809D01*
X136126333Y-88872190D01*
X136316809Y-88824571D01*
X136412047Y-88776952D01*
X136459666Y-88729333D01*
X136507285Y-88634095D01*
X136507285Y-88538857D01*
X136459666Y-88443619D01*
X136412047Y-88396000D01*
X136316809Y-88348380D01*
X136078714Y-88348380D01*
X135935857Y-88396000D01*
X135507285Y-88824571D02*
X135173952Y-88824571D01*
X135031095Y-89348380D02*
X135507285Y-89348380D01*
X135507285Y-88348380D01*
X135031095Y-88348380D01*
X133840619Y-89348380D02*
X133840619Y-88348380D01*
X133364428Y-89348380D02*
X133364428Y-88348380D01*
X132793000Y-89348380D01*
X132793000Y-88348380D01*
X132364428Y-89300761D02*
X132221571Y-89348380D01*
X131983476Y-89348380D01*
X131888238Y-89300761D01*
X131840619Y-89253142D01*
X131793000Y-89157904D01*
X131793000Y-89062666D01*
X131840619Y-88967428D01*
X131888238Y-88919809D01*
X131983476Y-88872190D01*
X132173952Y-88824571D01*
X132269190Y-88776952D01*
X132316809Y-88729333D01*
X132364428Y-88634095D01*
X132364428Y-88538857D01*
X132316809Y-88443619D01*
X132269190Y-88396000D01*
X132173952Y-88348380D01*
X131935857Y-88348380D01*
X131793000Y-88396000D01*
X131364428Y-88348380D02*
X131364428Y-89157904D01*
X131316809Y-89253142D01*
X131269190Y-89300761D01*
X131173952Y-89348380D01*
X130983476Y-89348380D01*
X130888238Y-89300761D01*
X130840619Y-89253142D01*
X130793000Y-89157904D01*
X130793000Y-88348380D01*
X129840619Y-89348380D02*
X130316809Y-89348380D01*
X130316809Y-88348380D01*
X129554904Y-89062666D02*
X129078714Y-89062666D01*
X129650142Y-89348380D02*
X129316809Y-88348380D01*
X128983476Y-89348380D01*
X128793000Y-88348380D02*
X128221571Y-88348380D01*
X128507285Y-89348380D02*
X128507285Y-88348380D01*
X127888238Y-89348380D02*
X127888238Y-88348380D01*
X127412047Y-89348380D02*
X127412047Y-88348380D01*
X126840619Y-89348380D01*
X126840619Y-88348380D01*
X125840619Y-88396000D02*
X125935857Y-88348380D01*
X126078714Y-88348380D01*
X126221571Y-88396000D01*
X126316809Y-88491238D01*
X126364428Y-88586476D01*
X126412047Y-88776952D01*
X126412047Y-88919809D01*
X126364428Y-89110285D01*
X126316809Y-89205523D01*
X126221571Y-89300761D01*
X126078714Y-89348380D01*
X125983476Y-89348380D01*
X125840619Y-89300761D01*
X125793000Y-89253142D01*
X125793000Y-88919809D01*
X125983476Y-88919809D01*
X124316809Y-89729333D02*
X124364428Y-89681714D01*
X124459666Y-89538857D01*
X124507285Y-89443619D01*
X124554904Y-89300761D01*
X124602523Y-89062666D01*
X124602523Y-88872190D01*
X124554904Y-88634095D01*
X124507285Y-88491238D01*
X124459666Y-88396000D01*
X124364428Y-88253142D01*
X124316809Y-88205523D01*
X123935857Y-89348380D02*
X123935857Y-88348380D01*
X123459666Y-89253142D02*
X123412047Y-89300761D01*
X123459666Y-89348380D01*
X123507285Y-89300761D01*
X123459666Y-89253142D01*
X123459666Y-89348380D01*
X122983476Y-88824571D02*
X122650142Y-88824571D01*
X122507285Y-89348380D02*
X122983476Y-89348380D01*
X122983476Y-88348380D01*
X122507285Y-88348380D01*
X122078714Y-89253142D02*
X122031095Y-89300761D01*
X122078714Y-89348380D01*
X122126333Y-89300761D01*
X122078714Y-89253142D01*
X122078714Y-89348380D01*
X120840619Y-89348380D02*
X120840619Y-88348380D01*
X120269190Y-89348380D01*
X120269190Y-88348380D01*
X119602523Y-88872190D02*
X119602523Y-89348380D01*
X119935857Y-88348380D02*
X119602523Y-88872190D01*
X119269190Y-88348380D01*
X118459666Y-89348380D02*
X118935857Y-89348380D01*
X118935857Y-88348380D01*
X117935857Y-88348380D02*
X117745380Y-88348380D01*
X117650142Y-88396000D01*
X117554904Y-88491238D01*
X117507285Y-88681714D01*
X117507285Y-89015047D01*
X117554904Y-89205523D01*
X117650142Y-89300761D01*
X117745380Y-89348380D01*
X117935857Y-89348380D01*
X118031095Y-89300761D01*
X118126333Y-89205523D01*
X118173952Y-89015047D01*
X118173952Y-88681714D01*
X118126333Y-88491238D01*
X118031095Y-88396000D01*
X117935857Y-88348380D01*
X117078714Y-89348380D02*
X117078714Y-88348380D01*
X116507285Y-89348380D01*
X116507285Y-88348380D01*
X116126333Y-89729333D02*
X116078714Y-89681714D01*
X115983476Y-89538857D01*
X115935857Y-89443619D01*
X115888238Y-89300761D01*
X115840619Y-89062666D01*
X115840619Y-88872190D01*
X115888238Y-88634095D01*
X115935857Y-88491238D01*
X115983476Y-88396000D01*
X116078714Y-88253142D01*
X116126333Y-88205523D01*
X114269190Y-88824571D02*
X114602523Y-88824571D01*
X114602523Y-89348380D02*
X114602523Y-88348380D01*
X114126333Y-88348380D01*
X113793000Y-89062666D02*
X113316809Y-89062666D01*
X113888238Y-89348380D02*
X113554904Y-88348380D01*
X113221571Y-89348380D01*
X112935857Y-89300761D02*
X112793000Y-89348380D01*
X112554904Y-89348380D01*
X112459666Y-89300761D01*
X112412047Y-89253142D01*
X112364428Y-89157904D01*
X112364428Y-89062666D01*
X112412047Y-88967428D01*
X112459666Y-88919809D01*
X112554904Y-88872190D01*
X112745380Y-88824571D01*
X112840619Y-88776952D01*
X112888238Y-88729333D01*
X112935857Y-88634095D01*
X112935857Y-88538857D01*
X112888238Y-88443619D01*
X112840619Y-88396000D01*
X112745380Y-88348380D01*
X112507285Y-88348380D01*
X112364428Y-88396000D01*
X112078714Y-88348380D02*
X111507285Y-88348380D01*
X111793000Y-89348380D02*
X111793000Y-88348380D01*
X111173952Y-88824571D02*
X110840619Y-88824571D01*
X110697761Y-89348380D02*
X111173952Y-89348380D01*
X111173952Y-88348380D01*
X110697761Y-88348380D01*
X110269190Y-89348380D02*
X110269190Y-88348380D01*
X109697761Y-89348380D01*
X109697761Y-88348380D01*
X109221571Y-88824571D02*
X108888238Y-88824571D01*
X108745380Y-89348380D02*
X109221571Y-89348380D01*
X109221571Y-88348380D01*
X108745380Y-88348380D01*
X107745380Y-89348380D02*
X108078714Y-88872190D01*
X108316809Y-89348380D02*
X108316809Y-88348380D01*
X107935857Y-88348380D01*
X107840619Y-88396000D01*
X107793000Y-88443619D01*
X107745380Y-88538857D01*
X107745380Y-88681714D01*
X107793000Y-88776952D01*
X107840619Y-88824571D01*
X107935857Y-88872190D01*
X108316809Y-88872190D01*
X107364428Y-89300761D02*
X107221571Y-89348380D01*
X106983476Y-89348380D01*
X106888238Y-89300761D01*
X106840619Y-89253142D01*
X106793000Y-89157904D01*
X106793000Y-89062666D01*
X106840619Y-88967428D01*
X106888238Y-88919809D01*
X106983476Y-88872190D01*
X107173952Y-88824571D01*
X107269190Y-88776952D01*
X107316809Y-88729333D01*
X107364428Y-88634095D01*
X107364428Y-88538857D01*
X107316809Y-88443619D01*
X107269190Y-88396000D01*
X107173952Y-88348380D01*
X106935857Y-88348380D01*
X106793000Y-88396000D01*
X133031095Y-90434571D02*
X133364428Y-90434571D01*
X133364428Y-90958380D02*
X133364428Y-89958380D01*
X132888238Y-89958380D01*
X132316809Y-89958380D02*
X132126333Y-89958380D01*
X132031095Y-90006000D01*
X131935857Y-90101238D01*
X131888238Y-90291714D01*
X131888238Y-90625047D01*
X131935857Y-90815523D01*
X132031095Y-90910761D01*
X132126333Y-90958380D01*
X132316809Y-90958380D01*
X132412047Y-90910761D01*
X132507285Y-90815523D01*
X132554904Y-90625047D01*
X132554904Y-90291714D01*
X132507285Y-90101238D01*
X132412047Y-90006000D01*
X132316809Y-89958380D01*
X130888238Y-90958380D02*
X131221571Y-90482190D01*
X131459666Y-90958380D02*
X131459666Y-89958380D01*
X131078714Y-89958380D01*
X130983476Y-90006000D01*
X130935857Y-90053619D01*
X130888238Y-90148857D01*
X130888238Y-90291714D01*
X130935857Y-90386952D01*
X130983476Y-90434571D01*
X131078714Y-90482190D01*
X131459666Y-90482190D01*
X129697761Y-90958380D02*
X129697761Y-89958380D01*
X129364428Y-90672666D01*
X129031095Y-89958380D01*
X129031095Y-90958380D01*
X128364428Y-89958380D02*
X128173952Y-89958380D01*
X128078714Y-90006000D01*
X127983476Y-90101238D01*
X127935857Y-90291714D01*
X127935857Y-90625047D01*
X127983476Y-90815523D01*
X128078714Y-90910761D01*
X128173952Y-90958380D01*
X128364428Y-90958380D01*
X128459666Y-90910761D01*
X128554904Y-90815523D01*
X128602523Y-90625047D01*
X128602523Y-90291714D01*
X128554904Y-90101238D01*
X128459666Y-90006000D01*
X128364428Y-89958380D01*
X127507285Y-90958380D02*
X127507285Y-89958380D01*
X127269190Y-89958380D01*
X127126333Y-90006000D01*
X127031095Y-90101238D01*
X126983476Y-90196476D01*
X126935857Y-90386952D01*
X126935857Y-90529809D01*
X126983476Y-90720285D01*
X127031095Y-90815523D01*
X127126333Y-90910761D01*
X127269190Y-90958380D01*
X127507285Y-90958380D01*
X126507285Y-89958380D02*
X126507285Y-90767904D01*
X126459666Y-90863142D01*
X126412047Y-90910761D01*
X126316809Y-90958380D01*
X126126333Y-90958380D01*
X126031095Y-90910761D01*
X125983476Y-90863142D01*
X125935857Y-90767904D01*
X125935857Y-89958380D01*
X124983476Y-90958380D02*
X125459666Y-90958380D01*
X125459666Y-89958380D01*
X124650142Y-90434571D02*
X124316809Y-90434571D01*
X124173952Y-90958380D02*
X124650142Y-90958380D01*
X124650142Y-89958380D01*
X124173952Y-89958380D01*
X122650142Y-90434571D02*
X122507285Y-90482190D01*
X122459666Y-90529809D01*
X122412047Y-90625047D01*
X122412047Y-90767904D01*
X122459666Y-90863142D01*
X122507285Y-90910761D01*
X122602523Y-90958380D01*
X122983476Y-90958380D01*
X122983476Y-89958380D01*
X122650142Y-89958380D01*
X122554904Y-90006000D01*
X122507285Y-90053619D01*
X122459666Y-90148857D01*
X122459666Y-90244095D01*
X122507285Y-90339333D01*
X122554904Y-90386952D01*
X122650142Y-90434571D01*
X122983476Y-90434571D01*
X121793000Y-89958380D02*
X121602523Y-89958380D01*
X121507285Y-90006000D01*
X121412047Y-90101238D01*
X121364428Y-90291714D01*
X121364428Y-90625047D01*
X121412047Y-90815523D01*
X121507285Y-90910761D01*
X121602523Y-90958380D01*
X121793000Y-90958380D01*
X121888238Y-90910761D01*
X121983476Y-90815523D01*
X122031095Y-90625047D01*
X122031095Y-90291714D01*
X121983476Y-90101238D01*
X121888238Y-90006000D01*
X121793000Y-89958380D01*
X120983476Y-90672666D02*
X120507285Y-90672666D01*
X121078714Y-90958380D02*
X120745380Y-89958380D01*
X120412047Y-90958380D01*
X119507285Y-90958380D02*
X119840619Y-90482190D01*
X120078714Y-90958380D02*
X120078714Y-89958380D01*
X119697761Y-89958380D01*
X119602523Y-90006000D01*
X119554904Y-90053619D01*
X119507285Y-90148857D01*
X119507285Y-90291714D01*
X119554904Y-90386952D01*
X119602523Y-90434571D01*
X119697761Y-90482190D01*
X120078714Y-90482190D01*
X119078714Y-90958380D02*
X119078714Y-89958380D01*
X118840619Y-89958380D01*
X118697761Y-90006000D01*
X118602523Y-90101238D01*
X118554904Y-90196476D01*
X118507285Y-90386952D01*
X118507285Y-90529809D01*
X118554904Y-90720285D01*
X118602523Y-90815523D01*
X118697761Y-90910761D01*
X118840619Y-90958380D01*
X119078714Y-90958380D01*
X117316809Y-90958380D02*
X117316809Y-89958380D01*
X116983476Y-90672666D01*
X116650142Y-89958380D01*
X116650142Y-90958380D01*
X115983476Y-89958380D02*
X115793000Y-89958380D01*
X115697761Y-90006000D01*
X115602523Y-90101238D01*
X115554904Y-90291714D01*
X115554904Y-90625047D01*
X115602523Y-90815523D01*
X115697761Y-90910761D01*
X115793000Y-90958380D01*
X115983476Y-90958380D01*
X116078714Y-90910761D01*
X116173952Y-90815523D01*
X116221571Y-90625047D01*
X116221571Y-90291714D01*
X116173952Y-90101238D01*
X116078714Y-90006000D01*
X115983476Y-89958380D01*
X115126333Y-89958380D02*
X115126333Y-90767904D01*
X115078714Y-90863142D01*
X115031095Y-90910761D01*
X114935857Y-90958380D01*
X114745380Y-90958380D01*
X114650142Y-90910761D01*
X114602523Y-90863142D01*
X114554904Y-90767904D01*
X114554904Y-89958380D01*
X114078714Y-90958380D02*
X114078714Y-89958380D01*
X113507285Y-90958380D01*
X113507285Y-89958380D01*
X113173952Y-89958380D02*
X112602523Y-89958380D01*
X112888238Y-90958380D02*
X112888238Y-89958380D01*
X112269190Y-90958380D02*
X112269190Y-89958380D01*
X111793000Y-90958380D02*
X111793000Y-89958380D01*
X111221571Y-90958380D01*
X111221571Y-89958380D01*
X110221571Y-90006000D02*
X110316809Y-89958380D01*
X110459666Y-89958380D01*
X110602523Y-90006000D01*
X110697761Y-90101238D01*
X110745380Y-90196476D01*
X110793000Y-90386952D01*
X110793000Y-90529809D01*
X110745380Y-90720285D01*
X110697761Y-90815523D01*
X110602523Y-90910761D01*
X110459666Y-90958380D01*
X110364428Y-90958380D01*
X110221571Y-90910761D01*
X110173952Y-90863142D01*
X110173952Y-90529809D01*
X110364428Y-90529809D01*
X133102523Y-93178380D02*
X133102523Y-93987904D01*
X133054904Y-94083142D01*
X133007285Y-94130761D01*
X132912047Y-94178380D01*
X132721571Y-94178380D01*
X132626333Y-94130761D01*
X132578714Y-94083142D01*
X132531095Y-93987904D01*
X132531095Y-93178380D01*
X132102523Y-94130761D02*
X131959666Y-94178380D01*
X131721571Y-94178380D01*
X131626333Y-94130761D01*
X131578714Y-94083142D01*
X131531095Y-93987904D01*
X131531095Y-93892666D01*
X131578714Y-93797428D01*
X131626333Y-93749809D01*
X131721571Y-93702190D01*
X131912047Y-93654571D01*
X132007285Y-93606952D01*
X132054904Y-93559333D01*
X132102523Y-93464095D01*
X132102523Y-93368857D01*
X132054904Y-93273619D01*
X132007285Y-93226000D01*
X131912047Y-93178380D01*
X131673952Y-93178380D01*
X131531095Y-93226000D01*
X131102523Y-93654571D02*
X130769190Y-93654571D01*
X130626333Y-94178380D02*
X131102523Y-94178380D01*
X131102523Y-93178380D01*
X130626333Y-93178380D01*
X128864428Y-94083142D02*
X128912047Y-94130761D01*
X129054904Y-94178380D01*
X129150142Y-94178380D01*
X129293000Y-94130761D01*
X129388238Y-94035523D01*
X129435857Y-93940285D01*
X129483476Y-93749809D01*
X129483476Y-93606952D01*
X129435857Y-93416476D01*
X129388238Y-93321238D01*
X129293000Y-93226000D01*
X129150142Y-93178380D01*
X129054904Y-93178380D01*
X128912047Y-93226000D01*
X128864428Y-93273619D01*
X128245380Y-93178380D02*
X128054904Y-93178380D01*
X127959666Y-93226000D01*
X127864428Y-93321238D01*
X127816809Y-93511714D01*
X127816809Y-93845047D01*
X127864428Y-94035523D01*
X127959666Y-94130761D01*
X128054904Y-94178380D01*
X128245380Y-94178380D01*
X128340619Y-94130761D01*
X128435857Y-94035523D01*
X128483476Y-93845047D01*
X128483476Y-93511714D01*
X128435857Y-93321238D01*
X128340619Y-93226000D01*
X128245380Y-93178380D01*
X127388238Y-94178380D02*
X127388238Y-93178380D01*
X126816809Y-94178380D01*
X126816809Y-93178380D01*
X126340619Y-94178380D02*
X126340619Y-93178380D01*
X126102523Y-93178380D01*
X125959666Y-93226000D01*
X125864428Y-93321238D01*
X125816809Y-93416476D01*
X125769190Y-93606952D01*
X125769190Y-93749809D01*
X125816809Y-93940285D01*
X125864428Y-94035523D01*
X125959666Y-94130761D01*
X126102523Y-94178380D01*
X126340619Y-94178380D01*
X125340619Y-93178380D02*
X125340619Y-93987904D01*
X125293000Y-94083142D01*
X125245380Y-94130761D01*
X125150142Y-94178380D01*
X124959666Y-94178380D01*
X124864428Y-94130761D01*
X124816809Y-94083142D01*
X124769190Y-93987904D01*
X124769190Y-93178380D01*
X123721571Y-94083142D02*
X123769190Y-94130761D01*
X123912047Y-94178380D01*
X124007285Y-94178380D01*
X124150142Y-94130761D01*
X124245380Y-94035523D01*
X124293000Y-93940285D01*
X124340619Y-93749809D01*
X124340619Y-93606952D01*
X124293000Y-93416476D01*
X124245380Y-93321238D01*
X124150142Y-93226000D01*
X124007285Y-93178380D01*
X123912047Y-93178380D01*
X123769190Y-93226000D01*
X123721571Y-93273619D01*
X123435857Y-93178380D02*
X122864428Y-93178380D01*
X123150142Y-94178380D02*
X123150142Y-93178380D01*
X122531095Y-94178380D02*
X122531095Y-93178380D01*
X122197761Y-93178380D02*
X121864428Y-94178380D01*
X121531095Y-93178380D01*
X121197761Y-93654571D02*
X120864428Y-93654571D01*
X120721571Y-94178380D02*
X121197761Y-94178380D01*
X121197761Y-93178380D01*
X120721571Y-93178380D01*
X119245380Y-94559333D02*
X119293000Y-94511714D01*
X119388238Y-94368857D01*
X119435857Y-94273619D01*
X119483476Y-94130761D01*
X119531095Y-93892666D01*
X119531095Y-93702190D01*
X119483476Y-93464095D01*
X119435857Y-93321238D01*
X119388238Y-93226000D01*
X119293000Y-93083142D01*
X119245380Y-93035523D01*
X118864428Y-94178380D02*
X118864428Y-93178380D01*
X118388238Y-94083142D02*
X118340619Y-94130761D01*
X118388238Y-94178380D01*
X118435857Y-94130761D01*
X118388238Y-94083142D01*
X118388238Y-94178380D01*
X117912047Y-93654571D02*
X117578714Y-93654571D01*
X117435857Y-94178380D02*
X117912047Y-94178380D01*
X117912047Y-93178380D01*
X117435857Y-93178380D01*
X117007285Y-94083142D02*
X116959666Y-94130761D01*
X117007285Y-94178380D01*
X117054904Y-94130761D01*
X117007285Y-94083142D01*
X117007285Y-94178380D01*
X115816809Y-94130761D02*
X115673952Y-94178380D01*
X115435857Y-94178380D01*
X115340619Y-94130761D01*
X115293000Y-94083142D01*
X115245380Y-93987904D01*
X115245380Y-93892666D01*
X115293000Y-93797428D01*
X115340619Y-93749809D01*
X115435857Y-93702190D01*
X115626333Y-93654571D01*
X115721571Y-93606952D01*
X115769190Y-93559333D01*
X115816809Y-93464095D01*
X115816809Y-93368857D01*
X115769190Y-93273619D01*
X115721571Y-93226000D01*
X115626333Y-93178380D01*
X115388238Y-93178380D01*
X115245380Y-93226000D01*
X114959666Y-93178380D02*
X114388238Y-93178380D01*
X114673952Y-94178380D02*
X114673952Y-93178380D01*
X114054904Y-93654571D02*
X113721571Y-93654571D01*
X113578714Y-94178380D02*
X114054904Y-94178380D01*
X114054904Y-93178380D01*
X113578714Y-93178380D01*
X113150142Y-93654571D02*
X112816809Y-93654571D01*
X112673952Y-94178380D02*
X113150142Y-94178380D01*
X113150142Y-93178380D01*
X112673952Y-93178380D01*
X111769190Y-94178380D02*
X112245380Y-94178380D01*
X112245380Y-93178380D01*
X111531095Y-94559333D02*
X111483476Y-94511714D01*
X111388238Y-94368857D01*
X111340619Y-94273619D01*
X111293000Y-94130761D01*
X111245380Y-93892666D01*
X111245380Y-93702190D01*
X111293000Y-93464095D01*
X111340619Y-93321238D01*
X111388238Y-93226000D01*
X111483476Y-93083142D01*
X111531095Y-93035523D01*
X135221571Y-95264571D02*
X135554904Y-95264571D01*
X135554904Y-95788380D02*
X135554904Y-94788380D01*
X135078714Y-94788380D01*
X134745380Y-95502666D02*
X134269190Y-95502666D01*
X134840619Y-95788380D02*
X134507285Y-94788380D01*
X134173952Y-95788380D01*
X133888238Y-95740761D02*
X133745380Y-95788380D01*
X133507285Y-95788380D01*
X133412047Y-95740761D01*
X133364428Y-95693142D01*
X133316809Y-95597904D01*
X133316809Y-95502666D01*
X133364428Y-95407428D01*
X133412047Y-95359809D01*
X133507285Y-95312190D01*
X133697761Y-95264571D01*
X133793000Y-95216952D01*
X133840619Y-95169333D01*
X133888238Y-95074095D01*
X133888238Y-94978857D01*
X133840619Y-94883619D01*
X133793000Y-94836000D01*
X133697761Y-94788380D01*
X133459666Y-94788380D01*
X133316809Y-94836000D01*
X133031095Y-94788380D02*
X132459666Y-94788380D01*
X132745380Y-95788380D02*
X132745380Y-94788380D01*
X132126333Y-95264571D02*
X131793000Y-95264571D01*
X131650142Y-95788380D02*
X132126333Y-95788380D01*
X132126333Y-94788380D01*
X131650142Y-94788380D01*
X131221571Y-95788380D02*
X131221571Y-94788380D01*
X130650142Y-95788380D01*
X130650142Y-94788380D01*
X130173952Y-95264571D02*
X129840619Y-95264571D01*
X129697761Y-95788380D02*
X130173952Y-95788380D01*
X130173952Y-94788380D01*
X129697761Y-94788380D01*
X128697761Y-95788380D02*
X129031095Y-95312190D01*
X129269190Y-95788380D02*
X129269190Y-94788380D01*
X128888238Y-94788380D01*
X128793000Y-94836000D01*
X128745380Y-94883619D01*
X128697761Y-94978857D01*
X128697761Y-95121714D01*
X128745380Y-95216952D01*
X128793000Y-95264571D01*
X128888238Y-95312190D01*
X129269190Y-95312190D01*
X128316809Y-95740761D02*
X128173952Y-95788380D01*
X127935857Y-95788380D01*
X127840619Y-95740761D01*
X127793000Y-95693142D01*
X127745380Y-95597904D01*
X127745380Y-95502666D01*
X127793000Y-95407428D01*
X127840619Y-95359809D01*
X127935857Y-95312190D01*
X128126333Y-95264571D01*
X128221571Y-95216952D01*
X128269190Y-95169333D01*
X128316809Y-95074095D01*
X128316809Y-94978857D01*
X128269190Y-94883619D01*
X128221571Y-94836000D01*
X128126333Y-94788380D01*
X127888238Y-94788380D01*
X127745380Y-94836000D01*
X126221571Y-95264571D02*
X126554904Y-95264571D01*
X126554904Y-95788380D02*
X126554904Y-94788380D01*
X126078714Y-94788380D01*
X125507285Y-94788380D02*
X125316809Y-94788380D01*
X125221571Y-94836000D01*
X125126333Y-94931238D01*
X125078714Y-95121714D01*
X125078714Y-95455047D01*
X125126333Y-95645523D01*
X125221571Y-95740761D01*
X125316809Y-95788380D01*
X125507285Y-95788380D01*
X125602523Y-95740761D01*
X125697761Y-95645523D01*
X125745380Y-95455047D01*
X125745380Y-95121714D01*
X125697761Y-94931238D01*
X125602523Y-94836000D01*
X125507285Y-94788380D01*
X124078714Y-95788380D02*
X124412047Y-95312190D01*
X124650142Y-95788380D02*
X124650142Y-94788380D01*
X124269190Y-94788380D01*
X124173952Y-94836000D01*
X124126333Y-94883619D01*
X124078714Y-94978857D01*
X124078714Y-95121714D01*
X124126333Y-95216952D01*
X124173952Y-95264571D01*
X124269190Y-95312190D01*
X124650142Y-95312190D01*
X122888238Y-95788380D02*
X122888238Y-94788380D01*
X122554904Y-95502666D01*
X122221571Y-94788380D01*
X122221571Y-95788380D01*
X121554904Y-94788380D02*
X121364428Y-94788380D01*
X121269190Y-94836000D01*
X121173952Y-94931238D01*
X121126333Y-95121714D01*
X121126333Y-95455047D01*
X121173952Y-95645523D01*
X121269190Y-95740761D01*
X121364428Y-95788380D01*
X121554904Y-95788380D01*
X121650142Y-95740761D01*
X121745380Y-95645523D01*
X121793000Y-95455047D01*
X121793000Y-95121714D01*
X121745380Y-94931238D01*
X121650142Y-94836000D01*
X121554904Y-94788380D01*
X120697761Y-94788380D02*
X120697761Y-95597904D01*
X120650142Y-95693142D01*
X120602523Y-95740761D01*
X120507285Y-95788380D01*
X120316809Y-95788380D01*
X120221571Y-95740761D01*
X120173952Y-95693142D01*
X120126333Y-95597904D01*
X120126333Y-94788380D01*
X119650142Y-95788380D02*
X119650142Y-94788380D01*
X119078714Y-95788380D01*
X119078714Y-94788380D01*
X118745380Y-94788380D02*
X118173952Y-94788380D01*
X118459666Y-95788380D02*
X118459666Y-94788380D01*
X117840619Y-95788380D02*
X117840619Y-94788380D01*
X117364428Y-95788380D02*
X117364428Y-94788380D01*
X116793000Y-95788380D01*
X116793000Y-94788380D01*
X115793000Y-94836000D02*
X115888238Y-94788380D01*
X116031095Y-94788380D01*
X116173952Y-94836000D01*
X116269190Y-94931238D01*
X116316809Y-95026476D01*
X116364428Y-95216952D01*
X116364428Y-95359809D01*
X116316809Y-95550285D01*
X116269190Y-95645523D01*
X116173952Y-95740761D01*
X116031095Y-95788380D01*
X115935857Y-95788380D01*
X115793000Y-95740761D01*
X115745380Y-95693142D01*
X115745380Y-95359809D01*
X115935857Y-95359809D01*
X114697761Y-94788380D02*
X114126333Y-94788380D01*
X114412047Y-95788380D02*
X114412047Y-94788380D01*
X113793000Y-95788380D02*
X113793000Y-94788380D01*
X113793000Y-95264571D02*
X113221571Y-95264571D01*
X113221571Y-95788380D02*
X113221571Y-94788380D01*
X112745380Y-95788380D02*
X112745380Y-94788380D01*
X112316809Y-95740761D02*
X112173952Y-95788380D01*
X111935857Y-95788380D01*
X111840619Y-95740761D01*
X111793000Y-95693142D01*
X111745380Y-95597904D01*
X111745380Y-95502666D01*
X111793000Y-95407428D01*
X111840619Y-95359809D01*
X111935857Y-95312190D01*
X112126333Y-95264571D01*
X112221571Y-95216952D01*
X112269190Y-95169333D01*
X112316809Y-95074095D01*
X112316809Y-94978857D01*
X112269190Y-94883619D01*
X112221571Y-94836000D01*
X112126333Y-94788380D01*
X111888238Y-94788380D01*
X111745380Y-94836000D01*
X110554904Y-95788380D02*
X110554904Y-94788380D01*
X110173952Y-94788380D01*
X110078714Y-94836000D01*
X110031095Y-94883619D01*
X109983476Y-94978857D01*
X109983476Y-95121714D01*
X110031095Y-95216952D01*
X110078714Y-95264571D01*
X110173952Y-95312190D01*
X110554904Y-95312190D01*
X108983476Y-95693142D02*
X109031095Y-95740761D01*
X109173952Y-95788380D01*
X109269190Y-95788380D01*
X109412047Y-95740761D01*
X109507285Y-95645523D01*
X109554904Y-95550285D01*
X109602523Y-95359809D01*
X109602523Y-95216952D01*
X109554904Y-95026476D01*
X109507285Y-94931238D01*
X109412047Y-94836000D01*
X109269190Y-94788380D01*
X109173952Y-94788380D01*
X109031095Y-94836000D01*
X108983476Y-94883619D01*
X108221571Y-95264571D02*
X108078714Y-95312190D01*
X108031095Y-95359809D01*
X107983476Y-95455047D01*
X107983476Y-95597904D01*
X108031095Y-95693142D01*
X108078714Y-95740761D01*
X108173952Y-95788380D01*
X108554904Y-95788380D01*
X108554904Y-94788380D01*
X108221571Y-94788380D01*
X108126333Y-94836000D01*
X108078714Y-94883619D01*
X108031095Y-94978857D01*
X108031095Y-95074095D01*
X108078714Y-95169333D01*
X108126333Y-95216952D01*
X108221571Y-95264571D01*
X108554904Y-95264571D01*
X134650142Y-97398380D02*
X134650142Y-96398380D01*
X134173952Y-97398380D02*
X134173952Y-96398380D01*
X133602523Y-97398380D01*
X133602523Y-96398380D01*
X133269190Y-96398380D02*
X132697761Y-96398380D01*
X132983476Y-97398380D02*
X132983476Y-96398380D01*
X132173952Y-96398380D02*
X131983476Y-96398380D01*
X131888238Y-96446000D01*
X131793000Y-96541238D01*
X131745380Y-96731714D01*
X131745380Y-97065047D01*
X131793000Y-97255523D01*
X131888238Y-97350761D01*
X131983476Y-97398380D01*
X132173952Y-97398380D01*
X132269190Y-97350761D01*
X132364428Y-97255523D01*
X132412047Y-97065047D01*
X132412047Y-96731714D01*
X132364428Y-96541238D01*
X132269190Y-96446000D01*
X132173952Y-96398380D01*
X130602523Y-97112666D02*
X130126333Y-97112666D01*
X130697761Y-97398380D02*
X130364428Y-96398380D01*
X130031095Y-97398380D01*
X128935857Y-97398380D02*
X128935857Y-96398380D01*
X128602523Y-97112666D01*
X128269190Y-96398380D01*
X128269190Y-97398380D01*
X127793000Y-96874571D02*
X127459666Y-96874571D01*
X127316809Y-97398380D02*
X127793000Y-97398380D01*
X127793000Y-96398380D01*
X127316809Y-96398380D01*
X127031095Y-96398380D02*
X126459666Y-96398380D01*
X126745380Y-97398380D02*
X126745380Y-96398380D01*
X126173952Y-97112666D02*
X125697761Y-97112666D01*
X126269190Y-97398380D02*
X125935857Y-96398380D01*
X125602523Y-97398380D01*
X124793000Y-97398380D02*
X125269190Y-97398380D01*
X125269190Y-96398380D01*
X123983476Y-97398380D02*
X124459666Y-97398380D01*
X124459666Y-96398380D01*
X123650142Y-97398380D02*
X123650142Y-96398380D01*
X122602523Y-97303142D02*
X122650142Y-97350761D01*
X122793000Y-97398380D01*
X122888238Y-97398380D01*
X123031095Y-97350761D01*
X123126333Y-97255523D01*
X123173952Y-97160285D01*
X123221571Y-96969809D01*
X123221571Y-96826952D01*
X123173952Y-96636476D01*
X123126333Y-96541238D01*
X123031095Y-96446000D01*
X122888238Y-96398380D01*
X122793000Y-96398380D01*
X122650142Y-96446000D01*
X122602523Y-96493619D01*
X121459666Y-96350761D02*
X122316809Y-97636476D01*
X121173952Y-97350761D02*
X121031095Y-97398380D01*
X120793000Y-97398380D01*
X120697761Y-97350761D01*
X120650142Y-97303142D01*
X120602523Y-97207904D01*
X120602523Y-97112666D01*
X120650142Y-97017428D01*
X120697761Y-96969809D01*
X120793000Y-96922190D01*
X120983476Y-96874571D01*
X121078714Y-96826952D01*
X121126333Y-96779333D01*
X121173952Y-96684095D01*
X121173952Y-96588857D01*
X121126333Y-96493619D01*
X121078714Y-96446000D01*
X120983476Y-96398380D01*
X120745380Y-96398380D01*
X120602523Y-96446000D01*
X119602523Y-97303142D02*
X119650142Y-97350761D01*
X119793000Y-97398380D01*
X119888238Y-97398380D01*
X120031095Y-97350761D01*
X120126333Y-97255523D01*
X120173952Y-97160285D01*
X120221571Y-96969809D01*
X120221571Y-96826952D01*
X120173952Y-96636476D01*
X120126333Y-96541238D01*
X120031095Y-96446000D01*
X119888238Y-96398380D01*
X119793000Y-96398380D01*
X119650142Y-96446000D01*
X119602523Y-96493619D01*
X118602523Y-97398380D02*
X118935857Y-96922190D01*
X119173952Y-97398380D02*
X119173952Y-96398380D01*
X118793000Y-96398380D01*
X118697761Y-96446000D01*
X118650142Y-96493619D01*
X118602523Y-96588857D01*
X118602523Y-96731714D01*
X118650142Y-96826952D01*
X118697761Y-96874571D01*
X118793000Y-96922190D01*
X119173952Y-96922190D01*
X118173952Y-96874571D02*
X117840619Y-96874571D01*
X117697761Y-97398380D02*
X118173952Y-97398380D01*
X118173952Y-96398380D01*
X117697761Y-96398380D01*
X117269190Y-96874571D02*
X116935857Y-96874571D01*
X116793000Y-97398380D02*
X117269190Y-97398380D01*
X117269190Y-96398380D01*
X116793000Y-96398380D01*
X116364428Y-97398380D02*
X116364428Y-96398380D01*
X115793000Y-97398380D01*
X115793000Y-96398380D01*
X115316809Y-96874571D02*
X114983476Y-96874571D01*
X114840619Y-97398380D02*
X115316809Y-97398380D01*
X115316809Y-96398380D01*
X114840619Y-96398380D01*
X114412047Y-97398380D02*
X114412047Y-96398380D01*
X114173952Y-96398380D01*
X114031095Y-96446000D01*
X113935857Y-96541238D01*
X113888238Y-96636476D01*
X113840619Y-96826952D01*
X113840619Y-96969809D01*
X113888238Y-97160285D01*
X113935857Y-97255523D01*
X114031095Y-97350761D01*
X114173952Y-97398380D01*
X114412047Y-97398380D01*
X112078714Y-97303142D02*
X112126333Y-97350761D01*
X112269190Y-97398380D01*
X112364428Y-97398380D01*
X112507285Y-97350761D01*
X112602523Y-97255523D01*
X112650142Y-97160285D01*
X112697761Y-96969809D01*
X112697761Y-96826952D01*
X112650142Y-96636476D01*
X112602523Y-96541238D01*
X112507285Y-96446000D01*
X112364428Y-96398380D01*
X112269190Y-96398380D01*
X112126333Y-96446000D01*
X112078714Y-96493619D01*
X111697761Y-97112666D02*
X111221571Y-97112666D01*
X111793000Y-97398380D02*
X111459666Y-96398380D01*
X111126333Y-97398380D01*
X110840619Y-97350761D02*
X110697761Y-97398380D01*
X110459666Y-97398380D01*
X110364428Y-97350761D01*
X110316809Y-97303142D01*
X110269190Y-97207904D01*
X110269190Y-97112666D01*
X110316809Y-97017428D01*
X110364428Y-96969809D01*
X110459666Y-96922190D01*
X110650142Y-96874571D01*
X110745380Y-96826952D01*
X110793000Y-96779333D01*
X110840619Y-96684095D01*
X110840619Y-96588857D01*
X110793000Y-96493619D01*
X110745380Y-96446000D01*
X110650142Y-96398380D01*
X110412047Y-96398380D01*
X110269190Y-96446000D01*
X109840619Y-96874571D02*
X109507285Y-96874571D01*
X109364428Y-97398380D02*
X109840619Y-97398380D01*
X109840619Y-96398380D01*
X109364428Y-96398380D01*
X108935857Y-97303142D02*
X108888238Y-97350761D01*
X108935857Y-97398380D01*
X108983476Y-97350761D01*
X108935857Y-97303142D01*
X108935857Y-97398380D01*
X108935857Y-96779333D02*
X108888238Y-96826952D01*
X108935857Y-96874571D01*
X108983476Y-96826952D01*
X108935857Y-96779333D01*
X108935857Y-96874571D01*
X134816809Y-99008380D02*
X134816809Y-98008380D01*
X134483476Y-98722666D01*
X134150142Y-98008380D01*
X134150142Y-99008380D01*
X133483476Y-98008380D02*
X133293000Y-98008380D01*
X133197761Y-98056000D01*
X133102523Y-98151238D01*
X133054904Y-98341714D01*
X133054904Y-98675047D01*
X133102523Y-98865523D01*
X133197761Y-98960761D01*
X133293000Y-99008380D01*
X133483476Y-99008380D01*
X133578714Y-98960761D01*
X133673952Y-98865523D01*
X133721571Y-98675047D01*
X133721571Y-98341714D01*
X133673952Y-98151238D01*
X133578714Y-98056000D01*
X133483476Y-98008380D01*
X132626333Y-98008380D02*
X132626333Y-98817904D01*
X132578714Y-98913142D01*
X132531095Y-98960761D01*
X132435857Y-99008380D01*
X132245380Y-99008380D01*
X132150142Y-98960761D01*
X132102523Y-98913142D01*
X132054904Y-98817904D01*
X132054904Y-98008380D01*
X131578714Y-99008380D02*
X131578714Y-98008380D01*
X131007285Y-99008380D01*
X131007285Y-98008380D01*
X130673952Y-98008380D02*
X130102523Y-98008380D01*
X130388238Y-99008380D02*
X130388238Y-98008380D01*
X129007285Y-99008380D02*
X129007285Y-98008380D01*
X129007285Y-98484571D02*
X128435857Y-98484571D01*
X128435857Y-99008380D02*
X128435857Y-98008380D01*
X127769190Y-98008380D02*
X127578714Y-98008380D01*
X127483476Y-98056000D01*
X127388238Y-98151238D01*
X127340619Y-98341714D01*
X127340619Y-98675047D01*
X127388238Y-98865523D01*
X127483476Y-98960761D01*
X127578714Y-99008380D01*
X127769190Y-99008380D01*
X127864428Y-98960761D01*
X127959666Y-98865523D01*
X128007285Y-98675047D01*
X128007285Y-98341714D01*
X127959666Y-98151238D01*
X127864428Y-98056000D01*
X127769190Y-98008380D01*
X126435857Y-99008380D02*
X126912047Y-99008380D01*
X126912047Y-98008380D01*
X126102523Y-98484571D02*
X125769190Y-98484571D01*
X125626333Y-99008380D02*
X126102523Y-99008380D01*
X126102523Y-98008380D01*
X125626333Y-98008380D01*
X124435857Y-99008380D02*
X124435857Y-98008380D01*
X124054904Y-98008380D01*
X123959666Y-98056000D01*
X123912047Y-98103619D01*
X123864428Y-98198857D01*
X123864428Y-98341714D01*
X123912047Y-98436952D01*
X123959666Y-98484571D01*
X124054904Y-98532190D01*
X124435857Y-98532190D01*
X123483476Y-98722666D02*
X123007285Y-98722666D01*
X123578714Y-99008380D02*
X123245380Y-98008380D01*
X122912047Y-99008380D01*
X122578714Y-99008380D02*
X122578714Y-98008380D01*
X122340619Y-98008380D01*
X122197761Y-98056000D01*
X122102523Y-98151238D01*
X122054904Y-98246476D01*
X122007285Y-98436952D01*
X122007285Y-98579809D01*
X122054904Y-98770285D01*
X122102523Y-98865523D01*
X122197761Y-98960761D01*
X122340619Y-99008380D01*
X122578714Y-99008380D01*
X121626333Y-98960761D02*
X121483476Y-99008380D01*
X121245380Y-99008380D01*
X121150142Y-98960761D01*
X121102523Y-98913142D01*
X121054904Y-98817904D01*
X121054904Y-98722666D01*
X121102523Y-98627428D01*
X121150142Y-98579809D01*
X121245380Y-98532190D01*
X121435857Y-98484571D01*
X121531095Y-98436952D01*
X121578714Y-98389333D01*
X121626333Y-98294095D01*
X121626333Y-98198857D01*
X121578714Y-98103619D01*
X121531095Y-98056000D01*
X121435857Y-98008380D01*
X121197761Y-98008380D01*
X121054904Y-98056000D01*
X119912047Y-98722666D02*
X119435857Y-98722666D01*
X120007285Y-99008380D02*
X119673952Y-98008380D01*
X119340619Y-99008380D01*
X118435857Y-99008380D02*
X118769190Y-98532190D01*
X119007285Y-99008380D02*
X119007285Y-98008380D01*
X118626333Y-98008380D01*
X118531095Y-98056000D01*
X118483476Y-98103619D01*
X118435857Y-98198857D01*
X118435857Y-98341714D01*
X118483476Y-98436952D01*
X118531095Y-98484571D01*
X118626333Y-98532190D01*
X119007285Y-98532190D01*
X118007285Y-98484571D02*
X117673952Y-98484571D01*
X117531095Y-99008380D02*
X118007285Y-99008380D01*
X118007285Y-98008380D01*
X117531095Y-98008380D01*
X115816809Y-98056000D02*
X115912047Y-98008380D01*
X116054904Y-98008380D01*
X116197761Y-98056000D01*
X116293000Y-98151238D01*
X116340619Y-98246476D01*
X116388238Y-98436952D01*
X116388238Y-98579809D01*
X116340619Y-98770285D01*
X116293000Y-98865523D01*
X116197761Y-98960761D01*
X116054904Y-99008380D01*
X115959666Y-99008380D01*
X115816809Y-98960761D01*
X115769190Y-98913142D01*
X115769190Y-98579809D01*
X115959666Y-98579809D01*
X114769190Y-99008380D02*
X115102523Y-98532190D01*
X115340619Y-99008380D02*
X115340619Y-98008380D01*
X114959666Y-98008380D01*
X114864428Y-98056000D01*
X114816809Y-98103619D01*
X114769190Y-98198857D01*
X114769190Y-98341714D01*
X114816809Y-98436952D01*
X114864428Y-98484571D01*
X114959666Y-98532190D01*
X115340619Y-98532190D01*
X114150142Y-98008380D02*
X113959666Y-98008380D01*
X113864428Y-98056000D01*
X113769190Y-98151238D01*
X113721571Y-98341714D01*
X113721571Y-98675047D01*
X113769190Y-98865523D01*
X113864428Y-98960761D01*
X113959666Y-99008380D01*
X114150142Y-99008380D01*
X114245380Y-98960761D01*
X114340619Y-98865523D01*
X114388238Y-98675047D01*
X114388238Y-98341714D01*
X114340619Y-98151238D01*
X114245380Y-98056000D01*
X114150142Y-98008380D01*
X113293000Y-98008380D02*
X113293000Y-98817904D01*
X113245380Y-98913142D01*
X113197761Y-98960761D01*
X113102523Y-99008380D01*
X112912047Y-99008380D01*
X112816809Y-98960761D01*
X112769190Y-98913142D01*
X112721571Y-98817904D01*
X112721571Y-98008380D01*
X112245380Y-99008380D02*
X112245380Y-98008380D01*
X111673952Y-99008380D01*
X111673952Y-98008380D01*
X111197761Y-99008380D02*
X111197761Y-98008380D01*
X110959666Y-98008380D01*
X110816809Y-98056000D01*
X110721571Y-98151238D01*
X110673952Y-98246476D01*
X110626333Y-98436952D01*
X110626333Y-98579809D01*
X110673952Y-98770285D01*
X110721571Y-98865523D01*
X110816809Y-98960761D01*
X110959666Y-99008380D01*
X111197761Y-99008380D01*
X110197761Y-98484571D02*
X109864428Y-98484571D01*
X109721571Y-99008380D02*
X110197761Y-99008380D01*
X110197761Y-98008380D01*
X109721571Y-98008380D01*
X109293000Y-99008380D02*
X109293000Y-98008380D01*
X109054904Y-98008380D01*
X108912047Y-98056000D01*
X108816809Y-98151238D01*
X108769190Y-98246476D01*
X108721571Y-98436952D01*
X108721571Y-98579809D01*
X108769190Y-98770285D01*
X108816809Y-98865523D01*
X108912047Y-98960761D01*
X109054904Y-99008380D01*
X109293000Y-99008380D01*
M02*
